Necto Mono.glyphspackage
{
glyphname = AE;
layers = (
{
anchors = (
{
name = top;
position = "{303, 800}";
}
);
layerId = "B33A6296-7F33-4AA4-95A6-15EAB02AACC1";
paths = (
{
closed = 1;
nodes = (
"294 0 LINE",
"567 0 LINE",
"567 75 LINE",
"294 75 LINE"
);
},
{
closed = 1;
nodes = (
"294 0 LINE",
"377 0 LINE",
"377 700 LINE",
"294 700 LINE"
);
},
{
closed = 1;
nodes = (
"294 625 LINE",
"557 625 LINE",
"557 700 LINE",
"294 700 LINE"
);
},
{
closed = 1;
nodes = (
"294 331 LINE",
"507 331 LINE",
"507 406 LINE",
"294 406 LINE"
);
},
{
closed = 1;
nodes = (
"127 221 LINE",
"365 221 LINE",
"365 296 LINE",
"127 296 LINE"
);
},
{
closed = 1;
nodes = (
"294 598 LINE",
"294 700 LINE",
"250 700 LINE",
"33 0 LINE",
"119 0 LINE"
);
}
);
width = 610;
}
);
unicode = 00C6;
}
{
glyphname = Thorn;
layers = (
{
anchors = (
{
name = bottom;
position = "{305, 0}";
},
{
name = top;
position = "{305, 700}";
}
);
guideLines = (
{
position = "{543, 350}";
}
);
layerId = "B33A6296-7F33-4AA4-95A6-15EAB02AACC1";
paths = (
{
closed = 1;
nodes = (
"152 0 LINE",
"152 700 LINE",
"67 700 LINE",
"67 0 LINE"
);
},
{
closed = 1;
nodes = (
"152 0 LINE",
"152 700 LINE",
"67 700 LINE",
"67 0 LINE"
);
},
{
closed = 1;
nodes = (
"105 554 LINE",
"105 477 LINE",
"328 477 LINE SMOOTH",
"443 477 OFFCURVE",
"458 399 OFFCURVE",
"458 350 CURVE SMOOTH",
"458 301 OFFCURVE",
"443 223 OFFCURVE",
"328 223 CURVE SMOOTH",
"105 223 LINE",
"105 146 LINE",
"337 146 LINE SMOOTH",
"483 146 OFFCURVE",
"543 250 OFFCURVE",
"543 350 CURVE SMOOTH",
"543 450 OFFCURVE",
"483 554 OFFCURVE",
"337 554 CURVE SMOOTH"
);
}
);
width = 610;
},
{
anchors = (
{
name = bottom;
position = "{305, 0}";
},
{
name = top;
position = "{305, 700}";
}
);
associatedMasterId = "B33A6296-7F33-4AA4-95A6-15EAB02AACC1";
guideLines = (
{
position = "{543, 350}";
}
);
layerId = "A5DB6272-69F1-4ED7-A44C-E4EDE40142EC";
name = "Mar 16 17, 23:32";
paths = (
{
closed = 1;
nodes = (
"152 0 LINE",
"152 700 LINE",
"67 700 LINE",
"67 0 LINE"
);
},
{
closed = 1;
nodes = (
"105 554 LINE",
"105 479 LINE",
"338 479 LINE SMOOTH",
"443 479 OFFCURVE",
"459 399 OFFCURVE",
"459 350 CURVE SMOOTH",
"459 301 OFFCURVE",
"443 221 OFFCURVE",
"338 221 CURVE SMOOTH",
"105 221 LINE",
"105 146 LINE",
"347 146 LINE SMOOTH",
"476 146 OFFCURVE",
"542 250 OFFCURVE",
"542 350 CURVE SMOOTH",
"542 450 OFFCURVE",
"476 554 OFFCURVE",
"347 554 CURVE SMOOTH"
);
}
);
width = 610;
}
);
unicode = 00DE;
}
{
glyphname = ae;
layers = (
{
layerId = "B33A6296-7F33-4AA4-95A6-15EAB02AACC1";
paths = (
{
closed = 1;
nodes = (
"454 -10 OFFCURVE",
"507 46 OFFCURVE",
"538 118 CURVE",
"468 154 LINE",
"443 91 OFFCURVE",
"427 68 OFFCURVE",
"276 65 CURVE SMOOTH",
"201 63 OFFCURVE",
"131 68 OFFCURVE",
"131 134 CURVE SMOOTH",
"131 237 OFFCURVE",
"300 166 OFFCURVE",
"300 327 CURVE",
"258 327 LINE",
"258 223 OFFCURVE",
"48 303 OFFCURVE",
"48 134 CURVE SMOOTH",
"48 32 OFFCURVE",
"125 -10 OFFCURVE",
"278 -10 CURVE SMOOTH"
);
},
{
closed = 1;
nodes = (
"341 29 LINE",
"341 416 LINE",
"258 416 LINE",
"258 29 LINE"
);
},
{
closed = 1;
nodes = (
"551 235 LINE SMOOTH",
"558 386 OFFCURVE",
"470 484 OFFCURVE",
"288 479 CURVE SMOOTH",
"179 476 OFFCURVE",
"105 440 OFFCURVE",
"65 352 CURVE",
"135 316 LINE",
"171 376 OFFCURVE",
"198 402 OFFCURVE",
"288 404 CURVE SMOOTH",
"472 408 OFFCURVE",
"466 295 OFFCURVE",
"462 235 CURVE SMOOTH",
"461 218 LINE",
"550 213 LINE"
);
},
{
closed = 1;
nodes = (
"530 286 LINE",
"328 287 LINE",
"328 214 LINE",
"550 213 LINE"
);
}
);
width = 610;
},
{
associatedMasterId = "B33A6296-7F33-4AA4-95A6-15EAB02AACC1";
layerId = "A2D0BA10-7D34-4AF1-BCD2-0BFFF89CF05F";
name = "Regular Mar 1 17, 23:17";
paths = (
{
closed = 1;
nodes = (
"547 396 OFFCURVE",
"478 510 OFFCURVE",
"310 510 CURVE SMOOTH",
"228 510 OFFCURVE",
"148 507 OFFCURVE",
"73 415 CURVE",
"131 363 LINE",
"163 401 OFFCURVE",
"198 434 OFFCURVE",
"270 434 CURVE",
"270 290 LINE",
"183 259 OFFCURVE",
"64 239 OFFCURVE",
"64 135 CURVE SMOOTH",
"64 41 OFFCURVE",
"123 -10 OFFCURVE",
"226 -10 CURVE",
"304 -10 LINE SMOOTH",
"445 -10 OFFCURVE",
"496 39 OFFCURVE",
"538 118 CURVE",
"466 154 LINE",
"451 109 OFFCURVE",
"406 66 OFFCURVE",
"352 66 CURVE",
"352 218 LINE",
"547 218 LINE",
"547 250 LINE SMOOTH"
);
},
{
closed = 1;
nodes = (
"352 434 LINE",
"412 434 OFFCURVE",
"460 365 OFFCURVE",
"463 293 CURVE",
"352 293 LINE"
);
},
{
closed = 1;
nodes = (
"237 66 LINE",
"192 65 OFFCURVE",
"146 73 OFFCURVE",
"146 135 CURVE SMOOTH",
"146 179 OFFCURVE",
"205 196 OFFCURVE",
"270 217 CURVE",
"270 66 LINE"
);
}
);
width = 610;
},
{
associatedMasterId = "B33A6296-7F33-4AA4-95A6-15EAB02AACC1";
background = {
components = (
{
name = a;
transform = "{1, 0, 0, 1, -20, 0}";
}
);
};
layerId = "87F9AC78-46CC-4D7F-8BB0-E093E2ABE27F";
name = "Oct 9 17, 23:22";
paths = (
{
closed = 1;
nodes = (
"547 396 OFFCURVE",
"478 510 OFFCURVE",
"300 510 CURVE SMOOTH",
"212 510 OFFCURVE",
"129 505 OFFCURVE",
"72 382 CURVE",
"142 346 LINE",
"164 404 OFFCURVE",
"198 435 OFFCURVE",
"270 435 CURVE",
"270 290 LINE",
"270 -10 LINE",
"304 -10 LINE SMOOTH",
"445 -10 OFFCURVE",
"496 39 OFFCURVE",
"538 118 CURVE",
"466 154 LINE",
"451 109 OFFCURVE",
"406 66 OFFCURVE",
"352 66 CURVE",
"352 218 LINE",
"547 218 LINE",
"547 250 LINE SMOOTH"
);
},
{
closed = 1;
nodes = (
"352 434 LINE",
"412 434 OFFCURVE",
"460 365 OFFCURVE",
"463 293 CURVE",
"352 293 LINE"
);
},
{
closed = 1;
nodes = (
"132 243 OFFCURVE",
"318 168 OFFCURVE",
"318 344 CURVE",
"271 344 LINE",
"271 235 OFFCURVE",
"49 318 OFFCURVE",
"49 131 CURVE SMOOTH",
"49 42 OFFCURVE",
"116 -10 OFFCURVE",
"224 -10 CURVE SMOOTH",
"327 -10 OFFCURVE",
"398 52 OFFCURVE",
"398 181 CURVE",
"367 181 LINE",
"367 131 OFFCURVE",
"334 65 OFFCURVE",
"224 65 CURVE SMOOTH",
"184 65 OFFCURVE",
"132 72 OFFCURVE",
"132 131 CURVE"
);
}
);
width = 610;
},
{
associatedMasterId = "B33A6296-7F33-4AA4-95A6-15EAB02AACC1";
background = {
components = (
{
name = a;
transform = "{1, 0, 0, 1, -20, 0}";
}
);
};
layerId = "C196F2A2-807F-49DB-809A-B2A39EDCD6C0";
name = "Nov 13 17, 21:51";
paths = (
{
closed = 1;
nodes = (
"547 396 OFFCURVE",
"478 510 OFFCURVE",
"300 510 CURVE SMOOTH",
"212 510 OFFCURVE",
"129 505 OFFCURVE",
"72 382 CURVE",
"142 346 LINE",
"164 404 OFFCURVE",
"198 435 OFFCURVE",
"270 435 CURVE",
"270 290 LINE",
"270 -10 LINE",
"304 -10 LINE SMOOTH",
"445 -10 OFFCURVE",
"496 39 OFFCURVE",
"538 118 CURVE",
"466 154 LINE",
"451 109 OFFCURVE",
"406 66 OFFCURVE",
"352 66 CURVE",
"352 218 LINE",
"547 218 LINE",
"547 250 LINE SMOOTH"
);
},
{
closed = 1;
nodes = (
"352 434 LINE",
"412 434 OFFCURVE",
"460 365 OFFCURVE",
"463 293 CURVE",
"352 293 LINE"
);
},
{
closed = 1;
nodes = (
"132 243 OFFCURVE",
"318 168 OFFCURVE",
"318 344 CURVE",
"271 344 LINE",
"271 235 OFFCURVE",
"49 318 OFFCURVE",
"49 131 CURVE SMOOTH",
"49 42 OFFCURVE",
"116 -10 OFFCURVE",
"224 -10 CURVE SMOOTH",
"327 -10 OFFCURVE",
"398 52 OFFCURVE",
"398 181 CURVE",
"367 181 LINE",
"367 131 OFFCURVE",
"334 65 OFFCURVE",
"224 65 CURVE SMOOTH",
"184 65 OFFCURVE",
"132 72 OFFCURVE",
"132 131 CURVE"
);
}
);
width = 610;
},
{
associatedMasterId = "B33A6296-7F33-4AA4-95A6-15EAB02AACC1";
background = {
components = (
{
name = a;
transform = "{1, 0, 0, 1, -20, 0}";
}
);
};
layerId = "7F46D943-16F7-4B6B-9414-F7A282072C25";
name = "Nov 13 17, 21:51";
paths = (
{
closed = 1;
nodes = (
"547 396 OFFCURVE",
"478 510 OFFCURVE",
"300 510 CURVE SMOOTH",
"212 510 OFFCURVE",
"129 505 OFFCURVE",
"72 382 CURVE",
"142 346 LINE",
"164 404 OFFCURVE",
"198 435 OFFCURVE",
"270 435 CURVE",
"270 290 LINE",
"270 38 LINE",
"224 -10 LINE",
"304 -10 LINE SMOOTH",
"443 -10 OFFCURVE",
"496 39 OFFCURVE",
"538 118 CURVE",
"466 154 LINE",
"451 109 OFFCURVE",
"406 66 OFFCURVE",
"352 66 CURVE",
"352 218 LINE",
"547 218 LINE",
"547 250 LINE SMOOTH"
);
},
{
closed = 1;
nodes = (
"352 434 LINE",
"412 434 OFFCURVE",
"460 365 OFFCURVE",
"463 293 CURVE",
"352 293 LINE"
);
},
{
closed = 1;
nodes = (
"132 243 OFFCURVE",
"318 168 OFFCURVE",
"318 344 CURVE",
"271 344 LINE",
"271 235 OFFCURVE",
"49 318 OFFCURVE",
"49 131 CURVE SMOOTH",
"49 42 OFFCURVE",
"116 -10 OFFCURVE",
"224 -10 CURVE SMOOTH",
"327 -10 OFFCURVE",
"335 31 OFFCURVE",
"335 65 CURVE",
"324 65 OFFCURVE",
"291 65 OFFCURVE",
"224 65 CURVE SMOOTH",
"184 65 OFFCURVE",
"132 72 OFFCURVE",
"132 131 CURVE"
);
}
);
width = 610;
},
{
anchors = (
{
name = bottom;
position = "{285, 0}";
},
{
name = ogonek;
position = "{353, 10}";
},
{
name = top;
position = "{310, 580}";
}
);
associatedMasterId = "B33A6296-7F33-4AA4-95A6-15EAB02AACC1";
background = {
components = (
{
name = s;
transform = "{1, 0, 0, -1, -28, 470}";
}
);
};
layerId = "FA201AC5-CBEA-4B6C-885A-CF5CDF7562D7";
name = "Dec 5 17, 22:56";
paths = (
{
closed = 1;
nodes = (
"131 247 OFFCURVE",
"317 162 OFFCURVE",
"317 324 CURVE",
"270 324 LINE",
"270 222 OFFCURVE",
"48 315 OFFCURVE",
"48 138 CURVE SMOOTH",
"48 40 OFFCURVE",
"115 -10 OFFCURVE",
"221 -10 CURVE SMOOTH",
"258 -10 OFFCURVE",
"285 -4 OFFCURVE",
"310 8 CURVE",
"311 85 LINE",
"290 73 OFFCURVE",
"261 65 OFFCURVE",
"223 65 CURVE SMOOTH",
"183 65 OFFCURVE",
"131 72 OFFCURVE",
"131 131 CURVE"
);
},
{
closed = 1;
nodes = (
"270 -10 LINE",
"353 -10 LINE",
"353 416 LINE",
"270 416 LINE"
);
},
{
closed = 1;
nodes = (
"328 214 LINE",
"550 213 LINE",
"530 286 LINE",
"328 287 LINE"
);
},
{
closed = 1;
nodes = (
"330 -10 LINE",
"451 -10 OFFCURVE",
"507 46 OFFCURVE",
"538 118 CURVE",
"468 154 LINE",
"447 93 OFFCURVE",
"410 65 OFFCURVE",
"330 65 CURVE"
);
},
{
closed = 1;
nodes = (
"187 480 OFFCURVE",
"117 450 OFFCURVE",
"71 352 CURVE",
"141 316 LINE",
"182 384 OFFCURVE",
"200 405 OFFCURVE",
"286 405 CURVE SMOOTH",
"474 405 OFFCURVE",
"466 305 OFFCURVE",
"462 235 CURVE SMOOTH",
"461 218 LINE",
"550 213 LINE",
"551 235 LINE SMOOTH",
"558 383 OFFCURVE",
"476 480 OFFCURVE",
"290 480 CURVE SMOOTH"
);
}
);
width = 610;
}
);
unicode = 00E6;
}
{
glyphname = brokenbar;
layers = (
{
layerId = "B33A6296-7F33-4AA4-95A6-15EAB02AACC1";
paths = (
{
closed = 1;
nodes = (
"262 356 LINE",
"347 356 LINE",
"347 700 LINE",
"262 700 LINE"
);
},
{
closed = 1;
nodes = (
"262 -200 LINE",
"347 -200 LINE",
"347 144 LINE",
"262 144 LINE"
);
}
);
width = 610;
}
);
unicode = 00A6;
}
{
glyphname = cedilla;
layers = (
{
anchors = (
{
name = "new anchor";
position = "{309, 0}";
}
);
layerId = "B33A6296-7F33-4AA4-95A6-15EAB02AACC1";
paths = (
{
closed = 1;
nodes = (
"344 0 LINE",
"282 34 LINE",
"232 -38 LINE",
"232 -69 LINE",
"274 -69 OFFCURVE",
"303 -76 OFFCURVE",
"303 -109 CURVE",
"303 -144 OFFCURVE",
"253 -148 OFFCURVE",
"223 -133 CURVE",
"199 -200 LINE",
"289 -239 OFFCURVE",
"385 -194 OFFCURVE",
"385 -114 CURVE SMOOTH",
"385 -61 OFFCURVE",
"344 -33 OFFCURVE",
"301 -29 CURVE",
"284 -63 LINE"
);
}
);
width = 610;
},
{
anchors = (
{
name = "new anchor";
position = "{309, 0}";
}
);
associatedMasterId = "B33A6296-7F33-4AA4-95A6-15EAB02AACC1";
layerId = "8A017B18-EFC5-4F5A-BB80-914E2D05391A";
name = "Oct 10 17, 22:06";
paths = (
{
closed = 1;
nodes = (
"357 34 LINE",
"273 34 LINE",
"220 -68 LINE",
"262 -68 OFFCURVE",
"300 -72 OFFCURVE",
"300 -111 CURVE SMOOTH",
"300 -157 OFFCURVE",
"211 -127 OFFCURVE",
"192 -120 CURVE",
"172 -192 LINE",
"266 -227 OFFCURVE",
"384 -217 OFFCURVE",
"384 -111 CURVE SMOOTH",
"384 -49 OFFCURVE",
"345 -24 OFFCURVE",
"304 -15 CURVE",
"310 -63 LINE"
);
}
);
width = 610;
},
{
anchors = (
{
name = "new anchor";
position = "{309, 0}";
}
);
associatedMasterId = "B33A6296-7F33-4AA4-95A6-15EAB02AACC1";
layerId = "B92DA3F8-E2DA-4D41-9145-482A78CE1518";
name = "Regular Jan 1 18, 17:12";
paths = (
{
closed = 1;
nodes = (
"344 1 LINE",
"276 34 LINE",
"220 -69 LINE",
"262 -69 OFFCURVE",
"301 -72 OFFCURVE",
"301 -111 CURVE",
"301 -157 OFFCURVE",
"211 -130 OFFCURVE",
"192 -120 CURVE",
"170 -192 LINE",
"261 -231 OFFCURVE",
"384 -213 OFFCURVE",
"384 -109 CURVE SMOOTH",
"384 -49 OFFCURVE",
"342 -30 OFFCURVE",
"301 -30 CURVE",
"284 -63 LINE"
);
}
);
width = 610;
}
);
unicode = 00B8;
}
{
glyphname = cent;
layers = (
{
components = (
{
alignment = -1;
name = c;
transform = "{1, 0, 0, 1, 0, 100}";
}
);
layerId = "B33A6296-7F33-4AA4-95A6-15EAB02AACC1";
paths = (
{
closed = 1;
nodes = (
"274 561 LINE",
"357 561 LINE",
"358 700 LINE",
"273 700 LINE"
);
},
{
closed = 1;
nodes = (
"273 0 LINE",
"358 0 LINE",
"357 129 LINE",
"274 129 LINE"
);
}
);
width = 610;
}
);
unicode = 00A2;
}
{
color = 4;
glyphname = copyright;
layers = (
{
anchors = (
{
name = bottom;
position = "{295.688, 493}";
},
{
name = top;
position = "{288.659, 737.495}";
}
);
guideLines = (
{
position = "{292, 490}";
}
);
layerId = "B33A6296-7F33-4AA4-95A6-15EAB02AACC1";
paths = (
{
closed = 1;
nodes = (
"384 439 OFFCURVE",
"456 511 OFFCURVE",
"456 600 CURVE SMOOTH",
"456 689 OFFCURVE",
"384 761 OFFCURVE",
"296 761 CURVE SMOOTH",
"207 761 OFFCURVE",
"135 689 OFFCURVE",
"135 600 CURVE SMOOTH",
"135 511 OFFCURVE",
"207 439 OFFCURVE",
"296 439 CURVE SMOOTH"
);
},
{
closed = 1;
nodes = (
"182 393 OFFCURVE",
"89 486 OFFCURVE",
"89 600 CURVE SMOOTH",
"89 714 OFFCURVE",
"182 807 OFFCURVE",
"296 807 CURVE SMOOTH",
"409 807 OFFCURVE",
"502 714 OFFCURVE",
"502 600 CURVE SMOOTH",
"502 486 OFFCURVE",
"409 393 OFFCURVE",
"296 393 CURVE SMOOTH"
);
},
{
closed = 1;
nodes = (
"270 531 OFFCURVE",
"252 560 OFFCURVE",
"252 600 CURVE SMOOTH",
"252 640 OFFCURVE",
"270 668 OFFCURVE",
"301 668 CURVE SMOOTH",
"322 668 OFFCURVE",
"332 653 OFFCURVE",
"343 631 CURVE",
"384 638 LINE",
"373 682 OFFCURVE",
"342 710 OFFCURVE",
"301 710 CURVE SMOOTH",
"243 710 OFFCURVE",
"206 663 OFFCURVE",
"206 600 CURVE SMOOTH",
"206 537 OFFCURVE",
"243 490 OFFCURVE",
"301 490 CURVE SMOOTH",
"342 490 OFFCURVE",
"373 518 OFFCURVE",
"384 561 CURVE",
"343 579 LINE",
"332 546 OFFCURVE",
"322 531 OFFCURVE",
"301 531 CURVE SMOOTH"
);
}
);
width = 610;
},
{
associatedMasterId = "B33A6296-7F33-4AA4-95A6-15EAB02AACC1";
layerId = "F10440DE-33A9-486C-AFBE-B7620C2EA301";
name = "Regular Feb 1 18, 11:18";
paths = (
{
closed = 1;
nodes = (
"258 523 OFFCURVE",
"239 550 OFFCURVE",
"239 600 CURVE SMOOTH",
"239 650 OFFCURVE",
"258 677 OFFCURVE",
"292 677 CURVE SMOOTH",
"321 677 OFFCURVE",
"325 660 OFFCURVE",
"337 635 CURVE",
"366 649 LINE",
"355 687 OFFCURVE",
"328 709 OFFCURVE",
"292 709 CURVE SMOOTH",
"238 709 OFFCURVE",
"205 667 OFFCURVE",
"205 600 CURVE SMOOTH",
"205 532 OFFCURVE",
"238 490 OFFCURVE",
"292 490 CURVE SMOOTH",
"328 490 OFFCURVE",
"356 513 OFFCURVE",
"366 551 CURVE",
"337 565 LINE",
"325 539 OFFCURVE",
"321 523 OFFCURVE",
"292 523 CURVE SMOOTH"
);
},
{
closed = 1;
nodes = (
"384 439 OFFCURVE",
"456 511 OFFCURVE",
"456 600 CURVE SMOOTH",
"456 689 OFFCURVE",
"384 761 OFFCURVE",
"296 761 CURVE SMOOTH",
"207 761 OFFCURVE",
"135 689 OFFCURVE",
"135 600 CURVE SMOOTH",
"135 511 OFFCURVE",
"207 439 OFFCURVE",
"296 439 CURVE SMOOTH"
);
},
{
closed = 1;
nodes = (
"186 401 OFFCURVE",
"97 490 OFFCURVE",
"97 600 CURVE SMOOTH",
"97 710 OFFCURVE",
"186 799 OFFCURVE",
"296 799 CURVE SMOOTH",
"405 799 OFFCURVE",
"494 710 OFFCURVE",
"494 600 CURVE SMOOTH",
"494 490 OFFCURVE",
"405 401 OFFCURVE",
"296 401 CURVE SMOOTH"
);
}
);
width = 610;
}
);
unicode = 00A9;
}
{
glyphname = currency;
layers = (
{
background = {
components = (
{
name = o;
}
);
};
components = (
{
name = o;
transform = "{0.94126, 0, 0, 0.89944, 18, 121}";
}
);
layerId = "B33A6296-7F33-4AA4-95A6-15EAB02AACC1";
paths = (
{
closed = 1;
nodes = (
"416 164 LINE",
"511 67 LINE",
"569 119 LINE",
"474 214 LINE"
);
},
{
closed = 1;
nodes = (
"42 547 LINE",
"144 443 LINE",
"202 495 LINE",
"100 597 LINE"
);
},
{
closed = 1;
nodes = (
"42 119 LINE",
"100 67 LINE",
"195 164 LINE",
"137 214 LINE"
);
},
{
closed = 1;
nodes = (
"409 495 LINE",
"467 443 LINE",
"569 547 LINE",
"511 597 LINE"
);
}
);
width = 610;
}
);
unicode = 00A4;
}
{
glyphname = degree;
layers = (
{
layerId = "B33A6296-7F33-4AA4-95A6-15EAB02AACC1";
paths = (
{
closed = 1;
nodes = (
"381 444 OFFCURVE",
"441 504 OFFCURVE",
"441 577 CURVE SMOOTH",
"441 650 OFFCURVE",
"381 710 OFFCURVE",
"308 710 CURVE SMOOTH",
"235 710 OFFCURVE",
"175 650 OFFCURVE",
"175 577 CURVE SMOOTH",
"175 504 OFFCURVE",
"235 444 OFFCURVE",
"308 444 CURVE SMOOTH"
);
},
{
closed = 1;
nodes = (
"280 519 OFFCURVE",
"258 545 OFFCURVE",
"258 577 CURVE SMOOTH",
"258 609 OFFCURVE",
"280 635 OFFCURVE",
"308 635 CURVE SMOOTH",
"336 635 OFFCURVE",
"358 609 OFFCURVE",
"358 577 CURVE SMOOTH",
"358 545 OFFCURVE",
"336 519 OFFCURVE",
"308 519 CURVE SMOOTH"
);
}
);
width = 610;
}
);
unicode = 00B0;
}
{
glyphname = divide;
layers = (
{
background = {
components = (
{
name = plus;
}
);
};
layerId = "B33A6296-7F33-4AA4-95A6-15EAB02AACC1";
paths = (
{
closed = 1;
nodes = (
"264 50 LINE",
"347 50 LINE",
"347 133 LINE",
"264 133 LINE"
);
},
{
closed = 1;
nodes = (
"264 422 LINE",
"347 422 LINE",
"347 505 LINE",
"264 505 LINE"
);
},
{
closed = 1;
nodes = (
"80 316 LINE",
"80 239 LINE",
"530 239 LINE",
"530 316 LINE"
);
}
);
width = 610;
}
);
unicode = 00F7;
}
{
glyphname = eth;
layers = (
{
anchors = (
{
name = _center;
position = "{253, 250}";
}
);
associatedMasterId = "B33A6296-7F33-4AA4-95A6-15EAB02AACC1";
background = {
components = (
{
name = six;
transform = "{-1, 0, 0, 1, 609, 0}";
}
);
};
guideLines = (
{
position = "{427, 235}";
}
);
layerId = "D953850D-F93D-4839-9B82-17CD82025263";
name = "1";
paths = (
{
closed = 1;
nodes = (
"388 589 OFFCURVE",
"449 515 OFFCURVE",
"449 316 CURVE SMOOTH",
"449 214 OFFCURVE",
"437 65 OFFCURVE",
"303 65 CURVE SMOOTH",
"217 65 OFFCURVE",
"165 131 OFFCURVE",
"165 235 CURVE SMOOTH",
"165 339 OFFCURVE",
"217 405 OFFCURVE",
"303 405 CURVE SMOOTH",
"423 405 OFFCURVE",
"453 311 OFFCURVE",
"445 218 CURVE",
"486 218 LINE",
"516 328 OFFCURVE",
"443 480 OFFCURVE",
"303 480 CURVE",
"141 480 OFFCURVE",
"82 346 OFFCURVE",
"82 235 CURVE SMOOTH",
"82 124 OFFCURVE",
"140 -10 OFFCURVE",
"303 -10 CURVE SMOOTH",
"471 -10 OFFCURVE",
"523 129 OFFCURVE",
"523 316 CURVE SMOOTH",
"523 524 OFFCURVE",
"471 613 OFFCURVE",
"366 700 CURVE",
"288 664 LINE"
);
},
{
closed = 1;
nodes = (
"550 600 LINE",
"303 600 LINE",
"303 537 LINE",
"550 537 LINE"
);
}
);
width = 610;
},
{
anchors = (
{
name = _center;
position = "{253, 250}";
}
);
associatedMasterId = "B33A6296-7F33-4AA4-95A6-15EAB02AACC1";
background = {
components = (
{
name = six;
transform = "{-1, 0, 0, 1, 609, 0}";
}
);
};
guideLines = (
{
position = "{427, 235}";
}
);
layerId = "62D93AE0-6893-4CFB-A793-91A62C79059F";
name = "2";
paths = (
{
closed = 1;
nodes = (
"388 589 OFFCURVE",
"449 515 OFFCURVE",
"449 316 CURVE SMOOTH",
"449 214 OFFCURVE",
"437 65 OFFCURVE",
"303 65 CURVE SMOOTH",
"217 65 OFFCURVE",
"165 131 OFFCURVE",
"165 235 CURVE SMOOTH",
"165 339 OFFCURVE",
"217 405 OFFCURVE",
"303 405 CURVE SMOOTH",
"423 405 OFFCURVE",
"453 311 OFFCURVE",
"445 218 CURVE",
"486 218 LINE",
"516 328 OFFCURVE",
"443 480 OFFCURVE",
"303 480 CURVE",
"141 480 OFFCURVE",
"82 346 OFFCURVE",
"82 235 CURVE SMOOTH",
"82 124 OFFCURVE",
"140 -10 OFFCURVE",
"303 -10 CURVE SMOOTH",
"471 -10 OFFCURVE",
"523 129 OFFCURVE",
"523 316 CURVE SMOOTH",
"523 524 OFFCURVE",
"471 613 OFFCURVE",
"366 700 CURVE",
"288 664 LINE"
);
},
{
closed = 1;
nodes = (
"550 600 LINE",
"303 600 LINE",
"303 537 LINE",
"550 537 LINE"
);
}
);
width = 610;
},
{
associatedMasterId = "B33A6296-7F33-4AA4-95A6-15EAB02AACC1";
layerId = "65C1924F-3934-4280-B0EE-D0AD8CFC3BD3";
name = "Dec 6 17, 14:56";
paths = (
{
closed = 1;
nodes = (
"385 581 OFFCURVE",
"449 517 OFFCURVE",
"449 318 CURVE SMOOTH",
"449 216 OFFCURVE",
"440 65 OFFCURVE",
"303 65 CURVE SMOOTH",
"217 65 OFFCURVE",
"165 131 OFFCURVE",
"165 235 CURVE SMOOTH",
"165 339 OFFCURVE",
"217 405 OFFCURVE",
"303 405 CURVE SMOOTH",
"423 405 OFFCURVE",
"453 311 OFFCURVE",
"445 218 CURVE",
"486 218 LINE",
"516 328 OFFCURVE",
"443 480 OFFCURVE",
"303 480 CURVE",
"141 480 OFFCURVE",
"82 346 OFFCURVE",
"82 235 CURVE SMOOTH",
"82 124 OFFCURVE",
"140 -10 OFFCURVE",
"303 -10 CURVE SMOOTH",
"469 -10 OFFCURVE",
"533 122 OFFCURVE",
"533 316 CURVE SMOOTH",
"533 524 OFFCURVE",
"471 607 OFFCURVE",
"356 700 CURVE",
"278 662 LINE"
);
},
{
closed = 1;
nodes = (
"550 610 LINE",
"303 610 LINE",
"303 547 LINE",
"550 547 LINE"
);
}
);
width = 610;
},
{
associatedMasterId = "B33A6296-7F33-4AA4-95A6-15EAB02AACC1";
layerId = "B9B279FE-F35B-43E9-8157-732570570A49";
name = "Regular Dec 23 17, 18:24";
paths = (
{
closed = 1;
nodes = (
"372 591 OFFCURVE",
"452 517 OFFCURVE",
"456 371 CURVE SMOOTH",
"457 349 OFFCURVE",
"449 334 OFFCURVE",
"449 307 CURVE SMOOTH",
"449 216 OFFCURVE",
"438 65 OFFCURVE",
"305 65 CURVE SMOOTH",
"217 65 OFFCURVE",
"165 131 OFFCURVE",
"165 236 CURVE SMOOTH",
"165 339 OFFCURVE",
"215 405 OFFCURVE",
"308 405 CURVE SMOOTH",
"422 405 OFFCURVE",
"454 306 OFFCURVE",
"445 218 CURVE",
"486 218 LINE",
"516 328 OFFCURVE",
"443 480 OFFCURVE",
"303 480 CURVE",
"141 480 OFFCURVE",
"82 346 OFFCURVE",
"82 235 CURVE SMOOTH",
"82 125 OFFCURVE",
"139 -10 OFFCURVE",
"305 -10 CURVE SMOOTH",
"469 -10 OFFCURVE",
"532 121 OFFCURVE",
"532 322 CURVE SMOOTH",
"532 524 OFFCURVE",
"468 610 OFFCURVE",
"356 700 CURVE",
"278 662 LINE"
);
},
{
closed = 1;
nodes = (
"550 610 LINE",
"303 610 LINE",
"303 547 LINE",
"550 547 LINE"
);
}
);
width = 610;
},
{
layerId = "B33A6296-7F33-4AA4-95A6-15EAB02AACC1";
paths = (
{
closed = 1;
nodes = (
"400 561 OFFCURVE",
"472 430 OFFCURVE",
"472 277 CURVE SMOOTH",
"472 277 OFFCURVE",
"460 279 OFFCURVE",
"460 277 CURVE SMOOTH",
"460 137 OFFCURVE",
"403 65 OFFCURVE",
"308 65 CURVE SMOOTH",
"216 65 OFFCURVE",
"166 131 OFFCURVE",
"166 236 CURVE SMOOTH",
"166 339 OFFCURVE",
"215 405 OFFCURVE",
"308 405 CURVE SMOOTH",
"422 405 OFFCURVE",
"466 306 OFFCURVE",
"457 218 CURVE",
"496 218 LINE",
"526 328 OFFCURVE",
"443 480 OFFCURVE",
"303 480 CURVE",
"142 480 OFFCURVE",
"83 345 OFFCURVE",
"83 234 CURVE SMOOTH",
"83 125 OFFCURVE",
"141 -10 OFFCURVE",
"306 -10 CURVE SMOOTH",
"416 -10 OFFCURVE",
"538 48 OFFCURVE",
"538 281 CURVE SMOOTH",
"538 444 OFFCURVE",
"478 595 OFFCURVE",
"306 700 CURVE",
"231 657 LINE"
);
},
{
closed = 1;
nodes = (
"477 675 LINE",
"224 566 LINE",
"247 505 LINE",
"504 616 LINE"
);
}
);
width = 610;
},
{
associatedMasterId = "B33A6296-7F33-4AA4-95A6-15EAB02AACC1";
layerId = "0C7CB418-5FE8-4A8A-8FD2-0AF38752DB19";
name = "Regular Jan 1 18, 18:22";
paths = (
{
closed = 1;
nodes = (
"400 561 OFFCURVE",
"472 430 OFFCURVE",
"472 277 CURVE SMOOTH",
"472 277 OFFCURVE",
"460 279 OFFCURVE",
"460 277 CURVE SMOOTH",
"460 137 OFFCURVE",
"403 65 OFFCURVE",
"308 65 CURVE SMOOTH",
"216 65 OFFCURVE",
"166 131 OFFCURVE",
"166 236 CURVE SMOOTH",
"166 339 OFFCURVE",
"215 405 OFFCURVE",
"308 405 CURVE SMOOTH",
"422 405 OFFCURVE",
"466 306 OFFCURVE",
"457 218 CURVE",
"496 218 LINE",
"526 328 OFFCURVE",
"443 480 OFFCURVE",
"303 480 CURVE",
"142 480 OFFCURVE",
"83 345 OFFCURVE",
"83 234 CURVE SMOOTH",
"83 125 OFFCURVE",
"141 -10 OFFCURVE",
"306 -10 CURVE SMOOTH",
"416 -10 OFFCURVE",
"538 48 OFFCURVE",
"538 281 CURVE SMOOTH",
"538 444 OFFCURVE",
"478 595 OFFCURVE",
"306 700 CURVE",
"231 657 LINE"
);
},
{
closed = 1;
nodes = (
"488 660 LINE",
"366 625 LINE",
"265 597 LINE",
"265 519 LINE",
"395 555 LINE",
"488 581 LINE"
);
}
);
width = 610;
}
);
unicode = 00F0;
}
{
glyphname = germandbls;
layers = (
{
layerId = "B33A6296-7F33-4AA4-95A6-15EAB02AACC1";
paths = (
{
closed = 1;
nodes = (
"459 395 OFFCURVE",
"501 448 OFFCURVE",
"501 525 CURVE SMOOTH",
"501 630 OFFCURVE",
"421 700 OFFCURVE",
"297 700 CURVE SMOOTH",
"197 700 OFFCURVE",
"83 654 OFFCURVE",
"83 456 CURVE SMOOTH",
"83 -200 LINE",
"166 -200 LINE",
"166 466 LINE SMOOTH",
"166 602 OFFCURVE",
"240 625 OFFCURVE",
"301 625 CURVE SMOOTH",
"382 625 OFFCURVE",
"418 578 OFFCURVE",
"418 522 CURVE SMOOTH",
"418 484 OFFCURVE",
"400 418 OFFCURVE",
"318 418 CURVE SMOOTH",
"271 418 LINE",
"271 343 LINE",
"295 343 LINE SMOOTH",
"402 343 OFFCURVE",
"442 270 OFFCURVE",
"442 209 CURVE SMOOTH",
"442 171 OFFCURVE",
"424 77 OFFCURVE",
"311 77 CURVE SMOOTH",
"271 77 LINE",
"271 0 LINE",
"325 0 LINE SMOOTH",
"453 0 OFFCURVE",
"525 105 OFFCURVE",
"525 209 CURVE SMOOTH",
"525 297 OFFCURVE",
"473 362 OFFCURVE",
"394 402 CURVE",
"394 374 LINE"
);
}
);
width = 610;
},
{
associatedMasterId = "B33A6296-7F33-4AA4-95A6-15EAB02AACC1";
layerId = "55E2B9F3-BF26-4EE1-A32D-79F2AC6DBCD2";
name = "1";
paths = (
{
closed = 1;
nodes = (
"478 417 OFFCURVE",
"507 460 OFFCURVE",
"507 522 CURVE SMOOTH",
"507 640 OFFCURVE",
"406 700 OFFCURVE",
"296 700 CURVE SMOOTH",
"194 700 OFFCURVE",
"81 669 OFFCURVE",
"81 456 CURVE SMOOTH",
"81 -200 LINE",
"165 -200 LINE",
"165 466 LINE SMOOTH",
"165 618 OFFCURVE",
"239 625 OFFCURVE",
"296 625 CURVE SMOOTH",
"382 625 OFFCURVE",
"423 582 OFFCURVE",
"423 522 CURVE SMOOTH",
"423 484 OFFCURVE",
"405 419 OFFCURVE",
"323 419 CURVE SMOOTH",
"298 419 LINE",
"298 344 LINE",
"326 344 LINE SMOOTH",
"429 344 OFFCURVE",
"447 247 OFFCURVE",
"447 209 CURVE SMOOTH",
"447 171 OFFCURVE",
"429 76 OFFCURVE",
"315 76 CURVE SMOOTH",
"221 76 LINE",
"221 -1 LINE",
"339 -1 LINE SMOOTH",
"453 -1 OFFCURVE",
"531 105 OFFCURVE",
"531 209 CURVE SMOOTH",
"531 299 OFFCURVE",
"494 347 OFFCURVE",
"431 387 CURVE"
);
}
);
width = 610;
},
{
associatedMasterId = "B33A6296-7F33-4AA4-95A6-15EAB02AACC1";
background = {
components = (
{
name = B;
}
);
};
layerId = "7EE83EE1-C097-468B-BE2C-728EAFCA9D8F";
name = "2";
paths = (
{
closed = 1;
nodes = (
"472 412 OFFCURVE",
"502 460 OFFCURVE",
"502 522 CURVE SMOOTH",
"502 639 OFFCURVE",
"407 700 OFFCURVE",
"308 700 CURVE SMOOTH",
"194 700 OFFCURVE",
"82 669 OFFCURVE",
"82 456 CURVE SMOOTH",
"82 -200 LINE",
"167 -200 LINE",
"167 466 LINE SMOOTH",
"167 608 OFFCURVE",
"239 623 OFFCURVE",
"301 623 CURVE SMOOTH",
"382 623 OFFCURVE",
"417 578 OFFCURVE",
"417 522 CURVE SMOOTH",
"417 484 OFFCURVE",
"400 419 OFFCURVE",
"318 419 CURVE SMOOTH",
"271 419 LINE",
"271 342 LINE",
"295 342 LINE SMOOTH",
"402 342 OFFCURVE",
"441 270 OFFCURVE",
"441 209 CURVE SMOOTH",
"441 171 OFFCURVE",
"424 77 OFFCURVE",
"311 77 CURVE SMOOTH",
"271 77 LINE",
"271 0 LINE",
"325 0 LINE SMOOTH",
"453 0 OFFCURVE",
"526 105 OFFCURVE",
"526 209 CURVE SMOOTH",
"526 286 OFFCURVE",
"486 346 OFFCURVE",
"423 386 CURVE"
);
}
);
width = 610;
},
{
associatedMasterId = "B33A6296-7F33-4AA4-95A6-15EAB02AACC1";
background = {
components = (
{
name = B;
}
);
};
layerId = "E2B54D62-67F8-4467-A164-E474002A46B1";
name = "3";
paths = (
{
closed = 1;
nodes = (
"459 395 OFFCURVE",
"502 449 OFFCURVE",
"502 522 CURVE SMOOTH",
"502 639 OFFCURVE",
"407 700 OFFCURVE",
"308 700 CURVE SMOOTH",
"193 700 OFFCURVE",
"82 654 OFFCURVE",
"82 456 CURVE SMOOTH",
"82 -200 LINE",
"167 -200 LINE",
"167 466 LINE SMOOTH",
"167 602 OFFCURVE",
"240 623 OFFCURVE",
"301 623 CURVE SMOOTH",
"382 623 OFFCURVE",
"417 578 OFFCURVE",
"417 522 CURVE SMOOTH",
"417 484 OFFCURVE",
"400 418 OFFCURVE",
"318 418 CURVE SMOOTH",
"271 418 LINE",
"271 343 LINE",
"295 343 LINE SMOOTH",
"402 343 OFFCURVE",
"441 270 OFFCURVE",
"441 209 CURVE SMOOTH",
"441 171 OFFCURVE",
"424 77 OFFCURVE",
"311 77 CURVE SMOOTH",
"271 77 LINE",
"271 0 LINE",
"325 0 LINE SMOOTH",
"453 0 OFFCURVE",
"526 105 OFFCURVE",
"526 209 CURVE SMOOTH",
"526 297 OFFCURVE",
"473 362 OFFCURVE",
"394 402 CURVE",
"394 374 LINE"
);
}
);
width = 610;
},
{
associatedMasterId = "B33A6296-7F33-4AA4-95A6-15EAB02AACC1";
layerId = "DDE34F89-B814-4CE1-ACFF-0F073EF2A812";
name = "4";
paths = (
{
closed = 1;
nodes = (
"459 395 OFFCURVE",
"502 449 OFFCURVE",
"502 522 CURVE SMOOTH",
"502 639 OFFCURVE",
"407 700 OFFCURVE",
"308 700 CURVE SMOOTH",
"193 700 OFFCURVE",
"82 654 OFFCURVE",
"82 456 CURVE SMOOTH",
"82 -200 LINE",
"167 -200 LINE",
"167 466 LINE SMOOTH",
"167 602 OFFCURVE",
"240 623 OFFCURVE",
"301 623 CURVE SMOOTH",
"382 623 OFFCURVE",
"417 578 OFFCURVE",
"417 522 CURVE SMOOTH",
"417 484 OFFCURVE",
"400 418 OFFCURVE",
"318 418 CURVE SMOOTH",
"271 418 LINE",
"271 343 LINE",
"295 343 LINE SMOOTH",
"402 343 OFFCURVE",
"441 270 OFFCURVE",
"441 209 CURVE SMOOTH",
"441 171 OFFCURVE",
"424 77 OFFCURVE",
"311 77 CURVE SMOOTH",
"271 77 LINE",
"271 0 LINE",
"325 0 LINE SMOOTH",
"453 0 OFFCURVE",
"526 105 OFFCURVE",
"526 209 CURVE SMOOTH",
"526 297 OFFCURVE",
"473 362 OFFCURVE",
"394 402 CURVE",
"394 374 LINE"
);
}
);
width = 610;
}
);
unicode = 00DF;
}
{
glyphname = logicalnot;
layers = (
{
background = {
components = (
{
name = plus;
}
);
};
layerId = "B33A6296-7F33-4AA4-95A6-15EAB02AACC1";
paths = (
{
closed = 1;
nodes = (
"79 349 LINE",
"523 349 LINE",
"523 426 LINE",
"79 426 LINE"
);
},
{
closed = 1;
nodes = (
"440 426 LINE",
"440 93 LINE",
"525 93 LINE",
"525 426 LINE"
);
}
);
width = 610;
}
);
unicode = 00AC;
}
{
glyphname = macron;
layers = (
{
background = {
components = (
{
name = a;
}
);
};
layerId = "B33A6296-7F33-4AA4-95A6-15EAB02AACC1";
paths = (
{
closed = 1;
nodes = (
"116 605 LINE",
"117 530 LINE",
"494 530 LINE",
"494 605 LINE"
);
}
);
width = 610;
}
);
unicode = 00AF;
}
{
glyphname = micro;
layers = (
{
anchors = (
{
name = bottom;
position = "{300, 0}";
},
{
name = top;
position = "{300, 500}";
}
);
components = (
{
name = u;
transform = "{1, 0, 0, 1, 3, 0}";
}
);
layerId = "B33A6296-7F33-4AA4-95A6-15EAB02AACC1";
paths = (
{
closed = 1;
nodes = (
"108 -230 LINE",
"191 -230 LINE",
"188 96 LINE",
"160 220 LINE",
"190 470 LINE",
"108 470 LINE"
);
}
);
width = 610;
}
);
unicode = 00B5;
}
{
glyphname = multiply;
layers = (
{
background = {
components = (
{
name = plus;
}
);
};
layerId = "B33A6296-7F33-4AA4-95A6-15EAB02AACC1";
paths = (
{
closed = 1;
nodes = (
"175 466 LINE",
"118 408 LINE",
"435 90 LINE",
"493 148 LINE"
);
},
{
closed = 1;
nodes = (
"176 90 LINE",
"493 408 LINE",
"436 466 LINE",
"118 148 LINE"
);
}
);
width = 610;
}
);
unicode = 00D7;
}
{
color = 3;
glyphname = ordfeminine;
layers = (
{
background = {
paths = (
{
closed = 1;
nodes = (
"382 577 LINE",
"440 577 LINE",
"440 786 LINE",
"382 786 LINE"
);
}
);
};
guideLines = (
{
position = "{287, 486}";
}
);
layerId = "B33A6296-7F33-4AA4-95A6-15EAB02AACC1";
paths = (
{
closed = 1;
nodes = (
"377 401 LINE",
"463 401 LINE",
"463 453 LINE",
"377 453 LINE"
);
},
{
closed = 1;
nodes = (
"230 713 OFFCURVE",
"184 686 OFFCURVE",
"162 629 CURVE",
"213 603 LINE",
"227 642 OFFCURVE",
"253 662 OFFCURVE",
"292 662 CURVE SMOOTH",
"332 662 OFFCURVE",
"356 636 OFFCURVE",
"356 604 CURVE SMOOTH",
"356 573 LINE",
"356 441 LINE",
"378 401 LINE",
"417 401 LINE",
"417 580 LINE",
"417 605 LINE SMOOTH",
"417 672 OFFCURVE",
"368 713 OFFCURVE",
"293 713 CURVE SMOOTH"
);
},
{
closed = 1;
nodes = (
"208 557 OFFCURVE",
"397 491 OFFCURVE",
"394 605 CURVE",
"356 605 LINE",
"356 535 OFFCURVE",
"148 597 OFFCURVE",
"148 478 CURVE SMOOTH",
"148 418 OFFCURVE",
"191 394 OFFCURVE",
"262 394 CURVE SMOOTH",
"339 394 OFFCURVE",
"384 439 OFFCURVE",
"383 516 CURVE",
"356 516 LINE",
"360 498 OFFCURVE",
"341 445 OFFCURVE",
"268 445 CURVE SMOOTH",
"239 445 OFFCURVE",
"208 454 OFFCURVE",
"208 483 CURVE SMOOTH"
);
}
);
width = 610;
},
{
anchors = (
{
name = bottom;
position = "{331.228, 496}";
},
{
name = ogonek;
position = "{375.531, 502.515}";
},
{
name = top;
position = "{318.197, 873.879}";
}
);
associatedMasterId = "B33A6296-7F33-4AA4-95A6-15EAB02AACC1";
guideLines = (
{
position = "{368, 809}";
}
);
layerId = "86C3E5F0-8FA1-4041-B1FC-BC3CE7D61EF7";
name = "Regular Feb 1 18, 17:01";
paths = (
{
closed = 1;
nodes = (
"142 381 LINE",
"468 381 LINE",
"468 425 LINE",
"142 425 LINE"
);
},
{
closed = 0;
nodes = (
"385.955 525.318 LINE"
);
},
{
closed = 1;
nodes = (
"404.197 496 LINE",
"484.334 496 LINE",
"484.334 544.212 LINE",
"404.197 544.212 LINE"
);
},
{
closed = 1;
nodes = (
"269.334 808.728 OFFCURVE",
"217.864 788.531 OFFCURVE",
"191.803 725.334 CURVE",
"237.409 701.879 LINE",
"250.44 737.061 OFFCURVE",
"274.546 759.864 OFFCURVE",
"316.894 759.864 CURVE SMOOTH",
"364.455 759.864 OFFCURVE",
"384 731.197 OFFCURVE",
"384 702.531 CURVE SMOOTH",
"384 667.349 LINE",
"384 534.439 LINE",
"404.197 496 LINE",
"438.076 496 LINE",
"438.076 673.864 LINE",
"438.076 699.925 LINE SMOOTH",
"438.076 765.728 OFFCURVE",
"389.864 808.728 OFFCURVE",
"318.197 808.728 CURVE SMOOTH"
);
},
{
closed = 1;
nodes = (
"230.894 667.349 OFFCURVE",
"414.622 592.424 OFFCURVE",
"414.622 700.576 CURVE",
"384 700.576 LINE",
"384 630.864 OFFCURVE",
"176.818 713.606 OFFCURVE",
"176.818 583.303 CURVE SMOOTH",
"176.818 522.712 OFFCURVE",
"221.121 489.485 OFFCURVE",
"286.925 489.485 CURVE SMOOTH",
"359.243 489.485 OFFCURVE",
"404.197 529.879 OFFCURVE",
"404.197 607.409 CURVE",
"384 607.409 LINE",
"384 581.349 OFFCURVE",
"363.152 538.349 OFFCURVE",
"288.879 538.349 CURVE SMOOTH",
"264.773 538.349 OFFCURVE",
"230.894 542.909 OFFCURVE",
"230.894 581.349 CURVE"
);
}
);
width = 610;
}
);
unicode = 00AA;
}
{
color = 3;
glyphname = ordmasculine;
layers = (
{
background = {
components = (
{
name = ordfeminine;
transform = "{1, 0, 0, 1, -15, 0}";
}
);
};
layerId = "B33A6296-7F33-4AA4-95A6-15EAB02AACC1";
paths = (
{
closed = 1;
nodes = (
"398 394 OFFCURVE",
"445 474 OFFCURVE",
"445 556 CURVE SMOOTH",
"445 632 OFFCURVE",
"398 713 OFFCURVE",
"290 713 CURVE SMOOTH",
"182 713 OFFCURVE",
"135 632 OFFCURVE",
"135 556 CURVE SMOOTH",
"135 474 OFFCURVE",
"182 394 OFFCURVE",
"290 394 CURVE SMOOTH"
);
},
{
closed = 1;
nodes = (
"232 446 OFFCURVE",
"197 485 OFFCURVE",
"197 556 CURVE SMOOTH",
"197 622 OFFCURVE",
"233 661 OFFCURVE",
"290 661 CURVE SMOOTH",
"347 661 OFFCURVE",
"383 622 OFFCURVE",
"383 556 CURVE SMOOTH",
"383 485 OFFCURVE",
"348 446 OFFCURVE",
"290 446 CURVE SMOOTH"
);
}
);
width = 610;
}
);
unicode = 00BA;
}
{
glyphname = paragraph;
layers = (
{
layerId = "B33A6296-7F33-4AA4-95A6-15EAB02AACC1";
paths = (
{
closed = 1;
nodes = (
"264 667 LINE",
"264 -101 LINE",
"349 -101 LINE",
"349 667 LINE"
);
},
{
closed = 1;
nodes = (
"318 292 LINE",
"318 369 LINE",
"230 369 LINE SMOOTH",
"148 369 OFFCURVE",
"125 455 OFFCURVE",
"125 496 CURVE SMOOTH",
"125 537 OFFCURVE",
"148 623 OFFCURVE",
"230 623 CURVE SMOOTH",
"348 623 LINE",
"348 700 LINE",
"223 700 LINE SMOOTH",
"115 700 OFFCURVE",
"40 603 OFFCURVE",
"40 496 CURVE SMOOTH",
"40 389 OFFCURVE",
"115 292 OFFCURVE",
"223 292 CURVE SMOOTH"
);
},
{
closed = 1;
nodes = (
"517 700 LINE",
"432 700 LINE",
"432 -101 LINE",
"517 -101 LINE"
);
}
);
width = 610;
}
);
unicode = 00B6;
}
{
glyphname = periodcentered;
layers = (
{
layerId = "B33A6296-7F33-4AA4-95A6-15EAB02AACC1";
paths = (
{
closed = 1;
nodes = (
"258 250 LINE",
"341 250 LINE",
"341 333 LINE",
"258 333 LINE"
);
}
);
width = 610;
}
);
unicode = 00B7;
}
{
glyphname = plusminus;
layers = (
{
background = {
components = (
{
name = greaterequal;
}
);
};
layerId = "B33A6296-7F33-4AA4-95A6-15EAB02AACC1";
paths = (
{
closed = 1;
nodes = (
"75 135 LINE",
"76 58 LINE",
"525 58 LINE",
"525 135 LINE"
);
},
{
closed = 1;
nodes = (
"75 395 LINE",
"76 318 LINE",
"525 318 LINE",
"525 395 LINE"
);
},
{
closed = 1;
nodes = (
"343 532 LINE",
"258 531 LINE",
"258 192 LINE",
"343 192 LINE"
);
}
);
width = 610;
}
);
unicode = 00B1;
}
{
color = 4;
glyphname = registered;
layers = (
{
background = {
components = (
{
name = onesuperior;
transform = "{1, 0, 0, 1, -60, -43}";
}
);
};
layerId = "B33A6296-7F33-4AA4-95A6-15EAB02AACC1";
paths = (
{
closed = 1;
nodes = (
"384 439 OFFCURVE",
"456 511 OFFCURVE",
"456 600 CURVE SMOOTH",
"456 689 OFFCURVE",
"384 761 OFFCURVE",
"296 761 CURVE SMOOTH",
"207 761 OFFCURVE",
"135 689 OFFCURVE",
"135 600 CURVE SMOOTH",
"135 511 OFFCURVE",
"207 439 OFFCURVE",
"296 439 CURVE SMOOTH"
);
},
{
closed = 1;
nodes = (
"182 393 OFFCURVE",
"89 486 OFFCURVE",
"89 600 CURVE SMOOTH",
"89 714 OFFCURVE",
"182 807 OFFCURVE",
"296 807 CURVE SMOOTH",
"409 807 OFFCURVE",
"502 714 OFFCURVE",
"502 600 CURVE SMOOTH",
"502 486 OFFCURVE",
"409 393 OFFCURVE",
"296 393 CURVE SMOOTH"
);
},
{
closed = 1;
nodes = (
"379 676 OFFCURVE",
"351 705 OFFCURVE",
"314 705 CURVE SMOOTH",
"222 705 LINE",
"222 495 LINE",
"268 495 LINE",
"268 579 LINE",
"257 572 LINE",
"315 572 LINE",
"284 585 LINE",
"332 495 LINE",
"384 495 LINE",
"328 586 LINE",
"297 573 LINE",
"343 573 OFFCURVE",
"379 596 OFFCURVE",
"379 639 CURVE SMOOTH"
);
},
{
closed = 1;
nodes = (
"310 664 LINE SMOOTH",
"325 664 OFFCURVE",
"334 653 OFFCURVE",
"334 639 CURVE SMOOTH",
"334 624 OFFCURVE",
"326 613 OFFCURVE",
"310 613 CURVE SMOOTH",
"257 613 LINE",
"268 606 LINE",
"268 671 LINE",
"257 664 LINE"
);
}
);
width = 610;
}
);
unicode = 00AE;
}
{
glyphname = section;
layers = (
{
layerId = "B33A6296-7F33-4AA4-95A6-15EAB02AACC1";
paths = (
{
closed = 1;
nodes = (
"368 365 OFFCURVE",
"441 362 OFFCURVE",
"441 289 CURVE SMOOTH",
"441 211 OFFCURVE",
"361 213 OFFCURVE",
"265 234 CURVE",
"262 203 LINE",
"408 147 OFFCURVE",
"526 191 OFFCURVE",
"526 289 CURVE SMOOTH",
"526 424 OFFCURVE",
"406 432 OFFCURVE",
"292 462 CURVE SMOOTH",
"223 480 OFFCURVE",
"201 511 OFFCURVE",
"201 553 CURVE SMOOTH",
"201 593 OFFCURVE",
"242 631 OFFCURVE",
"309 631 CURVE SMOOTH",
"373 631 OFFCURVE",
"411 597 OFFCURVE",
"430 508 CURVE",
"508 534 LINE",
"490 649 OFFCURVE",
"407 708 OFFCURVE",
"309 708 CURVE SMOOTH",
"204 708 OFFCURVE",
"117 646 OFFCURVE",
"117 553 CURVE SMOOTH",
"117 452 OFFCURVE",
"191 405 OFFCURVE",
"292 382 CURVE SMOOTH"
);
},
{
closed = 1;
nodes = (
"243 240 OFFCURVE",
"170 243 OFFCURVE",
"170 316 CURVE SMOOTH",
"170 394 OFFCURVE",
"250 392 OFFCURVE",
"346 371 CURVE",
"349 402 LINE",
"203 458 OFFCURVE",
"85 414 OFFCURVE",
"85 316 CURVE SMOOTH",
"85 181 OFFCURVE",
"205 173 OFFCURVE",
"319 143 CURVE SMOOTH",
"388 125 OFFCURVE",
"410 94 OFFCURVE",
"410 52 CURVE SMOOTH",
"410 12 OFFCURVE",
"369 -26 OFFCURVE",
"302 -26 CURVE SMOOTH",
"238 -26 OFFCURVE",
"200 8 OFFCURVE",
"181 97 CURVE",
"103 71 LINE",
"121 -44 OFFCURVE",
"204 -103 OFFCURVE",
"302 -103 CURVE SMOOTH",
"407 -103 OFFCURVE",
"494 -41 OFFCURVE",
"494 52 CURVE SMOOTH",
"494 153 OFFCURVE",
"420 200 OFFCURVE",
"319 223 CURVE SMOOTH"
);
}
);
width = 610;
},
{
associatedMasterId = "B33A6296-7F33-4AA4-95A6-15EAB02AACC1";
layerId = "5D25CFD3-7A8B-4007-AD85-45F27A933A6D";
name = "Regular Dec 20 17, 23:04";
paths = (
{
closed = 1;
nodes = (
"484 141 OFFCURVE",
"519 186 OFFCURVE",
"519 252 CURVE SMOOTH",
"519 331 OFFCURVE",
"462 363 OFFCURVE",
"398 384 CURVE SMOOTH",
"378 390 LINE SMOOTH",
"302 413 OFFCURVE",
"224 424 OFFCURVE",
"224 482 CURVE SMOOTH",
"224 534 OFFCURVE",
"262 548 OFFCURVE",
"322 548 CURVE SMOOTH",
"389 548 OFFCURVE",
"425 519 OFFCURVE",
"462 485 CURVE",
"510 532 LINE",
"478 576 OFFCURVE",
"409 620 OFFCURVE",
"322 620 CURVE SMOOTH",
"221 620 OFFCURVE",
"143 565 OFFCURVE",
"143 482 CURVE SMOOTH",
"143 435 OFFCURVE",
"165 404 OFFCURVE",
"196 382 CURVE",
"141 359 OFFCURVE",
"106 314 OFFCURVE",
"106 248 CURVE SMOOTH",
"106 169 OFFCURVE",
"163 137 OFFCURVE",
"227 116 CURVE SMOOTH",
"247 110 LINE SMOOTH",
"323 87 OFFCURVE",
"401 76 OFFCURVE",
"401 18 CURVE SMOOTH",
"401 -34 OFFCURVE",
"363 -48 OFFCURVE",
"303 -48 CURVE SMOOTH",
"236 -48 OFFCURVE",
"200 -19 OFFCURVE",
"163 15 CURVE",
"115 -32 LINE",
"147 -76 OFFCURVE",
"216 -120 OFFCURVE",
"303 -120 CURVE SMOOTH",
"404 -120 OFFCURVE",
"482 -65 OFFCURVE",
"482 18 CURVE SMOOTH",
"482 65 OFFCURVE",
"460 96 OFFCURVE",
"429 118 CURVE"
);
},
{
closed = 1;
nodes = (
"322 328 OFFCURVE",
"337 327 OFFCURVE",
"350 324 CURVE",
"400 309 OFFCURVE",
"439 291 OFFCURVE",
"439 252 CURVE SMOOTH",
"439 189 OFFCURVE",
"388 172 OFFCURVE",
"318 172 CURVE SMOOTH",
"303 172 OFFCURVE",
"288 173 OFFCURVE",
"275 176 CURVE",
"225 191 OFFCURVE",
"186 209 OFFCURVE",
"186 248 CURVE SMOOTH",
"186 311 OFFCURVE",
"237 328 OFFCURVE",
"307 328 CURVE SMOOTH"
);
}
);
width = 610;
},
{
associatedMasterId = "B33A6296-7F33-4AA4-95A6-15EAB02AACC1";
layerId = "3CFE1771-F5CA-4C54-9E0E-5E8784901380";
name = "Regular Dec 20 17, 23:13";
paths = (
{
closed = 1;
nodes = (
"54 261 LINE",
"54 105 OFFCURVE",
"182 106 OFFCURVE",
"301 87 CURVE SMOOTH",
"375 75 OFFCURVE",
"443 53 OFFCURVE",
"443 -25 CURVE SMOOTH",
"443 -110 OFFCURVE",
"376 -139 OFFCURVE",
"301 -139 CURVE SMOOTH",
"227 -139 OFFCURVE",
"175 -110 OFFCURVE",
"140 -4 CURVE",
"65 -36 LINE",
"103 -169 OFFCURVE",
"200 -216 OFFCURVE",
"301 -216 CURVE SMOOTH",
"425 -216 OFFCURVE",
"528 -152 OFFCURVE",
"528 -25 CURVE SMOOTH",
"528 119 OFFCURVE",
"406 156 OFFCURVE",
"301 171 CURVE SMOOTH",
"212 184 OFFCURVE",
"139 170 OFFCURVE",
"139 261 CURVE"
);
},
{
closed = 1;
nodes = (
"139 352 OFFCURVE",
"212 341 OFFCURVE",
"310 323 CURVE",
"310 355 LINE",
"158 418 OFFCURVE",
"54 364 OFFCURVE",
"54 261 CURVE",
"139 261 LINE"
);
},
{
closed = 1;
nodes = (
"528 238 LINE",
"528 394 OFFCURVE",
"400 393 OFFCURVE",
"281 412 CURVE SMOOTH",
"207 424 OFFCURVE",
"139 446 OFFCURVE",
"139 524 CURVE SMOOTH",
"139 609 OFFCURVE",
"206 638 OFFCURVE",
"281 638 CURVE SMOOTH",
"355 638 OFFCURVE",
"407 609 OFFCURVE",
"442 503 CURVE",
"517 535 LINE",
"479 668 OFFCURVE",
"382 715 OFFCURVE",
"281 715 CURVE SMOOTH",
"157 715 OFFCURVE",
"54 651 OFFCURVE",
"54 524 CURVE SMOOTH",
"54 380 OFFCURVE",
"176 343 OFFCURVE",
"281 328 CURVE SMOOTH",
"370 315 OFFCURVE",
"443 329 OFFCURVE",
"443 238 CURVE"
);
},
{
closed = 1;
nodes = (
"443 147 OFFCURVE",
"370 158 OFFCURVE",
"272 176 CURVE",
"272 144 LINE",
"424 81 OFFCURVE",
"528 135 OFFCURVE",
"528 238 CURVE",
"443 238 LINE"
);
}
);
width = 610;
},
{
associatedMasterId = "B33A6296-7F33-4AA4-95A6-15EAB02AACC1";
background = {
paths = (
{
closed = 1;
nodes = (
"325 416 OFFCURVE",
"372 452 OFFCURVE",
"372 497 CURVE SMOOTH",
"372 541 OFFCURVE",
"325 578 OFFCURVE",
"266 578 CURVE SMOOTH",
"207 578 OFFCURVE",
"160 541 OFFCURVE",
"160 497 CURVE SMOOTH",
"160 452 OFFCURVE",
"207 416 OFFCURVE",
"266 416 CURVE SMOOTH"
);
}
);
};
layerId = "1292EEE4-E28C-43DD-809D-57D0D52D437F";
name = "Regular Dec 20 17, 23:28";
paths = (
{
closed = 1;
nodes = (
"343 317 OFFCURVE",
"423 321 OFFCURVE",
"423 241 CURVE SMOOTH",
"423 150 OFFCURVE",
"350 165 OFFCURVE",
"252 178 CURVE",
"252 147 LINE",
"404 84 OFFCURVE",
"508 138 OFFCURVE",
"508 241 CURVE SMOOTH",
"508 400 OFFCURVE",
"374 397 OFFCURVE",
"261 415 CURVE SMOOTH",
"187 427 OFFCURVE",
"159 457 OFFCURVE",
"159 500 CURVE SMOOTH",
"159 540 OFFCURVE",
"203 578 OFFCURVE",
"266 578 CURVE SMOOTH",
"334 578 OFFCURVE",
"365 552 OFFCURVE",
"392 466 CURVE",
"467 498 LINE",
"439 611 OFFCURVE",
"361 655 OFFCURVE",
"266 655 CURVE SMOOTH",
"157 655 OFFCURVE",
"74 585 OFFCURVE",
"74 500 CURVE SMOOTH",
"74 390 OFFCURVE",
"162 348 OFFCURVE",
"261 331 CURVE SMOOTH"
);
},
{
closed = 1;
nodes = (
"239 182 OFFCURVE",
"159 178 OFFCURVE",
"159 258 CURVE SMOOTH",
"159 349 OFFCURVE",
"232 334 OFFCURVE",
"330 321 CURVE",
"330 352 LINE",
"178 415 OFFCURVE",
"74 361 OFFCURVE",
"74 258 CURVE SMOOTH",
"74 99 OFFCURVE",
"208 102 OFFCURVE",
"321 84 CURVE SMOOTH",
"395 72 OFFCURVE",
"423 42 OFFCURVE",
"423 -1 CURVE SMOOTH",
"423 -41 OFFCURVE",
"379 -79 OFFCURVE",
"316 -79 CURVE SMOOTH",
"248 -79 OFFCURVE",
"217 -53 OFFCURVE",
"190 33 CURVE",
"115 1 LINE",
"143 -112 OFFCURVE",
"221 -156 OFFCURVE",
"316 -156 CURVE SMOOTH",
"425 -156 OFFCURVE",
"508 -86 OFFCURVE",
"508 -1 CURVE SMOOTH",
"508 109 OFFCURVE",
"420 151 OFFCURVE",
"321 168 CURVE SMOOTH"
);
}
);
width = 610;
}
);
unicode = 00A7;
}
{
glyphname = sterling;
layers = (
{
layerId = "B33A6296-7F33-4AA4-95A6-15EAB02AACC1";
paths = (
{
closed = 1;
nodes = (
"95 30 LINE",
"185 70 OFFCURVE",
"311 135 OFFCURVE",
"311 273 CURVE SMOOTH",
"311 392 OFFCURVE",
"232 433 OFFCURVE",
"232 522 CURVE SMOOTH",
"232 592 OFFCURVE",
"266 633 OFFCURVE",
"337 633 CURVE SMOOTH",
"399 633 OFFCURVE",
"411 614 OFFCURVE",
"443 575 CURVE",
"505 629 LINE",
"469 673 OFFCURVE",
"430 710 OFFCURVE",
"339 710 CURVE SMOOTH",
"223 710 OFFCURVE",
"147 639 OFFCURVE",
"147 522 CURVE SMOOTH",
"147 403 OFFCURVE",
"226 372 OFFCURVE",
"226 273 CURVE SMOOTH",
"226 180 OFFCURVE",
"156 123 OFFCURVE",
"95 77 CURVE"
);
},
{
closed = 1;
nodes = (
"95 0 LINE",
"528 0 LINE",
"528 77 LINE",
"95 77 LINE"
);
},
{
closed = 1;
nodes = (
"117 354 LINE",
"117 277 LINE",
"437 277 LINE",
"437 354 LINE"
);
}
);
width = 610;
},
{
associatedMasterId = "B33A6296-7F33-4AA4-95A6-15EAB02AACC1";
layerId = "1136AEC0-F13D-4058-A092-D1C8A55A5B77";
name = "Regular Dec 17 17, 19:20";
paths = (
{
closed = 1;
nodes = (
"95 30 LINE",
"185 70 OFFCURVE",
"310 135 OFFCURVE",
"310 273 CURVE SMOOTH",
"310 391 OFFCURVE",
"230 441 OFFCURVE",
"230 526 CURVE SMOOTH",
"230 596 OFFCURVE",
"266 639 OFFCURVE",
"337 639 CURVE SMOOTH",
"399 639 OFFCURVE",
"415 619 OFFCURVE",
"450 580 CURVE",
"505 633 LINE",
"469 677 OFFCURVE",
"430 714 OFFCURVE",
"339 714 CURVE SMOOTH",
"225 714 OFFCURVE",
"147 641 OFFCURVE",
"147 526 CURVE SMOOTH",
"147 407 OFFCURVE",
"227 377 OFFCURVE",
"227 273 CURVE SMOOTH",
"227 180 OFFCURVE",
"156 121 OFFCURVE",
"95 75 CURVE"
);
},
{
closed = 1;
nodes = (
"95 0 LINE",
"528 0 LINE",
"528 75 LINE",
"95 75 LINE"
);
},
{
closed = 1;
nodes = (
"140 324 LINE",
"140 261 LINE",
"460 261 LINE",
"460 324 LINE"
);
}
);
width = 610;
}
);
unicode = 00A3;
}
{
glyphname = yen;
layers = (
{
components = (
{
name = Y;
}
);
layerId = "B33A6296-7F33-4AA4-95A6-15EAB02AACC1";
paths = (
{
closed = 1;
nodes = (
"145 301 LINE",
"145 226 LINE",
"465 226 LINE",
"465 301 LINE"
);
},
{
closed = 1;
nodes = (
"145 181 LINE",
"145 106 LINE",
"465 106 LINE",
"465 181 LINE"
);
}
);
width = 610;
}
);
unicode = 00A5;
}
{
glyphname = asterisk;
layers = (
{
layerId = "B33A6296-7F33-4AA4-95A6-15EAB02AACC1";
paths = (
{
closed = 1;
nodes = (
"258 699 LINE",
"277 557 LINE",
"258 415 LINE",
"341 415 LINE",
"322 557 LINE",
"341 699 LINE"
);
},
{
closed = 1;
nodes = (
"402 664 LINE",
"293 575 LINE",
"156 522 LINE",
"197 450 LINE",
"306 539 LINE",
"443 592 LINE"
);
},
{
closed = 1;
nodes = (
"293 539 LINE",
"402 450 LINE",
"443 522 LINE",
"306 575 LINE",
"197 664 LINE",
"156 592 LINE"
);
}
);
width = 610;
}
);
unicode = 002A;
}
{
glyphname = breve;
layers = (
{
associatedMasterId = "B33A6296-7F33-4AA4-95A6-15EAB02AACC1";
background = {
components = (
{
name = a;
transform = "{-1, 0, 0, -1, 595, 1010}";
},
{
name = a;
}
);
};
guideLines = (
{
position = "{302, 775}";
}
);
layerId = "B8D379D0-22B8-43C2-9BD3-685E2A864402";
name = "Oct 8 17, 23:04";
paths = (
{
closed = 1;
nodes = (
"139 589 OFFCURVE",
"216 531 OFFCURVE",
"305 531 CURVE SMOOTH",
"392 531 OFFCURVE",
"471 589 OFFCURVE",
"471 704 CURVE",
"387 704 LINE",
"387 659 OFFCURVE",
"369 606 OFFCURVE",
"305 606 CURVE SMOOTH",
"239 606 OFFCURVE",
"223 659 OFFCURVE",
"223 704 CURVE",
"139 704 LINE"
);
}
);
width = 610;
},
{
associatedMasterId = "B33A6296-7F33-4AA4-95A6-15EAB02AACC1";
background = {
components = (
{
name = a;
}
);
};
guideLines = (
{
position = "{302, 775}";
}
);
layerId = "69D98B12-D879-4F61-895A-11D8984C700F";
name = "Oct 8 17, 23:09";
paths = (
{
closed = 1;
nodes = (
"407 644 OFFCURVE",
"373 605 OFFCURVE",
"305 605 CURVE SMOOTH",
"237 605 OFFCURVE",
"203 644 OFFCURVE",
"187 695 CURVE",
"116 658 LINE",
"143 574 OFFCURVE",
"217 530 OFFCURVE",
"305 530 CURVE SMOOTH",
"393 530 OFFCURVE",
"467 574 OFFCURVE",
"494 658 CURVE",
"423 695 LINE"
);
}
);
width = 610;
},
{
associatedMasterId = "B33A6296-7F33-4AA4-95A6-15EAB02AACC1";
background = {
components = (
{
name = a;
}
);
};
guideLines = (
{
position = "{302, 775}";
}
);
layerId = "F3932E4E-204A-4224-8765-8F0E2A525599";
name = "Regular Oct 8 17, 23:09";
paths = (
{
closed = 1;
nodes = (
"394 644 OFFCURVE",
"373 605 OFFCURVE",
"305 605 CURVE SMOOTH",
"237 605 OFFCURVE",
"216 644 OFFCURVE",
"197 695 CURVE",
"126 658 LINE",
"153 574 OFFCURVE",
"217 530 OFFCURVE",
"305 530 CURVE SMOOTH",
"393 530 OFFCURVE",
"457 574 OFFCURVE",
"484 658 CURVE",
"413 695 LINE"
);
}
);
width = 610;
},
{
background = {
components = (
{
name = a;
}
);
};
guideLines = (
{
position = "{302, 775}";
}
);
layerId = "B33A6296-7F33-4AA4-95A6-15EAB02AACC1";
paths = (
{
closed = 1;
nodes = (
"394 644 OFFCURVE",
"373 605 OFFCURVE",
"305 605 CURVE SMOOTH",
"237 605 OFFCURVE",
"216 644 OFFCURVE",
"197 695 CURVE",
"126 658 LINE",
"153 574 OFFCURVE",
"217 530 OFFCURVE",
"305 530 CURVE SMOOTH",
"393 530 OFFCURVE",
"457 574 OFFCURVE",
"484 658 CURVE",
"413 695 LINE"
);
}
);
width = 610;
}
);
unicode = 02D8;
}
{
glyphname = circumflex;
layers = (
{
background = {
components = (
{
name = a;
}
);
};
layerId = "B33A6296-7F33-4AA4-95A6-15EAB02AACC1";
paths = (
{
closed = 1;
nodes = (
"328 700 LINE",
"279 700 LINE",
"173 530 LINE",
"268 530 LINE",
"318 666 LINE",
"288 666 LINE",
"339 530 LINE",
"434 530 LINE"
);
}
);
width = 610;
},
{
associatedMasterId = "B33A6296-7F33-4AA4-95A6-15EAB02AACC1";
layerId = "12A75A3C-ECA2-448B-AE0C-1BA64A8C8DED";
name = "Oct 8 17, 23:11";
paths = (
{
closed = 1;
nodes = (
"332 702 LINE",
"280 702 LINE",
"175 530 LINE",
"268 530 LINE",
"332 645 LINE",
"280 645 LINE",
"342 530 LINE",
"435 530 LINE"
);
}
);
width = 610;
}
);
unicode = 02C6;
}
{
color = 0;
glyphname = comma;
layers = (
{
associatedMasterId = "B33A6296-7F33-4AA4-95A6-15EAB02AACC1";
layerId = "D9CCED79-F6EA-4A07-8D42-ECE1388AB45F";
name = "Oct 10 17, 23:44";
paths = (
{
closed = 1;
nodes = (
"276 -184 LINE",
"342 -131 OFFCURVE",
"362 -41 OFFCURVE",
"335 73 CURVE",
"249 73 LINE",
"278 -17 OFFCURVE",
"257 -98 OFFCURVE",
"224 -126 CURVE"
);
},
{
closed = 1;
nodes = (
"224 -10 LINE",
"307 -10 LINE",
"307 73 LINE",
"224 73 LINE"
);
}
);
width = 610;
},
{
associatedMasterId = "B33A6296-7F33-4AA4-95A6-15EAB02AACC1";
components = (
{
name = period;
transform = "{1, 0, 0, 1, 10, 0}";
}
);
layerId = "2B5228A9-E605-4EB2-A8BC-57C157432936";
name = "Regular Jan 4 18, 22:39";
paths = (
{
closed = 1;
nodes = (
"298 -153 LINE",
"352 -114 OFFCURVE",
"372 -76 OFFCURVE",
"373 0 CURVE SMOOTH",
"374 73 LINE",
"320 73 LINE",
"320 0 LINE SMOOTH",
"320 -48 OFFCURVE",
"299 -82 OFFCURVE",
"258 -119 CURVE"
);
}
);
width = 610;
},
{
layerId = "B33A6296-7F33-4AA4-95A6-15EAB02AACC1";
paths = (
{
closed = 1;
nodes = (
"266 -184 LINE",
"354 -134 OFFCURVE",
"369 -26 OFFCURVE",
"360 80 CURVE",
"270 80 LINE",
"301 -4 OFFCURVE",
"293 -76 OFFCURVE",
"228 -132 CURVE"
);
},
{
closed = 1;
nodes = (
"230 -8 LINE",
"313 -8 LINE",
"313 80 LINE",
"230 80 LINE"
);
}
);
width = 610;
}
);
unicode = 002C;
}
{
glyphname = hyphen;
layers = (
{
layerId = "B33A6296-7F33-4AA4-95A6-15EAB02AACC1";
paths = (
{
closed = 1;
nodes = (
"89 239 LINE",
"521 239 LINE",
"521 316 LINE",
"89 316 LINE"
);
}
);
width = 610;
}
);
unicode = 002D;
}
{
glyphname = ogonek;
layers = (
{
background = {
components = (
{
name = e;
}
);
};
layerId = "B33A6296-7F33-4AA4-95A6-15EAB02AACC1";
paths = (
{
closed = 1;
nodes = (
"322 -48 LINE SMOOTH",
"262 -131 OFFCURVE",
"353 -262 OFFCURVE",
"514 -188 CURVE",
"468 -127 LINE",
"378 -152 OFFCURVE",
"364 -103 OFFCURVE",
"417 -29 CURVE SMOOTH",
"472 48 LINE",
"397 55 LINE"
);
}
);
width = 610;
},
{
associatedMasterId = "B33A6296-7F33-4AA4-95A6-15EAB02AACC1";
layerId = "36A026A1-8358-4538-BCB5-FC7E0A5BBD07";
name = "Oct 8 17, 23:19";
paths = (
{
closed = 1;
nodes = (
"321 -48 LINE SMOOTH",
"268 -136 OFFCURVE",
"352 -262 OFFCURVE",
"513 -188 CURVE",
"467 -127 LINE",
"377 -152 OFFCURVE",
"363 -104 OFFCURVE",
"416 -29 CURVE SMOOTH",
"458 31 LINE",
"394 73 LINE"
);
}
);
width = 610;
}
);
unicode = 02DB;
}
{
glyphname = period;
layers = (
{
layerId = "B33A6296-7F33-4AA4-95A6-15EAB02AACC1";
paths = (
{
closed = 1;
nodes = (
"252 -10 LINE",
"358 -10 LINE",
"358 90 LINE",
"252 90 LINE"
);
}
);
width = 610;
}
);
unicode = 002E;
}
{
glyphname = plus;
layers = (
{
layerId = "B33A6296-7F33-4AA4-95A6-15EAB02AACC1";
paths = (
{
closed = 1;
nodes = (
"81 316 LINE",
"81 239 LINE",
"530 239 LINE",
"530 316 LINE"
);
},
{
closed = 1;
nodes = (
"348 502 LINE",
"263 502 LINE",
"263 52 LINE",
"348 52 LINE"
);
}
);
width = 610;
}
);
unicode = 002B;
}
{
glyphname = ring;
layers = (
{
background = {
components = (
{
name = a;
}
);
};
guideLines = (
{
position = "{302, 775}";
}
);
layerId = "B33A6296-7F33-4AA4-95A6-15EAB02AACC1";
paths = (
{
closed = 1;
nodes = (
"276 579 OFFCURVE",
"257 595 OFFCURVE",
"257 614 CURVE SMOOTH",
"257 636 OFFCURVE",
"276 652 OFFCURVE",
"298 652 CURVE SMOOTH",
"317 652 OFFCURVE",
"336 636 OFFCURVE",
"336 614 CURVE SMOOTH",
"336 595 OFFCURVE",
"317 579 OFFCURVE",
"298 579 CURVE SMOOTH"
);
},
{
closed = 1;
nodes = (
"238 700 OFFCURVE",
"200 662 OFFCURVE",
"200 615 CURVE SMOOTH",
"200 568 OFFCURVE",
"238 530 OFFCURVE",
"296 530 CURVE SMOOTH",
"354 530 OFFCURVE",
"392 568 OFFCURVE",
"392 615 CURVE SMOOTH",
"392 662 OFFCURVE",
"354 700 OFFCURVE",
"296 700 CURVE SMOOTH"
);
}
);
width = 610;
},
{
associatedMasterId = "B33A6296-7F33-4AA4-95A6-15EAB02AACC1";
background = {
components = (
{
name = a;
}
);
};
guideLines = (
{
position = "{302, 775}";
}
);
layerId = "D265E0B2-C332-4BB3-949F-E1B4DE34CA3B";
name = "Oct 8 17, 23:23";
paths = (
{
closed = 1;
nodes = (
"353 775 OFFCURVE",
"392 814 OFFCURVE",
"392 862 CURVE",
"392 909 OFFCURVE",
"353 948 OFFCURVE",
"306 948 CURVE SMOOTH",
"258 948 OFFCURVE",
"219 909 OFFCURVE",
"219 862 CURVE SMOOTH",
"219 814 OFFCURVE",
"258 775 OFFCURVE",
"306 775 CURVE SMOOTH"
);
},
{
closed = 1;
nodes = (
"299 850 OFFCURVE",
"293 855 OFFCURVE",
"293 862 CURVE SMOOTH",
"293 869 OFFCURVE",
"299 874 OFFCURVE",
"306 874 CURVE SMOOTH",
"312 874 OFFCURVE",
"318 869 OFFCURVE",
"318 862 CURVE SMOOTH",
"318 855 OFFCURVE",
"312 850 OFFCURVE",
"306 850 CURVE SMOOTH"
);
}
);
width = 610;
}
);
unicode = 02DA;
}
{
glyphname = slash;
layers = (
{
layerId = "B33A6296-7F33-4AA4-95A6-15EAB02AACC1";
paths = (
{
closed = 1;
nodes = (
"424 787 LINE",
"338 787 LINE",
"178 -70 LINE",
"263 -70 LINE"
);
}
);
width = 610;
}
);
unicode = 002F;
}
{
glyphname = tilde;
layers = (
{
background = {
paths = (
{
closed = 0;
nodes = (
"228 621 LINE"
);
},
{
closed = 1;
nodes = (
"209 562 OFFCURVE",
"214 575 OFFCURVE",
"244 575 CURVE",
"277 575 OFFCURVE",
"300 530 OFFCURVE",
"367 530 CURVE",
"425 530 OFFCURVE",
"456 553 OFFCURVE",
"484 598 CURVE SMOOTH",
"421 645 LINE SMOOTH",
"402 620 OFFCURVE",
"397 605 OFFCURVE",
"367 605 CURVE",
"334 605 OFFCURVE",
"311 650 OFFCURVE",
"244 650 CURVE",
"186 650 OFFCURVE",
"155 627 OFFCURVE",
"127 582 CURVE SMOOTH",
"192 534 LINE SMOOTH"
);
},
{
closed = 0;
nodes = (
"228 621 LINE"
);
},
{
closed = 1;
nodes = (
"209 562 OFFCURVE",
"214 575 OFFCURVE",
"244 575 CURVE SMOOTH",
"277 575 OFFCURVE",
"300 530 OFFCURVE",
"367 530 CURVE SMOOTH",
"425 530 OFFCURVE",
"456 553 OFFCURVE",
"484 598 CURVE",
"421 645 LINE",
"402 620 OFFCURVE",
"397 605 OFFCURVE",
"367 605 CURVE SMOOTH",
"334 605 OFFCURVE",
"311 650 OFFCURVE",
"244 650 CURVE SMOOTH",
"186 650 OFFCURVE",
"155 627 OFFCURVE",
"127 582 CURVE",
"192 534 LINE"
);
}
);
};
layerId = "B33A6296-7F33-4AA4-95A6-15EAB02AACC1";
paths = (
{
closed = 1;
nodes = (
"401 617 OFFCURVE",
"394 605 OFFCURVE",
"371 605 CURVE SMOOTH",
"329 605 OFFCURVE",
"316 650 OFFCURVE",
"241 650 CURVE SMOOTH",
"187 650 OFFCURVE",
"155 627 OFFCURVE",
"127 582 CURVE",
"190 535 LINE",
"209 560 OFFCURVE",
"216 575 OFFCURVE",
"240 575 CURVE SMOOTH",
"282 575 OFFCURVE",
"295 530 OFFCURVE",
"370 530 CURVE SMOOTH",
"424 530 OFFCURVE",
"456 553 OFFCURVE",
"484 598 CURVE",
"421 645 LINE"
);
}
);
width = 610;
},
{
associatedMasterId = "B33A6296-7F33-4AA4-95A6-15EAB02AACC1";
layerId = "9DBB86E3-0145-4AF5-8A9C-625F707ABC42";
name = "Oct 8 17, 23:27";
paths = (
{
closed = 1;
nodes = (
"420 654 LINE SMOOTH",
"420 618 OFFCURVE",
"411 605 OFFCURVE",
"384 605 CURVE SMOOTH",
"362 605 OFFCURVE",
"353 619 OFFCURVE",
"337 640 CURVE",
"309 672 OFFCURVE",
"291 703 OFFCURVE",
"221 703 CURVE SMOOTH",
"177 703 OFFCURVE",
"107 683 OFFCURVE",
"107 589 CURVE SMOOTH",
"107 530 LINE",
"190 530 LINE",
"190 579 LINE SMOOTH",
"190 615 OFFCURVE",
"199 628 OFFCURVE",
"226 628 CURVE SMOOTH",
"248 628 OFFCURVE",
"257 614 OFFCURVE",
"273 593 CURVE",
"301 561 OFFCURVE",
"319 530 OFFCURVE",
"389 530 CURVE SMOOTH",
"433 530 OFFCURVE",
"503 550 OFFCURVE",
"503 644 CURVE SMOOTH",
"503 703 LINE",
"420 703 LINE"
);
}
);
width = 610;
},
{
associatedMasterId = "B33A6296-7F33-4AA4-95A6-15EAB02AACC1";
layerId = "8288D20D-228E-4056-A433-F80576F0E5E0";
name = "Oct 8 17, 23:30";
paths = (
{
closed = 1;
nodes = (
"408 659 LINE",
"417 624 OFFCURVE",
"411 610 OFFCURVE",
"385 603 CURVE SMOOTH",
"363 597 OFFCURVE",
"351 610 OFFCURVE",
"331 627 CURVE",
"296 652 OFFCURVE",
"272 678 OFFCURVE",
"204 662 CURVE SMOOTH",
"161 652 OFFCURVE",
"98 616 OFFCURVE",
"120 525 CURVE",
"202 534 LINE",
"194 569 OFFCURVE",
"199 584 OFFCURVE",
"226 590 CURVE SMOOTH",
"247 595 OFFCURVE",
"259 583 OFFCURVE",
"279 566 CURVE",
"314 542 OFFCURVE",
"339 516 OFFCURVE",
"407 532 CURVE SMOOTH",
"450 542 OFFCURVE",
"513 577 OFFCURVE",
"492 669 CURVE"
);
}
);
width = 610;
},
{
associatedMasterId = "B33A6296-7F33-4AA4-95A6-15EAB02AACC1";
background = {
components = (
{
name = a;
}
);
};
layerId = "2A95CB9B-97F9-4EB9-9467-B184C1209F9B";
name = "Oct 8 17, 23:45";
paths = (
{
closed = 1;
nodes = (
"400 634 OFFCURVE",
"389 606 OFFCURVE",
"357 606 CURVE SMOOTH",
"325 606 OFFCURVE",
"311 652 OFFCURVE",
"244 652 CURVE SMOOTH",
"186 652 OFFCURVE",
"145 609 OFFCURVE",
"127 580 CURVE",
"190 532 LINE",
"207 567 OFFCURVE",
"225 577 OFFCURVE",
"244 577 CURVE SMOOTH",
"278 577 OFFCURVE",
"287 531 OFFCURVE",
"357 531 CURVE SMOOTH",
"419 531 OFFCURVE",
"462 583 OFFCURVE",
"473 604 CURVE",
"411 652 LINE"
);
}
);
width = 610;
},
{
associatedMasterId = "B33A6296-7F33-4AA4-95A6-15EAB02AACC1";
layerId = "4DDEBACC-4112-4910-A6CA-C88C3E9E675B";
name = "Oct 8 17, 23:45";
paths = (
{
closed = 1;
nodes = (
"410 634 OFFCURVE",
"399 606 OFFCURVE",
"367 606 CURVE SMOOTH",
"335 606 OFFCURVE",
"321 652 OFFCURVE",
"254 652 CURVE SMOOTH",
"196 652 OFFCURVE",
"157 625 OFFCURVE",
"127 580 CURVE",
"190 532 LINE",
"203 560 OFFCURVE",
"225 577 OFFCURVE",
"254 577 CURVE SMOOTH",
"288 577 OFFCURVE",
"297 531 OFFCURVE",
"367 531 CURVE SMOOTH",
"429 531 OFFCURVE",
"472 583 OFFCURVE",
"483 604 CURVE",
"421 652 LINE"
);
}
);
width = 610;
},
{
associatedMasterId = "B33A6296-7F33-4AA4-95A6-15EAB02AACC1";
background = {
paths = (
{
closed = 0;
nodes = (
"228 621 LINE"
);
},
{
closed = 1;
nodes = (
"209 562 OFFCURVE",
"214 575 OFFCURVE",
"244 575 CURVE",
"277 575 OFFCURVE",
"300 530 OFFCURVE",
"367 530 CURVE",
"425 530 OFFCURVE",
"456 553 OFFCURVE",
"484 598 CURVE SMOOTH",
"421 645 LINE SMOOTH",
"402 620 OFFCURVE",
"397 605 OFFCURVE",
"367 605 CURVE",
"334 605 OFFCURVE",
"311 650 OFFCURVE",
"244 650 CURVE",
"186 650 OFFCURVE",
"155 627 OFFCURVE",
"127 582 CURVE SMOOTH",
"192 534 LINE SMOOTH"
);
},
{
closed = 0;
nodes = (
"228 621 LINE"
);
},
{
closed = 1;
nodes = (
"209 562 OFFCURVE",
"214 575 OFFCURVE",
"244 575 CURVE SMOOTH",
"277 575 OFFCURVE",
"300 530 OFFCURVE",
"367 530 CURVE SMOOTH",
"425 530 OFFCURVE",
"456 553 OFFCURVE",
"484 598 CURVE",
"421 645 LINE",
"402 620 OFFCURVE",
"397 605 OFFCURVE",
"367 605 CURVE SMOOTH",
"334 605 OFFCURVE",
"311 650 OFFCURVE",
"244 650 CURVE SMOOTH",
"186 650 OFFCURVE",
"155 627 OFFCURVE",
"127 582 CURVE",
"192 534 LINE"
);
}
);
};
layerId = "5A8C788E-BE28-4B12-8CC1-17BBAC836692";
name = "Dec 5 17, 22:52";
paths = (
{
closed = 0;
nodes = (
"383 559 LINE"
);
},
{
closed = 1;
nodes = (
"401 617 OFFCURVE",
"395 605 OFFCURVE",
"367 605 CURVE SMOOTH",
"334 605 OFFCURVE",
"311 650 OFFCURVE",
"244 650 CURVE SMOOTH",
"186 650 OFFCURVE",
"155 627 OFFCURVE",
"127 582 CURVE",
"190 535 LINE",
"209 560 OFFCURVE",
"214 575 OFFCURVE",
"244 575 CURVE SMOOTH",
"277 575 OFFCURVE",
"300 530 OFFCURVE",
"367 530 CURVE SMOOTH",
"425 530 OFFCURVE",
"456 553 OFFCURVE",
"484 598 CURVE",
"421 645 LINE"
);
}
);
width = 610;
}
);
unicode = 02DC;
}
{
glyphname = Omega;
layers = (
{
layerId = "B33A6296-7F33-4AA4-95A6-15EAB02AACC1";
paths = (
{
closed = 1;
nodes = (
"571 588 OFFCURVE",
"461 710 OFFCURVE",
"305 710 CURVE SMOOTH",
"149 710 OFFCURVE",
"39 588 OFFCURVE",
"39 410 CURVE SMOOTH",
"39 250 OFFCURVE",
"128 189 OFFCURVE",
"185 147 CURVE",
"166 200 LINE",
"166 32 LINE",
"214 77 LINE",
"77 77 LINE",
"77 0 LINE",
"251 0 LINE",
"251 195 LINE",
"199 220 OFFCURVE",
"124 290 OFFCURVE",
"124 411 CURVE SMOOTH",
"124 506 OFFCURVE",
"171 633 OFFCURVE",
"305 633 CURVE SMOOTH",
"439 633 OFFCURVE",
"486 506 OFFCURVE",
"486 411 CURVE SMOOTH",
"486 290 OFFCURVE",
"411 220 OFFCURVE",
"359 195 CURVE",
"359 0 LINE",
"533 0 LINE",
"533 77 LINE",
"396 77 LINE",
"444 32 LINE",
"444 200 LINE",
"425 147 LINE",
"482 189 OFFCURVE",
"571 250 OFFCURVE",
"571 410 CURVE SMOOTH"
);
}
);
width = 610;
}
);
unicode = 03A9;
}
{
glyphname = colon;
layers = (
{
layerId = "B33A6296-7F33-4AA4-95A6-15EAB02AACC1";
paths = (
{
closed = 1;
nodes = (
"259 70 LINE",
"342 70 LINE",
"342 153 LINE",
"259 153 LINE"
);
},
{
closed = 1;
nodes = (
"259 363 LINE",
"342 363 LINE",
"342 446 LINE",
"259 446 LINE"
);
}
);
width = 610;
}
);
unicode = 003A;
}
{
glyphname = equal;
layers = (
{
background = {
components = (
{
name = plus;
}
);
};
layerId = "B33A6296-7F33-4AA4-95A6-15EAB02AACC1";
paths = (
{
closed = 1;
nodes = (
"81 436 LINE",
"81 359 LINE",
"529 359 LINE",
"529 436 LINE"
);
},
{
closed = 1;
nodes = (
"81 200 LINE",
"81 123 LINE",
"529 123 LINE",
"529 200 LINE"
);
}
);
width = 610;
}
);
unicode = 003D;
}
{
glyphname = greater;
layers = (
{
background = {
components = (
{
name = plus;
}
);
};
layerId = "B33A6296-7F33-4AA4-95A6-15EAB02AACC1";
paths = (
{
closed = 1;
nodes = (
"501 241 LINE",
"501 315 LINE",
"139 498 LINE",
"99 432 LINE",
"455 258 LINE",
"455 298 LINE",
"99 124 LINE",
"139 58 LINE"
);
}
);
width = 610;
},
{
associatedMasterId = "B33A6296-7F33-4AA4-95A6-15EAB02AACC1";
layerId = "F30E92E2-2A57-4491-9BBE-324E64A9164B";
name = "Regular Dec 17 17, 19:44";
paths = (
{
closed = 1;
nodes = (
"99 515 LINE",
"455 336 LINE",
"455 376 LINE",
"99 198 LINE",
"139 136 LINE",
"500 315 LINE",
"500 397 LINE",
"139 576 LINE"
);
}
);
width = 610;
}
);
unicode = 003E;
}
{
glyphname = pi;
layers = (
{
layerId = "B33A6296-7F33-4AA4-95A6-15EAB02AACC1";
paths = (
{
closed = 1;
nodes = (
"57 395 LINE",
"554 395 LINE",
"554 470 LINE",
"57 470 LINE"
);
},
{
closed = 1;
nodes = (
"144 0 LINE",
"227 0 LINE",
"227 430 LINE",
"144 430 LINE"
);
},
{
closed = 1;
nodes = (
"384 162 LINE SMOOTH",
"384 76 OFFCURVE",
"423 34 OFFCURVE",
"469 0 CURVE",
"517 61 LINE",
"492 85 OFFCURVE",
"467 95 OFFCURVE",
"467 167 CURVE SMOOTH",
"467 430 LINE",
"384 430 LINE"
);
}
);
width = 610;
}
);
unicode = 03C0;
}
{
glyphname = question;
layers = (
{
layerId = "B33A6296-7F33-4AA4-95A6-15EAB02AACC1";
paths = (
{
closed = 1;
nodes = (
"340 148 LINE",
"322 241 OFFCURVE",
"356 294 OFFCURVE",
"415 344 CURVE SMOOTH",
"462 384 OFFCURVE",
"526 430 OFFCURVE",
"526 526 CURVE SMOOTH",
"526 651 OFFCURVE",
"419 710 OFFCURVE",
"305 710 CURVE SMOOTH",
"182 710 OFFCURVE",
"107 642 OFFCURVE",
"75 530 CURVE",
"149 498 LINE",
"186 608 OFFCURVE",
"233 635 OFFCURVE",
"303 635 CURVE SMOOTH",
"365 635 OFFCURVE",
"443 611 OFFCURVE",
"443 526 CURVE SMOOTH",
"443 457 OFFCURVE",
"392 427 OFFCURVE",
"349 390 CURVE SMOOTH",
"278 328 OFFCURVE",
"239 249 OFFCURVE",
"258 148 CURVE"
);
},
{
closed = 1;
nodes = (
"258 -10 LINE",
"341 -10 LINE",
"341 73 LINE",
"258 73 LINE"
);
}
);
width = 610;
},
{
associatedMasterId = "B33A6296-7F33-4AA4-95A6-15EAB02AACC1";
layerId = "30EED20B-2102-4EF0-8ED6-ECC89C7A9363";
name = "Oct 10 17, 23:33";
paths = (
{
closed = 1;
nodes = (
"341 148 LINE",
"341 214 LINE SMOOTH",
"341 324 OFFCURVE",
"487 387 OFFCURVE",
"487 534 CURVE SMOOTH",
"487 646 OFFCURVE",
"405 710 OFFCURVE",
"305 710 CURVE SMOOTH",
"182 710 OFFCURVE",
"124 629 OFFCURVE",
"114 609 CURVE",
"187 575 LINE",
"197 592 OFFCURVE",
"238 636 OFFCURVE",
"305 636 CURVE SMOOTH",
"353 636 OFFCURVE",
"404 611 OFFCURVE",
"404 534 CURVE SMOOTH",
"404 417 OFFCURVE",
"258 354 OFFCURVE",
"258 214 CURVE SMOOTH",
"258 148 LINE"
);
},
{
closed = 1;
nodes = (
"258 -10 LINE",
"341 -10 LINE",
"341 73 LINE",
"258 73 LINE"
);
}
);
width = 610;
},
{
associatedMasterId = "B33A6296-7F33-4AA4-95A6-15EAB02AACC1";
background = {
components = (
{
name = S;
transform = "{-1, 0, 0, 1, 609, 0}";
}
);
};
layerId = "4A0A2916-F9B9-46CE-8744-F9CEF21553A8";
name = "Oct 10 17, 23:35";
paths = (
{
closed = 1;
nodes = (
"341 148 LINE",
"341 214 LINE SMOOTH",
"341 324 OFFCURVE",
"487 387 OFFCURVE",
"487 534 CURVE SMOOTH",
"487 646 OFFCURVE",
"405 710 OFFCURVE",
"305 710 CURVE SMOOTH",
"180 710 OFFCURVE",
"99 647 OFFCURVE",
"64 530 CURVE",
"139 498 LINE",
"176 608 OFFCURVE",
"229 633 OFFCURVE",
"305 633 CURVE SMOOTH",
"353 633 OFFCURVE",
"404 611 OFFCURVE",
"404 534 CURVE SMOOTH",
"404 417 OFFCURVE",
"258 354 OFFCURVE",
"258 214 CURVE SMOOTH",
"258 148 LINE"
);
},
{
closed = 1;
nodes = (
"258 -10 LINE",
"341 -10 LINE",
"341 73 LINE",
"258 73 LINE"
);
}
);
width = 610;
},
{
associatedMasterId = "B33A6296-7F33-4AA4-95A6-15EAB02AACC1";
background = {
components = (
{
name = S;
transform = "{-1, 0, 0, 1, 609, 0}";
}
);
};
layerId = "23A864F8-3958-4929-A594-047E70054CD8";
name = "Dec 5 17, 23:05";
paths = (
{
closed = 1;
nodes = (
"341 148 LINE",
"341 214 LINE SMOOTH",
"341 274 OFFCURVE",
"383 315 OFFCURVE",
"434 357 CURVE SMOOTH",
"479 394 OFFCURVE",
"526 448 OFFCURVE",
"526 531 CURVE SMOOTH",
"526 649 OFFCURVE",
"415 710 OFFCURVE",
"305 710 CURVE SMOOTH",
"180 710 OFFCURVE",
"109 647 OFFCURVE",
"74 530 CURVE",
"149 498 LINE",
"186 608 OFFCURVE",
"229 633 OFFCURVE",
"305 633 CURVE SMOOTH",
"363 633 OFFCURVE",
"441 606 OFFCURVE",
"441 531 CURVE SMOOTH",
"441 462 OFFCURVE",
"408 433 OFFCURVE",
"369 405 CURVE SMOOTH",
"310 363 OFFCURVE",
"258 300 OFFCURVE",
"258 214 CURVE SMOOTH",
"258 148 LINE"
);
},
{
closed = 1;
nodes = (
"258 -10 LINE",
"341 -10 LINE",
"341 73 LINE",
"258 73 LINE"
);
}
);
width = 610;
},
{
associatedMasterId = "B33A6296-7F33-4AA4-95A6-15EAB02AACC1";
background = {
components = (
{
name = S;
transform = "{-1, 0, 0, 1, 609, 0}";
}
);
};
components = (
{
name = DotWide;
transform = "{1, 0, 0, 1, 12, -170}";
}
);
layerId = "FEDCDE55-FB6A-4495-8F42-2E1746E0991C";
name = "Dec 5 17, 23:08";
paths = (
{
closed = 1;
nodes = (
"340 148 LINE SMOOTH",
"322 241 OFFCURVE",
"369 300 OFFCURVE",
"415 340 CURVE SMOOTH",
"462 381 OFFCURVE",
"526 435 OFFCURVE",
"526 528 CURVE SMOOTH",
"526 651 OFFCURVE",
"416 710 OFFCURVE",
"301 710 CURVE SMOOTH",
"183 710 OFFCURVE",
"109 648 OFFCURVE",
"74 530 CURVE",
"149 498 LINE",
"186 608 OFFCURVE",
"231 633 OFFCURVE",
"299 633 CURVE SMOOTH",
"363 633 OFFCURVE",
"441 611 OFFCURVE",
"441 523 CURVE SMOOTH",
"441 457 OFFCURVE",
"396 425 OFFCURVE",
"348 390 CURVE SMOOTH",
"286 345 OFFCURVE",
"239 236 OFFCURVE",
"258 148 CURVE SMOOTH"
);
},
{
closed = 1;
nodes = (
"258 -10 LINE",
"341 -10 LINE",
"341 73 LINE",
"258 73 LINE"
);
}
);
width = 610;
},
{
associatedMasterId = "B33A6296-7F33-4AA4-95A6-15EAB02AACC1";
background = {
components = (
{
name = S;
transform = "{-1, 0, 0, 1, 609, 0}";
}
);
};
layerId = "F3868329-906F-4138-AC7B-0DFA4D46F82D";
name = "Dec 5 17, 23:14";
paths = (
{
closed = 1;
nodes = (
"340 148 LINE",
"322 241 OFFCURVE",
"356 294 OFFCURVE",
"415 344 CURVE SMOOTH",
"462 384 OFFCURVE",
"526 430 OFFCURVE",
"526 526 CURVE SMOOTH",
"526 651 OFFCURVE",
"416 710 OFFCURVE",
"311 710 CURVE SMOOTH",
"183 710 OFFCURVE",
"110 648 OFFCURVE",
"75 530 CURVE",
"149 498 LINE",
"186 608 OFFCURVE",
"231 635 OFFCURVE",
"309 635 CURVE SMOOTH",
"363 635 OFFCURVE",
"443 611 OFFCURVE",
"443 526 CURVE SMOOTH",
"443 457 OFFCURVE",
"392 427 OFFCURVE",
"349 390 CURVE SMOOTH",
"278 328 OFFCURVE",
"239 249 OFFCURVE",
"258 148 CURVE"
);
},
{
closed = 1;
nodes = (
"258 -10 LINE",
"341 -10 LINE",
"341 73 LINE",
"258 73 LINE"
);
}
);
width = 610;
},
{
associatedMasterId = "B33A6296-7F33-4AA4-95A6-15EAB02AACC1";
layerId = "6ECBFEC3-A1D2-4290-BC8C-F7A03D6D5428";
name = "Dec 14 17, 21:46";
paths = (
{
closed = 1;
nodes = (
"340 148 LINE",
"322 241 OFFCURVE",
"356 294 OFFCURVE",
"415 344 CURVE SMOOTH",
"462 384 OFFCURVE",
"526 430 OFFCURVE",
"526 526 CURVE SMOOTH",
"526 651 OFFCURVE",
"419 710 OFFCURVE",
"305 710 CURVE SMOOTH",
"182 710 OFFCURVE",
"107 642 OFFCURVE",
"75 530 CURVE",
"149 498 LINE",
"186 608 OFFCURVE",
"233 635 OFFCURVE",
"303 635 CURVE SMOOTH",
"365 635 OFFCURVE",
"443 611 OFFCURVE",
"443 526 CURVE SMOOTH",
"443 457 OFFCURVE",
"392 427 OFFCURVE",
"349 390 CURVE SMOOTH",
"278 328 OFFCURVE",
"239 249 OFFCURVE",
"258 148 CURVE"
);
},
{
closed = 1;
nodes = (
"258 -10 LINE",
"341 -10 LINE",
"341 73 LINE",
"258 73 LINE"
);
}
);
width = 610;
}
);
unicode = 003F;
}
{
glyphname = J;
layers = (
{
anchors = (
{
name = bottom;
position = "{300, 0}";
},
{
name = top;
position = "{300, 800}";
}
);
background = {
components = (
{
name = S;
transform = "{1, 0, 0, 1, 20, 0}";
}
);
};
layerId = "B33A6296-7F33-4AA4-95A6-15EAB02AACC1";
paths = (
{
closed = 1;
nodes = (
"425 700 LINE",
"425 213 LINE SMOOTH",
"425 101 OFFCURVE",
"364 67 OFFCURVE",
"295 67 CURVE SMOOTH",
"228 67 OFFCURVE",
"169 119 OFFCURVE",
"150 207 CURVE",
"75 175 LINE",
"97 76 OFFCURVE",
"177 -10 OFFCURVE",
"295 -10 CURVE SMOOTH",
"406 -10 OFFCURVE",
"510 53 OFFCURVE",
"510 215 CURVE SMOOTH",
"510 700 LINE"
);
}
);
width = 610;
},
{
associatedMasterId = "B33A6296-7F33-4AA4-95A6-15EAB02AACC1";
layerId = "9400DD60-A898-4B81-8233-FA3856E4E684";
name = "1";
paths = (
{
closed = 1;
nodes = (
"423 -10 OFFCURVE",
"512 45 OFFCURVE",
"512 251 CURVE SMOOTH",
"512 701 LINE",
"429 701 LINE",
"429 275 LINE SMOOTH",
"429 107 OFFCURVE",
"394 65 OFFCURVE",
"305 65 CURVE SMOOTH",
"206 65 OFFCURVE",
"178 144 OFFCURVE",
"159 196 CURVE",
"90 170 LINE",
"106 104 OFFCURVE",
"163 -10 OFFCURVE",
"306 -10 CURVE SMOOTH"
);
}
);
width = 610;
},
{
anchors = (
{
name = bottom;
position = "{300, 0}";
},
{
name = top;
position = "{300, 500}";
}
);
associatedMasterId = "B33A6296-7F33-4AA4-95A6-15EAB02AACC1";
background = {
components = (
{
name = j;
transform = "{1, 0, 0, 1, 23, 200}";
},
{
name = S;
transform = "{1, 0, 0, 1, 22, 0}";
}
);
};
layerId = "0D61721D-0D89-4F47-9D79-857F5D8D9B45";
name = "Mar 16 17, 21:42";
paths = (
{
closed = 1;
nodes = (
"425 700 LINE",
"425 180 LINE SMOOTH",
"425 110 OFFCURVE",
"387 67 OFFCURVE",
"319 67 CURVE SMOOTH",
"261 67 OFFCURVE",
"203 78 OFFCURVE",
"174 154 CURVE",
"104 118 LINE",
"136 31 OFFCURVE",
"217 -10 OFFCURVE",
"316 -10 CURVE SMOOTH",
"429 -10 OFFCURVE",
"510 62 OFFCURVE",
"510 182 CURVE SMOOTH",
"510 700 LINE"
);
}
);
width = 610;
}
);
unicode = 004A;
}
{
glyphname = K;
layers = (
{
anchors = (
{
name = bottom;
position = "{282, 0}";
},
{
name = top;
position = "{291, 800}";
}
);
background = {
components = (
{
name = N;
transform = "{1, 0, 0, 1, 14, 0}";
}
);
};
layerId = "B33A6296-7F33-4AA4-95A6-15EAB02AACC1";
paths = (
{
closed = 1;
nodes = (
"553 0 LINE",
"302 446 LINE",
"295 387 LINE",
"528 700 LINE",
"421 700 LINE",
"142 306 LINE",
"172 297 LINE",
"172 700 LINE",
"87 700 LINE",
"87 0 LINE",
"172 0 LINE",
"172 268 LINE",
"145 187 LINE",
"284 373 LINE",
"254 373 LINE",
"452 0 LINE"
);
}
);
width = 610;
},
{
anchors = (
{
name = bottom;
position = "{267, 0}";
},
{
name = top;
position = "{266, 500}";
}
);
associatedMasterId = "B33A6296-7F33-4AA4-95A6-15EAB02AACC1";
layerId = "1347BA05-1DC7-4F3E-825A-2C2EB40324D1";
name = "Regular Feb 22 17, 22:18";
paths = (
{
closed = 1;
nodes = (
"88 0 LINE",
"171 0 LINE",
"171 700 LINE",
"88 700 LINE"
);
},
{
closed = 1;
nodes = (
"105 253 LINE",
"162 210 LINE",
"494 700 LINE",
"398 700 LINE"
);
},
{
closed = 1;
nodes = (
"524 0 LINE",
"267 435 LINE",
"209 391 LINE",
"430 0 LINE"
);
}
);
width = 610;
}
);
unicode = 004B;
}
{
glyphname = L;
layers = (
{
anchors = (
{
name = bottom;
position = "{287, 0}";
},
{
name = center;
position = "{216, 348}";
},
{
name = top;
position = "{305, 800}";
},
{
name = topright;
position = "{590, 700}";
}
);
background = {
components = (
{
name = T;
}
);
};
layerId = "B33A6296-7F33-4AA4-95A6-15EAB02AACC1";
paths = (
{
closed = 1;
nodes = (
"146 0 LINE",
"543 0 LINE",
"543 77 LINE",
"146 77 LINE"
);
},
{
closed = 1;
nodes = (
"105 0 LINE",
"190 0 LINE",
"190 699 LINE",
"105 700 LINE"
);
}
);
width = 610;
}
);
unicode = 004C;
}
{
glyphname = M;
layers = (
{
anchors = (
{
name = bottom;
position = "{502, 0}";
},
{
name = top;
position = "{305, 800}";
}
);
background = {
components = (
{
name = N;
}
);
};
layerId = "B33A6296-7F33-4AA4-95A6-15EAB02AACC1";
paths = (
{
closed = 1;
nodes = (
"543 700 LINE",
"475 700 LINE",
"291 379 LINE",
"319 379 LINE",
"135 700 LINE",
"67 700 LINE",
"66 0 LINE",
"151 0 LINE",
"148 592 LINE",
"121 592 LINE",
"278 305 LINE",
"332 305 LINE",
"489 592 LINE",
"462 592 LINE",
"459 0 LINE",
"544 0 LINE"
);
}
);
width = 610;
},
{
anchors = (
{
name = bottom;
position = "{502, 0}";
},
{
name = top;
position = "{305, 500}";
}
);
associatedMasterId = "B33A6296-7F33-4AA4-95A6-15EAB02AACC1";
layerId = "E49524D1-866E-4A97-A197-E530518859E5";
name = "1";
paths = (
{
closed = 1;
nodes = (
"465 700 LINE",
"283 379 LINE",
"327 379 LINE",
"145 700 LINE",
"67 700 LINE",
"67 0 LINE",
"150 0 LINE",
"147 608 LINE",
"115 602 LINE",
"281 305 LINE",
"328 305 LINE",
"495 602 LINE",
"463 608 LINE",
"460 0 LINE",
"543 0 LINE",
"543 700 LINE"
);
}
);
width = 610;
}
);
unicode = 004D;
}
{
glyphname = N;
layers = (
{
anchors = (
{
name = bottom;
position = "{305, 0}";
},
{
name = top;
position = "{305, 800}";
}
);
background = {
components = (
{
name = A;
}
);
};
layerId = "B33A6296-7F33-4AA4-95A6-15EAB02AACC1";
paths = (
{
closed = 1;
nodes = (
"456 92 LINE",
"515 62 LINE",
"142 700 LINE",
"74 700 LINE",
"74 0 LINE",
"159 0 LINE",
"154 611 LINE",
"99 631 LINE",
"468 0 LINE",
"536 0 LINE",
"536 700 LINE",
"451 700 LINE"
);
}
);
width = 610;
},
{
anchors = (
{
name = bottom;
position = "{305, 0}";
},
{
name = top;
position = "{305, 500}";
}
);
associatedMasterId = "B33A6296-7F33-4AA4-95A6-15EAB02AACC1";
guideLines = (
{
position = "{302, 775}";
}
);
layerId = "8997C58A-09C5-4893-96A0-F61A204408B6";
name = "Regular Feb 21 17, 22:31";
paths = (
{
closed = 1;
nodes = (
"456 92 LINE",
"491 98 LINE",
"150 700 LINE",
"74 700 LINE",
"74 0 LINE",
"158 0 LINE",
"154 611 LINE",
"119 605 LINE",
"461 0 LINE",
"536 0 LINE",
"536 700 LINE",
"453 700 LINE"
);
}
);
width = 610;
}
);
unicode = 004E;
}
{
glyphname = O;
layers = (
{
anchors = (
{
name = center;
position = "{305, 350}";
},
{
name = ogonek;
position = "{312, 10}";
},
{
name = top;
position = "{305, 800}";
},
{
name = topleft;
position = "{20, 700}";
},
{
name = topright;
position = "{590, 700}";
}
);
layerId = "B33A6296-7F33-4AA4-95A6-15EAB02AACC1";
paths = (
{
closed = 1;
nodes = (
"120 710 OFFCURVE",
"40 529 OFFCURVE",
"40 350 CURVE SMOOTH",
"40 171 OFFCURVE",
"120 -10 OFFCURVE",
"305 -10 CURVE SMOOTH",
"490 -10 OFFCURVE",
"570 171 OFFCURVE",
"570 350 CURVE SMOOTH",
"570 529 OFFCURVE",
"490 710 OFFCURVE",
"305 710 CURVE SMOOTH"
);
},
{
closed = 1;
nodes = (
"190 67 OFFCURVE",
"125 188 OFFCURVE",
"125 350 CURVE SMOOTH",
"125 512 OFFCURVE",
"190 633 OFFCURVE",
"305 633 CURVE SMOOTH",
"420 633 OFFCURVE",
"485 512 OFFCURVE",
"485 350 CURVE SMOOTH",
"485 188 OFFCURVE",
"420 67 OFFCURVE",
"305 67 CURVE SMOOTH"
);
}
);
width = 610;
}
);
unicode = 004F;
}
{
glyphname = Z;
layers = (
{
anchors = (
{
name = bottom;
position = "{305, 0}";
},
{
name = top;
position = "{305, 800}";
}
);
layerId = "B33A6296-7F33-4AA4-95A6-15EAB02AACC1";
paths = (
{
closed = 1;
nodes = (
"537 650 LINE",
"537 700 LINE",
"72 700 LINE",
"72 623 LINE",
"471 623 LINE",
"466 694 LINE",
"54 50 LINE",
"54 0 LINE",
"556 0 LINE",
"556 75 LINE",
"119 75 LINE",
"123 4 LINE"
);
}
);
width = 610;
},
{
anchors = (
{
name = bottom;
position = "{305, 0}";
},
{
name = top;
position = "{305, 500}";
}
);
associatedMasterId = "B33A6296-7F33-4AA4-95A6-15EAB02AACC1";
guideLines = (
{
position = "{14, 775}";
}
);
layerId = "4C2BA787-9705-4A05-B3D1-E4E50103DF85";
name = "Regular Feb 21 17, 22:46";
paths = (
{
closed = 1;
nodes = (
"538 650 LINE",
"538 700 LINE",
"62 700 LINE",
"62 623 LINE",
"472 623 LINE",
"452 661 LINE",
"54 50 LINE",
"54 0 LINE",
"556 0 LINE",
"556 75 LINE",
"119 75 LINE",
"139 37 LINE"
);
}
);
width = 610;
},
{
anchors = (
{
name = bottom;
position = "{305, 0}";
},
{
name = top;
position = "{305, 500}";
}
);
associatedMasterId = "B33A6296-7F33-4AA4-95A6-15EAB02AACC1";
components = (
{
name = DotWideUppercase;
transform = "{1, 0, 0, 1, 211, 296}";
},
{
name = DotWideUppercase;
transform = "{1, 0, 0, 1, -188, -327}";
}
);
guideLines = (
{
position = "{14, 775}";
}
);
layerId = "801B6737-FE0D-4CC3-B465-A3BD2AD86E82";
name = "Regular Feb 23 17, 23:41";
paths = (
{
closed = 1;
nodes = (
"538 650 LINE",
"538 700 LINE",
"62 700 LINE",
"62 623 LINE",
"472 623 LINE",
"474 694 LINE",
"54 50 LINE",
"54 0 LINE",
"556 0 LINE",
"556 75 LINE",
"119 75 LINE",
"116 4 LINE"
);
}
);
width = 610;
}
);
unicode = 005A;
}
{
glyphname = asciicircum;
layers = (
{
layerId = "B33A6296-7F33-4AA4-95A6-15EAB02AACC1";
paths = (
{
closed = 1;
nodes = (
"322 700 LINE",
"240 700 LINE",
"43 389 LINE",
"142 389 LINE",
"301 675 LINE",
"261 675 LINE",
"420 389 LINE",
"519 389 LINE"
);
}
);
width = 610;
}
);
unicode = 005E;
}
{
glyphname = backslash;
layers = (
{
layerId = "B33A6296-7F33-4AA4-95A6-15EAB02AACC1";
paths = (
{
closed = 1;
nodes = (
"406 -70 LINE",
"264 700 LINE",
"178 700 LINE",
"320 -70 LINE"
);
}
);
width = 610;
}
);
unicode = 005C;
}
{
glyphname = bracketright;
layers = (
{
guideLines = (
{
position = "{229, -164}";
},
{
position = "{229, 757}";
}
);
layerId = "B33A6296-7F33-4AA4-95A6-15EAB02AACC1";
paths = (
{
closed = 1;
nodes = (
"325 -165 LINE",
"410 -165 LINE",
"410 757 LINE",
"325 757 LINE"
);
},
{
closed = 1;
nodes = (
"192 757 LINE",
"192 682 LINE",
"408 682 LINE",
"408 757 LINE"
);
},
{
closed = 1;
nodes = (
"192 -90 LINE",
"192 -165 LINE",
"408 -165 LINE",
"408 -90 LINE"
);
}
);
width = 610;
}
);
unicode = 005D;
}
{
glyphname = underscore;
layers = (
{
layerId = "B33A6296-7F33-4AA4-95A6-15EAB02AACC1";
paths = (
{
closed = 1;
nodes = (
"89 -87 LINE",
"511 -87 LINE",
"511 -10 LINE",
"89 -10 LINE"
);
}
);
width = 610;
}
);
unicode = 005F;
}
{
glyphname = j;
layers = (
{
anchors = (
{
name = bottom;
position = "{300, 0}";
},
{
name = top;
position = "{300, 500}";
}
);
associatedMasterId = "B33A6296-7F33-4AA4-95A6-15EAB02AACC1";
layerId = "EAC59616-39A8-4AA6-9B58-65A1CE0FE1CE";
name = "1";
paths = (
{
closed = 1;
nodes = (
"458 425 LINE SMOOTH",
"458 500 LINE SMOOTH",
"136 500 LINE SMOOTH",
"136 425 LINE SMOOTH"
);
},
{
closed = 1;
nodes = (
"476 592 OFFCURVE",
"502 619 OFFCURVE",
"502 651 CURVE SMOOTH",
"502 683 OFFCURVE",
"476 710 OFFCURVE",
"444 710 CURVE SMOOTH",
"411 710 OFFCURVE",
"385 683 OFFCURVE",
"385 651 CURVE SMOOTH",
"385 619 OFFCURVE",
"411 592 OFFCURVE",
"444 592 CURVE SMOOTH"
);
},
{
closed = 1;
nodes = (
"108 -146 LINE",
"148 -180 OFFCURVE",
"207 -206 OFFCURVE",
"270 -209 CURVE SMOOTH",
"390 -215 OFFCURVE",
"488 -149 OFFCURVE",
"488 -17 CURVE SMOOTH",
"488 500 LINE",
"406 500 LINE",
"406 10 LINE SMOOTH",
"406 -101 OFFCURVE",
"366 -138 OFFCURVE",
"267 -134 CURVE SMOOTH",
"215 -132 OFFCURVE",
"187 -111 OFFCURVE",
"159 -90 CURVE"
);
}
);
width = 610;
},
{
anchors = (
{
name = bottom;
position = "{300, 0}";
},
{
name = top;
position = "{300, 500}";
}
);
associatedMasterId = "B33A6296-7F33-4AA4-95A6-15EAB02AACC1";
background = {
components = (
{
name = s;
transform = "{1, 0, 0, 1, -19, -200}";
}
);
};
layerId = "5F5122B5-725B-49A5-ACB6-34893B6BE957";
name = "2";
paths = (
{
closed = 1;
nodes = (
"458 425 LINE SMOOTH",
"458 500 LINE SMOOTH",
"136 500 LINE SMOOTH",
"136 425 LINE SMOOTH"
);
},
{
closed = 1;
nodes = (
"83 -82 LINE",
"113 -170 OFFCURVE",
"207 -206 OFFCURVE",
"270 -209 CURVE SMOOTH",
"390 -215 OFFCURVE",
"488 -149 OFFCURVE",
"488 -17 CURVE SMOOTH",
"488 500 LINE",
"405 500 LINE",
"405 10 LINE SMOOTH",
"405 -101 OFFCURVE",
"366 -138 OFFCURVE",
"267 -134 CURVE SMOOTH",
"215 -132 OFFCURVE",
"171 -101 OFFCURVE",
"153 -46 CURVE"
);
},
{
closed = 1;
nodes = (
"496 604 LINE",
"496 700 LINE",
"400 700 LINE",
"400 604 LINE"
);
}
);
width = 610;
},
{
anchors = (
{
name = bottom;
position = "{300, 0}";
},
{
name = top;
position = "{300, 500}";
}
);
associatedMasterId = "B33A6296-7F33-4AA4-95A6-15EAB02AACC1";
background = {
components = (
{
name = a;
transform = "{1, 0, 0, -1, 24, 300}";
}
);
};
layerId = "A08D3525-8C04-4B50-AEA8-AC5EC024DD28";
name = "3";
paths = (
{
closed = 1;
nodes = (
"136 500 LINE",
"136 425 LINE",
"450 425 LINE",
"405 470 LINE",
"405 -41 LINE SMOOTH",
"405 -101 OFFCURVE",
"366 -135 OFFCURVE",
"304 -135 CURVE SMOOTH",
"240 -135 OFFCURVE",
"201 -104 OFFCURVE",
"180 -46 CURVE",
"110 -82 LINE",
"148 -168 OFFCURVE",
"210 -210 OFFCURVE",
"307 -210 CURVE SMOOTH",
"409 -210 OFFCURVE",
"488 -149 OFFCURVE",
"488 -39 CURVE SMOOTH",
"488 500 LINE"
);
},
{
closed = 1;
nodes = (
"496 604 LINE",
"496 700 LINE",
"400 700 LINE",
"400 604 LINE"
);
}
);
width = 610;
},
{
anchors = (
{
name = bottom;
position = "{300, 0}";
},
{
name = top;
position = "{300, 500}";
}
);
associatedMasterId = "B33A6296-7F33-4AA4-95A6-15EAB02AACC1";
background = {
components = (
{
name = s;
transform = "{1, 0, 0, 1, -19, -200}";
}
);
guideLines = (
{
angle = 270;
position = "{488, 54}";
}
);
};
layerId = "10C6ACC3-D176-4F6F-958F-A6D1F8CD5392";
name = "4";
paths = (
{
closed = 1;
nodes = (
"136 500 LINE",
"136 425 LINE",
"450 425 LINE",
"405 470 LINE",
"405 -20 LINE SMOOTH",
"405 -90 OFFCURVE",
"366 -135 OFFCURVE",
"298 -135 CURVE SMOOTH",
"240 -135 OFFCURVE",
"182 -122 OFFCURVE",
"153 -46 CURVE",
"83 -82 LINE",
"116 -168 OFFCURVE",
"197 -210 OFFCURVE",
"307 -210 CURVE SMOOTH",
"409 -210 OFFCURVE",
"488 -138 OFFCURVE",
"488 -18 CURVE SMOOTH",
"488 500 LINE"
);
},
{
closed = 1;
nodes = (
"496 604 LINE",
"496 700 LINE",
"400 700 LINE",
"400 604 LINE"
);
}
);
width = 610;
},
{
anchors = (
{
name = bottom;
position = "{300, 0}";
},
{
name = center;
position = "{430, 591}";
},
{
name = top;
position = "{300, 500}";
},
{
name = topright;
position = "{560, 500}";
}
);
associatedMasterId = "B33A6296-7F33-4AA4-95A6-15EAB02AACC1";
layerId = "27A5F287-8BE2-4B47-90EC-1B68B7408B90";
name = "6";
paths = (
{
closed = 1;
nodes = (
"136 500 LINE",
"136 425 LINE",
"450 425 LINE",
"405 470 LINE",
"405 -20 LINE",
"488 -18 LINE",
"488 500 LINE"
);
},
{
closed = 1;
nodes = (
"496 604 LINE",
"496 700 LINE",
"400 700 LINE",
"400 604 LINE"
);
},
{
closed = 1;
nodes = (
"487 500 LINE",
"437 500 LINE",
"405 470 LINE",
"406 107 LINE",
"405 -2 LINE SMOOTH",
"404 -101 OFFCURVE",
"338 -135 OFFCURVE",
"268 -135 CURVE SMOOTH",
"196 -135 OFFCURVE",
"152 -98 OFFCURVE",
"136 -46 CURVE",
"66 -82 LINE",
"100 -172 OFFCURVE",
"180 -210 OFFCURVE",
"268 -210 CURVE SMOOTH",
"388 -210 OFFCURVE",
"488 -138 OFFCURVE",
"488 3 CURVE SMOOTH"
);
}
);
width = 610;
},
{
components = (
{
name = jdotless;
},
{
name = dotaccentcomb;
transform = "{1, 0, 0, 1, 125, 50}";
}
);
layerId = "B33A6296-7F33-4AA4-95A6-15EAB02AACC1";
width = 610;
},
{
anchors = (
{
name = bottom;
position = "{300, 0}";
},
{
name = top;
position = "{300, 500}";
}
);
associatedMasterId = "B33A6296-7F33-4AA4-95A6-15EAB02AACC1";
components = (
{
name = DotWide;
transform = "{1, 0, 0, 1, 162, -75}";
}
);
layerId = "C946215A-45F0-4C0C-A834-7EC8E4B2CF8B";
name = "7";
paths = (
{
closed = 1;
nodes = (
"136 500 LINE",
"136 425 LINE",
"450 425 LINE",
"405 470 LINE",
"405 -20 LINE SMOOTH",
"405 -90 OFFCURVE",
"366 -135 OFFCURVE",
"298 -135 CURVE SMOOTH",
"240 -135 OFFCURVE",
"182 -122 OFFCURVE",
"153 -46 CURVE",
"83 -82 LINE",
"115 -169 OFFCURVE",
"196 -210 OFFCURVE",
"295 -210 CURVE SMOOTH",
"408 -210 OFFCURVE",
"488 -138 OFFCURVE",
"488 -18 CURVE SMOOTH",
"488 500 LINE"
);
},
{
closed = 1;
nodes = (
"496 604 LINE",
"496 700 LINE",
"400 700 LINE",
"400 604 LINE"
);
}
);
width = 610;
},
{
anchors = (
{
name = bottom;
position = "{300, 0}";
},
{
name = top;
position = "{300, 580}";
}
);
associatedMasterId = "B33A6296-7F33-4AA4-95A6-15EAB02AACC1";
layerId = "F2695F22-60F1-47A9-BD02-2B22B6246C93";
name = "8";
paths = (
{
closed = 1;
nodes = (
"136 470 LINE",
"136 395 LINE",
"450 395 LINE",
"405 440 LINE",
"405 -50 LINE SMOOTH",
"405 -120 OFFCURVE",
"366 -165 OFFCURVE",
"298 -165 CURVE SMOOTH",
"240 -165 OFFCURVE",
"182 -152 OFFCURVE",
"153 -76 CURVE",
"83 -112 LINE",
"115 -199 OFFCURVE",
"196 -240 OFFCURVE",
"295 -240 CURVE SMOOTH",
"408 -240 OFFCURVE",
"488 -168 OFFCURVE",
"488 -48 CURVE SMOOTH",
"488 470 LINE"
);
},
{
closed = 1;
nodes = (
"497 584 LINE",
"497 700 LINE",
"381 700 LINE",
"381 584 LINE"
);
}
);
width = 610;
}
);
unicode = 006A;
}
{
glyphname = k;
layers = (
{
anchors = (
{
name = bottom;
position = "{285, 0}";
},
{
name = top;
position = "{305, 580}";
}
);
background = {
components = (
{
name = h;
transform = "{1, 0, 0, 1, -9, 0}";
}
);
};
layerId = "B33A6296-7F33-4AA4-95A6-15EAB02AACC1";
paths = (
{
closed = 1;
nodes = (
"519 0 LINE",
"285 330 LINE",
"291 270 LINE",
"481 470 LINE",
"377 470 LINE",
"151 215 LINE",
"174 204 LINE",
"174 700 LINE",
"91 700 LINE",
"91 0 LINE",
"174 0 LINE",
"174 183 LINE",
"144 104 LINE",
"269 246 LINE",
"235 270 LINE",
"422 0 LINE"
);
}
);
width = 610;
},
{
anchors = (
{
name = bottom;
position = "{285, 0}";
},
{
name = top;
position = "{305, 500}";
}
);
associatedMasterId = "B33A6296-7F33-4AA4-95A6-15EAB02AACC1";
layerId = "B31E0D09-49B6-4612-925E-3D325B591CE5";
name = "1";
paths = (
{
closed = 1;
nodes = (
"96 0 LINE",
"178 0 LINE",
"177 710 LINE",
"95 710 LINE"
);
},
{
closed = 1;
nodes = (
"134 188 LINE",
"138 73 LINE",
"495 500 LINE",
"395 500 LINE"
);
},
{
closed = 1;
nodes = (
"515 0 LINE",
"300 333 LINE",
"256 269 LINE SMOOTH",
"420 0 LINE"
);
}
);
width = 610;
},
{
anchors = (
{
name = bottom;
position = "{285, 0}";
},
{
name = top;
position = "{305, 500}";
}
);
associatedMasterId = "B33A6296-7F33-4AA4-95A6-15EAB02AACC1";
layerId = "29F013C1-3414-4F61-B220-4381F80CE0EF";
name = "2";
paths = (
{
closed = 1;
nodes = (
"96 0 LINE",
"179 0 LINE",
"178 700 LINE",
"95 700 LINE"
);
},
{
closed = 1;
nodes = (
"101 180 LINE",
"159 126 LINE",
"501 500 LINE",
"395 500 LINE"
);
},
{
closed = 1;
nodes = (
"535 0 LINE",
"303 364 LINE",
"244 307 LINE SMOOTH",
"438 0 LINE"
);
}
);
width = 610;
},
{
anchors = (
{
name = bottom;
position = "{285, 0}";
},
{
name = top;
position = "{305, 500}";
}
);
associatedMasterId = "B33A6296-7F33-4AA4-95A6-15EAB02AACC1";
background = {
components = (
{
name = h;
transform = "{1, 0, 0, 1, -9, 0}";
}
);
};
layerId = "143F0962-6D93-458F-8E28-8EEFFBEE762D";
name = "3";
paths = (
{
closed = 1;
nodes = (
"96 0 LINE",
"179 0 LINE",
"178 230 LINE",
"179 700 LINE",
"96 700 LINE"
);
},
{
closed = 1;
nodes = (
"101 180 LINE",
"158 126 LINE",
"490 500 LINE",
"385 500 LINE"
);
},
{
closed = 1;
nodes = (
"535 0 LINE",
"303 364 LINE",
"244 307 LINE SMOOTH",
"438 0 LINE"
);
}
);
width = 610;
},
{
anchors = (
{
name = bottom;
position = "{285, 0}";
},
{
name = top;
position = "{305, 500}";
}
);
associatedMasterId = "B33A6296-7F33-4AA4-95A6-15EAB02AACC1";
background = {
components = (
{
name = h;
transform = "{1, 0, 0, 1, -9, 0}";
}
);
};
layerId = "D37C7505-A5FB-497B-A3B7-BADF1F882003";
name = "4";
paths = (
{
closed = 1;
nodes = (
"91 0 LINE",
"174 0 LINE",
"174 700 LINE",
"91 700 LINE"
);
},
{
closed = 1;
nodes = (
"105 168 LINE",
"163 126 LINE",
"494 500 LINE",
"389 500 LINE"
);
},
{
closed = 1;
nodes = (
"519 0 LINE",
"300 308 LINE",
"228 275 LINE SMOOTH",
"422 0 LINE"
);
}
);
width = 610;
}
);
unicode = 006B;
}
{
glyphname = l;
layers = (
{
anchors = (
{
name = bottom;
position = "{305, 0}";
},
{
name = center;
position = "{305, 388}";
},
{
name = top;
position = "{305, 759}";
},
{
name = topright;
position = "{590, 500}";
}
);
layerId = "B33A6296-7F33-4AA4-95A6-15EAB02AACC1";
paths = (
{
closed = 1;
nodes = (
"264 0 LINE",
"346 0 LINE",
"345 700 LINE",
"263 700 LINE"
);
},
{
closed = 1;
nodes = (
"94 0 LINE",
"516 0 LINE",
"516 75 LINE",
"94 75 LINE"
);
},
{
closed = 1;
nodes = (
"124 625 LINE",
"346 625 LINE",
"346 700 LINE",
"124 700 LINE"
);
}
);
width = 610;
}
);
unicode = 006C;
}
{
glyphname = m;
layers = (
{
anchors = (
{
name = bottom;
position = "{312, 0}";
},
{
name = top;
position = "{300, 580}";
}
);
background = {
components = (
{
name = n;
transform = "{1, 0, 0, 1, -62, 0}";
}
);
};
layerId = "B33A6296-7F33-4AA4-95A6-15EAB02AACC1";
paths = (
{
closed = 1;
nodes = (
"41 0 LINE",
"125 0 LINE",
"123 367 LINE",
"131 411 LINE",
"94 470 LINE",
"42 470 LINE"
);
},
{
closed = 1;
nodes = (
"346 0 LINE",
"346 259 LINE SMOOTH",
"346 309 OFFCURVE",
"346 480 OFFCURVE",
"217 480 CURVE SMOOTH",
"110 480 OFFCURVE",
"89 364 OFFCURVE",
"89 287 CURVE",
"123 216 LINE",
"123 357 OFFCURVE",
"158 408 OFFCURVE",
"204 408 CURVE SMOOTH",
"258 408 OFFCURVE",
"263 339 OFFCURVE",
"263 272 CURVE SMOOTH",
"265 0 LINE"
);
},
{
closed = 1;
nodes = (
"569 -3 LINE",
"569 269 LINE SMOOTH",
"569 330 OFFCURVE",
"573 480 OFFCURVE",
"442 480 CURVE SMOOTH",
"334 480 OFFCURVE",
"301 360 OFFCURVE",
"301 284 CURVE",
"346 213 LINE",
"346 354 OFFCURVE",
"381 405 OFFCURVE",
"427 405 CURVE SMOOTH",
"486 405 OFFCURVE",
"486 323 OFFCURVE",
"486 269 CURVE SMOOTH",
"486 -3 LINE"
);
}
);
width = 610;
},
{
anchors = (
{
name = bottom;
position = "{312, 0}";
},
{
name = top;
position = "{300, 300}";
}
);
associatedMasterId = "B33A6296-7F33-4AA4-95A6-15EAB02AACC1";
layerId = "1378F247-FF57-4CBB-8955-EFE7A316BDCA";
name = "1";
paths = (
{
closed = 1;
nodes = (
"43 0 LINE",
"126 0 LINE",
"126 395 LINE",
"122 436 LINE",
"107 500 LINE",
"43 500 LINE"
);
},
{
closed = 1;
nodes = (
"346 0 LINE",
"346 299 LINE SMOOTH",
"346 422 OFFCURVE",
"333 510 OFFCURVE",
"222 510 CURVE SMOOTH",
"127 510 OFFCURVE",
"89 391 OFFCURVE",
"89 314 CURVE",
"126 314 LINE",
"126 384 OFFCURVE",
"172 435 OFFCURVE",
"214 435 CURVE SMOOTH",
"258 435 OFFCURVE",
"263 406 OFFCURVE",
"263 299 CURVE SMOOTH",
"263 0 LINE"
);
},
{
closed = 1;
nodes = (
"566 0 LINE",
"566 299 LINE SMOOTH",
"566 422 OFFCURVE",
"553 510 OFFCURVE",
"442 510 CURVE SMOOTH",
"347 510 OFFCURVE",
"309 391 OFFCURVE",
"309 314 CURVE",
"346 314 LINE",
"346 384 OFFCURVE",
"392 435 OFFCURVE",
"434 435 CURVE SMOOTH",
"478 435 OFFCURVE",
"483 406 OFFCURVE",
"483 299 CURVE SMOOTH",
"483 0 LINE"
);
}
);
width = 610;
},
{
anchors = (
{
name = bottom;
position = "{312, 0}";
},
{
name = top;
position = "{300, 300}";
}
);
associatedMasterId = "B33A6296-7F33-4AA4-95A6-15EAB02AACC1";
background = {
anchors = (
{
name = bottom;
position = "{267, 0}";
},
{
name = center;
position = "{82, 250}";
},
{
name = top;
position = "{266, 300}";
}
);
hints = (
{
horizontal = 1;
place = "{82.445, 0}";
type = Stem;
}
);
paths = (
{
closed = 1;
nodes = (
"43 0 LINE",
"126 0 LINE"
);
},
{
closed = 1;
nodes = (
"43 0 LINE",
"126 0 LINE",
"126 363 LINE",
"129 407 LINE",
"107 500 LINE",
"43 500 LINE"
);
},
{
closed = 1;
nodes = (
"464 0 LINE",
"464 266 LINE SMOOTH",
"464 442 OFFCURVE",
"385 510 OFFCURVE",
"271 510 CURVE SMOOTH",
"141 510 OFFCURVE",
"85 413 OFFCURVE",
"85 255 CURVE",
"126 255 LINE",
"126 325 OFFCURVE",
"139 435 OFFCURVE",
"269 435 CURVE SMOOTH",
"326 435 OFFCURVE",
"381 410 OFFCURVE",
"381 266 CURVE SMOOTH",
"381 0 LINE"
);
}
);
};
layerId = "DDADB69E-54D6-4F29-A175-61B8FF665C80";
name = "2";
paths = (
{
closed = 1;
nodes = (
"43 0 LINE",
"126 0 LINE",
"126 395 LINE",
"122 436 LINE",
"107 500 LINE",
"43 500 LINE"
);
},
{
closed = 1;
nodes = (
"346 0 LINE",
"346 240 LINE SMOOTH",
"346 363 OFFCURVE",
"333 510 OFFCURVE",
"222 510 CURVE SMOOTH",
"107 510 OFFCURVE",
"85 332 OFFCURVE",
"85 255 CURVE",
"126 255 LINE",
"126 325 OFFCURVE",
"152 435 OFFCURVE",
"214 435 CURVE SMOOTH",
"258 435 OFFCURVE",
"263 347 OFFCURVE",
"263 240 CURVE SMOOTH",
"263 0 LINE"
);
},
{
closed = 1;
nodes = (
"566 0 LINE",
"566 299 LINE SMOOTH",
"566 422 OFFCURVE",
"553 510 OFFCURVE",
"442 510 CURVE SMOOTH",
"327 510 OFFCURVE",
"305 332 OFFCURVE",
"305 255 CURVE",
"346 255 LINE",
"346 325 OFFCURVE",
"372 435 OFFCURVE",
"434 435 CURVE SMOOTH",
"478 435 OFFCURVE",
"483 406 OFFCURVE",
"483 299 CURVE SMOOTH",
"483 0 LINE"
);
}
);
width = 610;
},
{
anchors = (
{
name = bottom;
position = "{312, 0}";
},
{
name = top;
position = "{300, 300}";
}
);
associatedMasterId = "B33A6296-7F33-4AA4-95A6-15EAB02AACC1";
background = {
components = (
{
name = n;
transform = "{1, 0, 0, 1, -60, 0}";
}
);
};
layerId = "072CB827-0083-4DFB-963B-64BC813329F8";
name = "3";
paths = (
{
closed = 1;
nodes = (
"43 0 LINE",
"123 0 LINE",
"124 363 LINE",
"131 441 LINE",
"94 500 LINE",
"43 500 LINE"
);
},
{
closed = 1;
nodes = (
"346 0 LINE",
"346 299 LINE SMOOTH",
"346 422 OFFCURVE",
"333 510 OFFCURVE",
"222 510 CURVE SMOOTH",
"127 510 OFFCURVE",
"89 391 OFFCURVE",
"89 314 CURVE",
"124 255 LINE",
"124 325 OFFCURVE",
"172 435 OFFCURVE",
"214 435 CURVE SMOOTH",
"258 435 OFFCURVE",
"263 406 OFFCURVE",
"263 299 CURVE SMOOTH",
"263 0 LINE"
);
},
{
closed = 1;
nodes = (
"566 0 LINE",
"566 299 LINE SMOOTH",
"566 422 OFFCURVE",
"553 510 OFFCURVE",
"442 510 CURVE SMOOTH",
"347 510 OFFCURVE",
"309 391 OFFCURVE",
"309 314 CURVE",
"346 314 LINE",
"346 384 OFFCURVE",
"392 435 OFFCURVE",
"434 435 CURVE SMOOTH",
"478 435 OFFCURVE",
"483 406 OFFCURVE",
"483 299 CURVE SMOOTH",
"483 0 LINE"
);
}
);
width = 610;
},
{
anchors = (
{
name = bottom;
position = "{312, 0}";
},
{
name = top;
position = "{300, 300}";
}
);
associatedMasterId = "B33A6296-7F33-4AA4-95A6-15EAB02AACC1";
background = {
components = (
{
name = n;
transform = "{1, 0, 0, 1, -62, 0}";
}
);
};
layerId = "DB4B0467-081D-4039-936C-1EB80856106A";
name = "4";
paths = (
{
closed = 1;
nodes = (
"43 0 LINE",
"123 0 LINE",
"123 394 LINE",
"131 441 LINE",
"94 500 LINE",
"43 500 LINE"
);
},
{
closed = 1;
nodes = (
"346 0 LINE",
"346 286 LINE SMOOTH",
"346 409 OFFCURVE",
"333 510 OFFCURVE",
"222 510 CURVE SMOOTH",
"127 510 OFFCURVE",
"89 391 OFFCURVE",
"89 314 CURVE",
"123 243 LINE",
"123 384 OFFCURVE",
"172 435 OFFCURVE",
"214 435 CURVE SMOOTH",
"258 435 OFFCURVE",
"262 406 OFFCURVE",
"263 299 CURVE SMOOTH",
"265 0 LINE"
);
},
{
closed = 1;
nodes = (
"569 -3 LINE",
"569 288 LINE SMOOTH",
"569 411 OFFCURVE",
"556 507 OFFCURVE",
"445 507 CURVE SMOOTH",
"350 507 OFFCURVE",
"312 388 OFFCURVE",
"312 311 CURVE",
"346 240 LINE",
"346 381 OFFCURVE",
"395 432 OFFCURVE",
"437 432 CURVE SMOOTH",
"481 432 OFFCURVE",
"486 403 OFFCURVE",
"486 296 CURVE SMOOTH",
"486 -3 LINE"
);
}
);
width = 610;
},
{
anchors = (
{
name = bottom;
position = "{312, 0}";
},
{
name = top;
position = "{300, 300}";
}
);
associatedMasterId = "B33A6296-7F33-4AA4-95A6-15EAB02AACC1";
background = {
components = (
{
name = n;
transform = "{1, 0, 0, 1, -62, 0}";
}
);
};
layerId = "914E566B-097D-4968-BFA4-265FDFDC09CE";
name = "5";
paths = (
{
closed = 1;
nodes = (
"43 0 LINE",
"123 0 LINE",
"123 394 LINE",
"131 441 LINE",
"94 500 LINE",
"43 500 LINE"
);
},
{
closed = 1;
nodes = (
"346 0 LINE",
"346 286 LINE SMOOTH",
"346 409 OFFCURVE",
"320 510 OFFCURVE",
"209 510 CURVE SMOOTH",
"114 510 OFFCURVE",
"89 391 OFFCURVE",
"89 314 CURVE",
"123 243 LINE",
"123 384 OFFCURVE",
"159 435 OFFCURVE",
"201 435 CURVE SMOOTH",
"245 435 OFFCURVE",
"262 406 OFFCURVE",
"263 299 CURVE SMOOTH",
"265 0 LINE"
);
},
{
closed = 1;
nodes = (
"569 -3 LINE",
"569 288 LINE SMOOTH",
"569 411 OFFCURVE",
"543 507 OFFCURVE",
"432 507 CURVE SMOOTH",
"337 507 OFFCURVE",
"312 388 OFFCURVE",
"312 311 CURVE",
"346 240 LINE",
"346 381 OFFCURVE",
"382 432 OFFCURVE",
"424 432 CURVE SMOOTH",
"468 432 OFFCURVE",
"486 403 OFFCURVE",
"486 296 CURVE SMOOTH",
"486 -3 LINE"
);
}
);
width = 610;
},
{
anchors = (
{
name = bottom;
position = "{312, 0}";
},
{
name = top;
position = "{300, 300}";
}
);
associatedMasterId = "B33A6296-7F33-4AA4-95A6-15EAB02AACC1";
background = {
components = (
{
name = n;
transform = "{1, 0, 0, 1, -62, 0}";
}
);
};
layerId = "7D831953-3A3C-4599-80F6-DAA662612FDB";
name = "6";
paths = (
{
closed = 1;
nodes = (
"43 0 LINE",
"123 0 LINE",
"123 394 LINE",
"131 441 LINE",
"94 500 LINE",
"43 500 LINE"
);
},
{
closed = 1;
nodes = (
"346 0 LINE",
"346 286 LINE SMOOTH",
"346 409 OFFCURVE",
"320 510 OFFCURVE",
"209 510 CURVE SMOOTH",
"114 510 OFFCURVE",
"89 391 OFFCURVE",
"89 314 CURVE",
"123 243 LINE",
"123 384 OFFCURVE",
"159 435 OFFCURVE",
"201 435 CURVE SMOOTH",
"245 435 OFFCURVE",
"262 406 OFFCURVE",
"263 299 CURVE SMOOTH",
"265 0 LINE"
);
},
{
closed = 1;
nodes = (
"569 -3 LINE",
"569 301 LINE SMOOTH",
"569 424 OFFCURVE",
"552 507 OFFCURVE",
"437 507 CURVE SMOOTH",
"342 507 OFFCURVE",
"301 388 OFFCURVE",
"301 311 CURVE",
"346 240 LINE",
"346 381 OFFCURVE",
"384 432 OFFCURVE",
"426 432 CURVE SMOOTH",
"470 432 OFFCURVE",
"486 403 OFFCURVE",
"486 296 CURVE SMOOTH",
"486 -3 LINE"
);
}
);
width = 610;
},
{
anchors = (
{
name = bottom;
position = "{312, 0}";
},
{
name = top;
position = "{300, 580}";
}
);
associatedMasterId = "B33A6296-7F33-4AA4-95A6-15EAB02AACC1";
background = {
components = (
{
name = n;
transform = "{1, 0, 0, 1, -62, 0}";
}
);
};
layerId = "5F446305-B31F-4901-9BFF-B2A1F7CEAB31";
name = "7";
paths = (
{
closed = 1;
nodes = (
"43 0 LINE",
"123 0 LINE",
"123 367 LINE",
"131 411 LINE",
"94 470 LINE",
"43 470 LINE"
);
},
{
closed = 1;
nodes = (
"346 0 LINE",
"346 259 LINE SMOOTH",
"346 382 OFFCURVE",
"320 480 OFFCURVE",
"209 480 CURVE SMOOTH",
"114 480 OFFCURVE",
"89 364 OFFCURVE",
"89 287 CURVE",
"123 216 LINE",
"123 357 OFFCURVE",
"159 408 OFFCURVE",
"201 408 CURVE SMOOTH",
"245 408 OFFCURVE",
"262 379 OFFCURVE",
"263 272 CURVE SMOOTH",
"265 0 LINE"
);
},
{
closed = 1;
nodes = (
"569 -3 LINE",
"569 261 LINE SMOOTH",
"569 384 OFFCURVE",
"546 480 OFFCURVE",
"434 480 CURVE SMOOTH",
"339 480 OFFCURVE",
"301 361 OFFCURVE",
"301 284 CURVE",
"346 213 LINE",
"346 354 OFFCURVE",
"382 405 OFFCURVE",
"424 405 CURVE SMOOTH",
"468 405 OFFCURVE",
"486 376 OFFCURVE",
"486 269 CURVE SMOOTH",
"486 -3 LINE"
);
}
);
width = 610;
}
);
unicode = 006D;
}
{
glyphname = n;
layers = (
{
anchors = (
{
name = bottom;
position = "{325, 0}";
},
{
name = center;
position = "{140, 250}";
},
{
name = top;
position = "{324, 300}";
}
);
associatedMasterId = "B33A6296-7F33-4AA4-95A6-15EAB02AACC1";
background = {
paths = (
{
closed = 1;
nodes = (
"462 -10 OFFCURVE",
"526 116 OFFCURVE",
"526 250 CURVE SMOOTH",
"526 384 OFFCURVE",
"462 510 OFFCURVE",
"305 510 CURVE SMOOTH",
"148 510 OFFCURVE",
"84 384 OFFCURVE",
"84 250 CURVE SMOOTH",
"84 116 OFFCURVE",
"148 -10 OFFCURVE",
"305 -10 CURVE SMOOTH"
);
},
{
closed = 1;
nodes = (
"215 65 OFFCURVE",
"167 130 OFFCURVE",
"167 250 CURVE SMOOTH",
"167 370 OFFCURVE",
"215 435 OFFCURVE",
"305 435 CURVE SMOOTH",
"395 435 OFFCURVE",
"443 370 OFFCURVE",
"443 250 CURVE SMOOTH",
"443 130 OFFCURVE",
"395 65 OFFCURVE",
"305 65 CURVE SMOOTH"
);
}
);
};
hints = (
{
horizontal = 1;
place = "{82.445, 0}";
type = Stem;
}
);
layerId = "08497D1A-F48A-4F5D-9491-F864E2DD2A29";
name = "1";
paths = (
{
closed = 1;
nodes = (
"82 0 LINE",
"165 0 LINE"
);
},
{
closed = 1;
nodes = (
"82 0 LINE",
"165 0 LINE",
"165 363 LINE",
"168 407 LINE",
"146 500 LINE",
"82 500 LINE"
);
},
{
closed = 1;
nodes = (
"526 0 LINE",
"526 266 LINE SMOOTH",
"526 439 OFFCURVE",
"426 510 OFFCURVE",
"316 510 CURVE SMOOTH",
"186 510 OFFCURVE",
"124 413 OFFCURVE",
"124 255 CURVE",
"165 255 LINE",
"165 325 OFFCURVE",
"184 435 OFFCURVE",
"314 435 CURVE SMOOTH",
"367 435 OFFCURVE",
"443 410 OFFCURVE",
"443 266 CURVE SMOOTH",
"443 0 LINE"
);
}
);
width = 610;
},
{
anchors = (
{
name = bottom;
position = "{325, 0}";
},
{
name = center;
position = "{140, 250}";
},
{
name = top;
position = "{324, 300}";
}
);
associatedMasterId = "B33A6296-7F33-4AA4-95A6-15EAB02AACC1";
background = {
paths = (
{
closed = 1;
nodes = (
"462 -10 OFFCURVE",
"526 116 OFFCURVE",
"526 250 CURVE SMOOTH",
"526 384 OFFCURVE",
"462 510 OFFCURVE",
"305 510 CURVE SMOOTH",
"148 510 OFFCURVE",
"84 384 OFFCURVE",
"84 250 CURVE SMOOTH",
"84 116 OFFCURVE",
"148 -10 OFFCURVE",
"305 -10 CURVE SMOOTH"
);
},
{
closed = 1;
nodes = (
"215 65 OFFCURVE",
"167 130 OFFCURVE",
"167 250 CURVE SMOOTH",
"167 370 OFFCURVE",
"215 435 OFFCURVE",
"305 435 CURVE SMOOTH",
"395 435 OFFCURVE",
"443 370 OFFCURVE",
"443 250 CURVE SMOOTH",
"443 130 OFFCURVE",
"395 65 OFFCURVE",
"305 65 CURVE SMOOTH"
);
}
);
};
hints = (
{
horizontal = 1;
place = "{82.445, 0}";
type = Stem;
}
);
layerId = "1821254F-8E19-4B77-9FE3-8F9408ACD338";
name = "2";
paths = (
{
closed = 1;
nodes = (
"101 0 LINE",
"184 0 LINE"
);
},
{
closed = 1;
nodes = (
"101 0 LINE",
"184 0 LINE",
"184 363 LINE",
"187 407 LINE",
"165 500 LINE",
"101 500 LINE"
);
},
{
closed = 1;
nodes = (
"522 0 LINE",
"522 266 LINE SMOOTH",
"522 442 OFFCURVE",
"443 510 OFFCURVE",
"329 510 CURVE SMOOTH",
"199 510 OFFCURVE",
"143 413 OFFCURVE",
"143 255 CURVE",
"184 255 LINE",
"184 325 OFFCURVE",
"197 435 OFFCURVE",
"327 435 CURVE SMOOTH",
"384 435 OFFCURVE",
"439 410 OFFCURVE",
"439 266 CURVE SMOOTH",
"439 0 LINE"
);
}
);
width = 610;
},
{
anchors = (
{
name = bottom;
position = "{325, 0}";
},
{
name = center;
position = "{140, 250}";
},
{
name = top;
position = "{324, 300}";
}
);
associatedMasterId = "B33A6296-7F33-4AA4-95A6-15EAB02AACC1";
background = {
paths = (
{
closed = 1;
nodes = (
"439 -10 OFFCURVE",
"503 116 OFFCURVE",
"503 250 CURVE SMOOTH",
"503 384 OFFCURVE",
"439 510 OFFCURVE",
"282 510 CURVE SMOOTH",
"125 510 OFFCURVE",
"61 384 OFFCURVE",
"61 250 CURVE SMOOTH",
"61 116 OFFCURVE",
"125 -10 OFFCURVE",
"282 -10 CURVE SMOOTH"
);
},
{
closed = 1;
nodes = (
"192 65 OFFCURVE",
"144 130 OFFCURVE",
"144 250 CURVE SMOOTH",
"144 370 OFFCURVE",
"192 435 OFFCURVE",
"282 435 CURVE SMOOTH",
"372 435 OFFCURVE",
"420 370 OFFCURVE",
"420 250 CURVE SMOOTH",
"420 130 OFFCURVE",
"372 65 OFFCURVE",
"282 65 CURVE SMOOTH"
);
}
);
};
hints = (
{
horizontal = 1;
place = "{82.445, 0}";
type = Stem;
}
);
layerId = "F31AA309-0365-4E4C-A1EA-7D227EECC570";
name = "3";
paths = (
{
closed = 1;
nodes = (
"103 0 LINE",
"186 0 LINE"
);
},
{
closed = 1;
nodes = (
"103 0 LINE",
"186 0 LINE",
"186 363 LINE",
"189 407 LINE",
"167 500 LINE",
"103 500 LINE"
);
},
{
closed = 1;
nodes = (
"504 0 LINE",
"504 266 LINE SMOOTH",
"504 412 OFFCURVE",
"443 510 OFFCURVE",
"313 510 CURVE SMOOTH",
"216 510 OFFCURVE",
"145 449 OFFCURVE",
"145 255 CURVE",
"186 255 LINE",
"186 363 OFFCURVE",
"226 435 OFFCURVE",
"311 435 CURVE SMOOTH",
"377 435 OFFCURVE",
"421 381 OFFCURVE",
"421 266 CURVE SMOOTH",
"421 0 LINE"
);
}
);
width = 610;
},
{
anchors = (
{
name = bottom;
position = "{325, 0}";
},
{
name = center;
position = "{140, 250}";
},
{
name = top;
position = "{324, 300}";
}
);
associatedMasterId = "B33A6296-7F33-4AA4-95A6-15EAB02AACC1";
background = {
components = (
{
name = a;
transform = "{-1, 0, 0, -1, 584, 500}";
}
);
};
hints = (
{
horizontal = 1;
place = "{82.445, 0}";
type = Stem;
}
);
layerId = "964CD981-A2AC-49B5-8F6C-60A0F5434447";
name = "4";
paths = (
{
closed = 1;
nodes = (
"104 0 LINE",
"187 0 LINE"
);
},
{
closed = 1;
nodes = (
"104 0 LINE",
"187 0 LINE",
"187 363 LINE",
"190 407 LINE",
"155 500 LINE",
"104 500 LINE"
);
},
{
closed = 1;
nodes = (
"504 0 LINE",
"504 266 LINE SMOOTH",
"504 420 OFFCURVE",
"445 510 OFFCURVE",
"315 510 CURVE SMOOTH",
"217 510 OFFCURVE",
"146 449 OFFCURVE",
"146 255 CURVE",
"187 255 LINE",
"187 363 OFFCURVE",
"227 435 OFFCURVE",
"313 435 CURVE SMOOTH",
"381 435 OFFCURVE",
"421 387 OFFCURVE",
"421 266 CURVE SMOOTH",
"421 0 LINE"
);
}
);
width = 610;
},
{
anchors = (
{
name = bottom;
position = "{308, 0}";
},
{
name = center;
position = "{140, 250}";
},
{
name = top;
position = "{324, 300}";
}
);
associatedMasterId = "B33A6296-7F33-4AA4-95A6-15EAB02AACC1";
background = {
components = (
{
name = a;
transform = "{1, 0, 0, 1, 17, 0}";
}
);
};
hints = (
{
horizontal = 1;
place = "{82.445, 0}";
type = Stem;
}
);
layerId = "2F86C10E-EEE0-4377-A750-39D190DF3478";
name = "5";
paths = (
{
closed = 1;
nodes = (
"105 0 LINE",
"184 0 LINE"
);
},
{
closed = 1;
nodes = (
"105 0 LINE",
"184 0 LINE",
"185 363 LINE",
"191 444 LINE",
"156 500 LINE",
"105 500 LINE"
);
},
{
closed = 1;
nodes = (
"505 0 LINE",
"505 256 LINE SMOOTH",
"505 413 OFFCURVE",
"471 510 OFFCURVE",
"317 510 CURVE SMOOTH",
"221 510 OFFCURVE",
"144 447 OFFCURVE",
"144 255 CURVE",
"185 255 LINE",
"185 363 OFFCURVE",
"200 435 OFFCURVE",
"315 435 CURVE SMOOTH",
"407 435 OFFCURVE",
"422 376 OFFCURVE",
"422 256 CURVE SMOOTH",
"422 0 LINE"
);
}
);
width = 610;
},
{
anchors = (
{
name = bottom;
position = "{308, 0}";
},
{
name = center;
position = "{140, 250}";
},
{
name = top;
position = "{324, 300}";
}
);
associatedMasterId = "B33A6296-7F33-4AA4-95A6-15EAB02AACC1";
background = {
components = (
{
name = a;
transform = "{1, 0, 0, 1, 25, 0}";
}
);
};
hints = (
{
horizontal = 1;
place = "{82.445, 0}";
type = Stem;
}
);
layerId = "E0DB14A7-2FF2-4EBB-8016-1E88B43BAF88";
name = "7";
paths = (
{
closed = 1;
nodes = (
"105 0 LINE",
"184 0 LINE"
);
},
{
closed = 1;
nodes = (
"105 0 LINE",
"184 0 LINE",
"185 394 LINE",
"179 395 LINE",
"178 500 LINE",
"105 500 LINE"
);
},
{
closed = 1;
nodes = (
"505 0 LINE",
"505 336 LINE SMOOTH",
"505 402 OFFCURVE",
"478 510 OFFCURVE",
"324 510 CURVE SMOOTH",
"221 510 OFFCURVE",
"144 435 OFFCURVE",
"144 243 CURVE",
"185 243 LINE",
"185 311 OFFCURVE",
"196 435 OFFCURVE",
"328 435 CURVE SMOOTH",
"399 435 OFFCURVE",
"422 391 OFFCURVE",
"422 316 CURVE SMOOTH",
"422 0 LINE"
);
}
);
width = 610;
},
{
anchors = (
{
name = bottom;
position = "{308, 0}";
},
{
name = center;
position = "{140, 250}";
},
{
name = top;
position = "{324, 300}";
}
);
associatedMasterId = "B33A6296-7F33-4AA4-95A6-15EAB02AACC1";
background = {
components = (
{
name = a;
transform = "{1, 0, 0, 1, 25, 0}";
}
);
};
hints = (
{
horizontal = 1;
place = "{82.445, 0}";
type = Stem;
}
);
layerId = "7BC0BF13-95D6-4DBD-8A49-4592908086B7";
name = "8";
paths = (
{
closed = 1;
nodes = (
"105 0 LINE",
"184 0 LINE"
);
},
{
closed = 1;
nodes = (
"105 0 LINE",
"184 0 LINE",
"185 394 LINE",
"193 441 LINE",
"156 500 LINE",
"105 500 LINE"
);
},
{
closed = 1;
nodes = (
"505 0 LINE",
"505 336 LINE SMOOTH",
"505 402 OFFCURVE",
"478 510 OFFCURVE",
"324 510 CURVE SMOOTH",
"221 510 OFFCURVE",
"144 435 OFFCURVE",
"144 243 CURVE",
"185 243 LINE",
"185 311 OFFCURVE",
"196 435 OFFCURVE",
"328 435 CURVE SMOOTH",
"399 435 OFFCURVE",
"422 391 OFFCURVE",
"422 316 CURVE SMOOTH",
"422 0 LINE"
);
}
);
width = 610;
},
{
anchors = (
{
name = bottom;
position = "{308, 0}";
},
{
name = center;
position = "{140, 250}";
},
{
name = top;
position = "{324, 300}";
}
);
associatedMasterId = "B33A6296-7F33-4AA4-95A6-15EAB02AACC1";
background = {
components = (
{
name = a;
transform = "{1, 0, 0, 1, 25, 0}";
}
);
};
components = (
{
name = DotWide;
transform = "{1, 0, 0, 1, 180, 24}";
}
);
hints = (
{
horizontal = 1;
place = "{82.445, 0}";
type = Stem;
}
);
layerId = "D8B8DD69-6DB1-42E3-8B60-A21D79D0014D";
name = "8_1";
paths = (
{
closed = 1;
nodes = (
"105 0 LINE",
"184 0 LINE"
);
},
{
closed = 1;
nodes = (
"105 0 LINE",
"184 0 LINE",
"185 394 LINE",
"193 441 LINE",
"156 500 LINE",
"105 500 LINE"
);
},
{
closed = 1;
nodes = (
"505 0 LINE",
"506 312 LINE SMOOTH",
"506 378 OFFCURVE",
"485 510 OFFCURVE",
"312 510 CURVE SMOOTH",
"218 510 OFFCURVE",
"144 435 OFFCURVE",
"144 243 CURVE",
"185 243 LINE",
"185 311 OFFCURVE",
"193 435 OFFCURVE",
"312 435 CURVE SMOOTH",
"406 435 OFFCURVE",
"423 371 OFFCURVE",
"423 316 CURVE SMOOTH",
"423 294 LINE",
"422 0 LINE"
);
}
);
width = 610;
},
{
anchors = (
{
name = bottom;
position = "{308, 0}";
},
{
name = center;
position = "{140, 250}";
},
{
name = top;
position = "{324, 300}";
}
);
associatedMasterId = "B33A6296-7F33-4AA4-95A6-15EAB02AACC1";
background = {
components = (
{
name = a;
transform = "{1, 0, 0, 1, 25, 0}";
}
);
};
components = (
{
name = DotWide;
transform = "{1, 0, 0, 1, 180, 24}";
}
);
guideLines = (
{
angle = 90;
position = "{324, 510}";
}
);
hints = (
{
horizontal = 1;
place = "{82.445, 0}";
type = Stem;
}
);
layerId = "29D3F6B1-5BE0-44C2-88BB-5D9E66C8DB1B";
name = "8_2";
paths = (
{
closed = 1;
nodes = (
"105 0 LINE",
"184 0 LINE"
);
},
{
closed = 1;
nodes = (
"105 0 LINE",
"184 0 LINE",
"185 394 LINE",
"193 441 LINE",
"156 500 LINE",
"105 500 LINE"
);
},
{
closed = 1;
nodes = (
"505 0 LINE",
"506 312 LINE SMOOTH",
"506 378 OFFCURVE",
"497 510 OFFCURVE",
"324 510 CURVE SMOOTH",
"230 510 OFFCURVE",
"144 435 OFFCURVE",
"144 243 CURVE",
"185 243 LINE",
"185 311 OFFCURVE",
"193 435 OFFCURVE",
"312 435 CURVE SMOOTH",
"406 435 OFFCURVE",
"423 371 OFFCURVE",
"423 316 CURVE SMOOTH",
"423 294 LINE",
"422 0 LINE"
);
}
);
width = 610;
},
{
anchors = (
{
name = bottom;
position = "{308, 0}";
},
{
name = center;
position = "{140, 250}";
},
{
name = top;
position = "{324, 300}";
}
);
associatedMasterId = "B33A6296-7F33-4AA4-95A6-15EAB02AACC1";
background = {
components = (
{
name = a;
transform = "{1, 0, 0, 1, 25, 0}";
}
);
};
guideLines = (
{
angle = 90;
position = "{324, 510}";
}
);
hints = (
{
horizontal = 1;
place = "{82.445, 0}";
type = Stem;
}
);
layerId = "5D123C29-908C-4840-ADF0-44A4FFC1CB35";
name = "Regular Dec 19 16, 23:32";
paths = (
{
closed = 1;
nodes = (
"105 0 LINE",
"184 0 LINE"
);
},
{
closed = 1;
nodes = (
"105 0 LINE",
"184 0 LINE",
"185 394 LINE",
"193 441 LINE",
"156 500 LINE",
"105 500 LINE"
);
},
{
closed = 1;
nodes = (
"505 0 LINE",
"506 316 LINE SMOOTH",
"506 382 OFFCURVE",
"477 510 OFFCURVE",
"324 510 CURVE SMOOTH",
"230 510 OFFCURVE",
"144 435 OFFCURVE",
"144 243 CURVE",
"185 243 LINE",
"185 311 OFFCURVE",
"193 435 OFFCURVE",
"312 435 CURVE SMOOTH",
"406 435 OFFCURVE",
"423 371 OFFCURVE",
"423 316 CURVE SMOOTH",
"423 294 LINE",
"422 0 LINE"
);
}
);
width = 610;
},
{
anchors = (
{
name = bottom;
position = "{308, 0}";
},
{
name = center;
position = "{140, 250}";
},
{
name = top;
position = "{324, 580}";
}
);
guideLines = (
{
angle = 90;
position = "{324, 510}";
}
);
layerId = "B33A6296-7F33-4AA4-95A6-15EAB02AACC1";
paths = (
{
closed = 1;
nodes = (
"104 0 LINE",
"187 0 LINE"
);
},
{
closed = 1;
nodes = (
"104 0 LINE",
"187 0 LINE",
"185 364 LINE",
"193 411 LINE",
"156 470 LINE",
"104 470 LINE"
);
},
{
closed = 1;
nodes = (
"505 0 LINE",
"506 286 LINE SMOOTH",
"506 401 OFFCURVE",
"436 480 OFFCURVE",
"330 480 CURVE SMOOTH",
"227 480 OFFCURVE",
"144 405 OFFCURVE",
"144 213 CURVE",
"186 213 LINE",
"186 285 OFFCURVE",
"193 405 OFFCURVE",
"315 405 CURVE SMOOTH",
"423 405 OFFCURVE",
"423 312 OFFCURVE",
"423 286 CURVE SMOOTH",
"423 264 LINE",
"422 0 LINE"
);
}
);
width = 610;
},
{
anchors = (
{
name = bottom;
position = "{308, 0}";
},
{
name = center;
position = "{140, 250}";
},
{
name = top;
position = "{324, 580}";
}
);
associatedMasterId = "B33A6296-7F33-4AA4-95A6-15EAB02AACC1";
guideLines = (
{
angle = 90;
position = "{324, 510}";
}
);
hints = (
{
horizontal = 1;
place = "{82.445, 0}";
type = Stem;
}
);
layerId = "36571CDB-21F7-40F9-8A51-A00BC00D8B06";
name = "9";
paths = (
{
closed = 1;
nodes = (
"105 0 LINE",
"185 0 LINE"
);
},
{
closed = 1;
nodes = (
"105 0 LINE",
"185 0 LINE",
"185 364 LINE",
"193 411 LINE",
"156 470 LINE",
"105 470 LINE"
);
},
{
closed = 1;
nodes = (
"505 0 LINE",
"506 286 LINE SMOOTH",
"506 352 OFFCURVE",
"477 480 OFFCURVE",
"324 480 CURVE SMOOTH",
"230 480 OFFCURVE",
"144 405 OFFCURVE",
"144 213 CURVE",
"185 213 LINE",
"185 281 OFFCURVE",
"193 405 OFFCURVE",
"312 405 CURVE SMOOTH",
"407 405 OFFCURVE",
"423 341 OFFCURVE",
"423 286 CURVE SMOOTH",
"423 264 LINE",
"422 0 LINE"
);
}
);
width = 610;
}
);
unicode = 006E;
}
{
glyphname = o;
layers = (
{
anchors = (
{
name = bottom;
position = "{310, 0}";
},
{
name = center;
position = "{305, 250}";
},
{
name = ogonek;
position = "{308, 9}";
},
{
name = top;
position = "{305, 580}";
},
{
name = topright;
position = "{600, 500}";
}
);
layerId = "B33A6296-7F33-4AA4-95A6-15EAB02AACC1";
paths = (
{
closed = 1;
nodes = (
"147 480 OFFCURVE",
"82 355 OFFCURVE",
"82 230 CURVE SMOOTH",
"82 115 OFFCURVE",
"147 -10 OFFCURVE",
"305 -10 CURVE SMOOTH",
"463 -10 OFFCURVE",
"528 115 OFFCURVE",
"528 230 CURVE SMOOTH",
"528 355 OFFCURVE",
"463 480 OFFCURVE",
"305 480 CURVE SMOOTH"
);
},
{
closed = 1;
nodes = (
"395 405 OFFCURVE",
"445 340 OFFCURVE",
"445 230 CURVE SMOOTH",
"445 130 OFFCURVE",
"395 65 OFFCURVE",
"305 65 CURVE SMOOTH",
"215 65 OFFCURVE",
"165 130 OFFCURVE",
"165 230 CURVE SMOOTH",
"165 340 OFFCURVE",
"215 405 OFFCURVE",
"305 405 CURVE SMOOTH"
);
}
);
width = 610;
},
{
anchors = (
{
name = bottom;
position = "{310, 0}";
},
{
name = center;
position = "{305, 250}";
},
{
name = ogonek;
position = "{382, 10}";
},
{
name = top;
position = "{305, 300}";
},
{
name = topright;
position = "{600, 500}";
}
);
associatedMasterId = "B33A6296-7F33-4AA4-95A6-15EAB02AACC1";
layerId = "F97499D1-AD16-442E-B10D-7B5D88FFBF2A";
name = "1";
paths = (
{
closed = 1;
nodes = (
"462 -10 OFFCURVE",
"526 116 OFFCURVE",
"526 250 CURVE SMOOTH",
"526 384 OFFCURVE",
"462 510 OFFCURVE",
"305 510 CURVE SMOOTH",
"148 510 OFFCURVE",
"84 384 OFFCURVE",
"84 250 CURVE SMOOTH",
"84 116 OFFCURVE",
"148 -10 OFFCURVE",
"305 -10 CURVE SMOOTH"
);
},
{
closed = 1;
nodes = (
"215 65 OFFCURVE",
"167 130 OFFCURVE",
"167 250 CURVE SMOOTH",
"167 370 OFFCURVE",
"215 435 OFFCURVE",
"305 435 CURVE SMOOTH",
"395 435 OFFCURVE",
"443 370 OFFCURVE",
"443 250 CURVE SMOOTH",
"443 130 OFFCURVE",
"395 65 OFFCURVE",
"305 65 CURVE SMOOTH"
);
}
);
width = 610;
}
);
unicode = 006F;
}
{
glyphname = bar;
layers = (
{
layerId = "B33A6296-7F33-4AA4-95A6-15EAB02AACC1";
paths = (
{
closed = 1;
nodes = (
"262 -200 LINE",
"347 -200 LINE",
"347 700 LINE",
"262 700 LINE"
);
}
);
width = 610;
}
);
unicode = 007C;
}
{
glyphname = braceright;
layers = (
{
guideLines = (
{
position = "{229, -164}";
}
);
layerId = "B33A6296-7F33-4AA4-95A6-15EAB02AACC1";
paths = (
{
closed = 1;
nodes = (
"439 297 LINE",
"438 313 LINE",
"409 344 OFFCURVE",
"376 363 OFFCURVE",
"376 447 CURVE SMOOTH",
"376 536 LINE SMOOTH",
"376 659 OFFCURVE",
"313 732 OFFCURVE",
"229 757 CURVE",
"200 686 LINE",
"264 662 OFFCURVE",
"291 622 OFFCURVE",
"291 521 CURVE SMOOTH",
"291 447 LINE SMOOTH",
"291 370 OFFCURVE",
"332 315 OFFCURVE",
"371 278 CURVE",
"371 316 LINE",
"332 279 OFFCURVE",
"291 224 OFFCURVE",
"291 147 CURVE SMOOTH",
"291 73 LINE SMOOTH",
"291 -28 OFFCURVE",
"264 -68 OFFCURVE",
"200 -92 CURVE",
"229 -163 LINE",
"313 -138 OFFCURVE",
"376 -65 OFFCURVE",
"376 58 CURVE SMOOTH",
"376 147 LINE SMOOTH",
"376 231 OFFCURVE",
"409 250 OFFCURVE",
"438 281 CURVE"
);
}
);
width = 610;
},
{
associatedMasterId = "B33A6296-7F33-4AA4-95A6-15EAB02AACC1";
guideLines = (
{
position = "{229, -164}";
}
);
layerId = "1B2777A5-9CC4-4603-935C-1933225A3ACC";
name = "Oct 12 17, 20:02";
paths = (
{
closed = 1;
nodes = (
"375 536 LINE SMOOTH",
"375 650 OFFCURVE",
"285 721 OFFCURVE",
"229 757 CURVE",
"178 700 LINE",
"228 661 OFFCURVE",
"292 622 OFFCURVE",
"292 536 CURVE SMOOTH",
"292 447 LINE SMOOTH",
"292 368 OFFCURVE",
"325 327 OFFCURVE",
"353 297 CURVE",
"325 266 OFFCURVE",
"292 225 OFFCURVE",
"292 146 CURVE SMOOTH",
"292 57 LINE SMOOTH",
"292 -29 OFFCURVE",
"228 -68 OFFCURVE",
"178 -107 CURVE",
"229 -164 LINE",
"285 -128 OFFCURVE",
"375 -57 OFFCURVE",
"375 57 CURVE SMOOTH",
"375 146 LINE SMOOTH",
"375 230 OFFCURVE",
"409 252 OFFCURVE",
"438 283 CURVE",
"438 310 LINE",
"409 341 OFFCURVE",
"375 363 OFFCURVE",
"375 447 CURVE SMOOTH"
);
}
);
width = 610;
}
);
unicode = 007D;
}
{
glyphname = z;
layers = (
{
anchors = (
{
name = bottom;
position = "{305, 0}";
},
{
name = top;
position = "{305, 580}";
}
);
guideLines = (
{
angle = 270;
position = "{94, 219}";
},
{
angle = 270;
position = "{499, 518}";
}
);
layerId = "B33A6296-7F33-4AA4-95A6-15EAB02AACC1";
paths = (
{
closed = 1;
nodes = (
"507 421 LINE",
"507 470 LINE",
"112 470 LINE",
"112 395 LINE",
"441 397 LINE",
"451 466 LINE",
"102 49 LINE",
"102 0 LINE",
"514 0 LINE",
"514 75 LINE",
"167 73 LINE",
"162 9 LINE"
);
}
);
width = 610;
},
{
anchors = (
{
name = bottom;
position = "{305, 0}";
},
{
name = top;
position = "{305, 300}";
}
);
associatedMasterId = "B33A6296-7F33-4AA4-95A6-15EAB02AACC1";
background = {
components = (
{
name = n;
transform = "{0, -1, 1, 0, -1, 601}";
}
);
};
components = (
{
name = DotWide;
transform = "{1, 0, 0, 1, 171, 81}";
},
{
name = DotWide;
transform = "{1, 0, 0, 1, -138, -300}";
}
);
layerId = "F8A34910-1E99-49E3-B5CD-3AE827A733AD";
name = "2";
paths = (
{
closed = 1;
nodes = (
"499 436 LINE",
"499 500 LINE",
"114 500 LINE",
"114 425 LINE",
"433 425 LINE",
"435 484 LINE",
"94 63 LINE",
"94 0 LINE",
"516 0 LINE",
"516 75 LINE",
"175 75 LINE",
"162 20 LINE"
);
}
);
width = 610;
},
{
anchors = (
{
name = bottom;
position = "{305, 0}";
},
{
name = top;
position = "{305, 300}";
}
);
associatedMasterId = "B33A6296-7F33-4AA4-95A6-15EAB02AACC1";
layerId = "9967D62A-BA81-4B7D-A722-6A7036FAA80C";
name = "3";
paths = (
{
closed = 1;
nodes = (
"499 445 LINE",
"500 500 LINE",
"114 500 LINE",
"114 425 LINE",
"433 425 LINE",
"416 460 LINE",
"94 48 LINE",
"94 0 LINE",
"516 0 LINE",
"516 75 LINE",
"159 75 LINE",
"176 40 LINE"
);
}
);
width = 610;
}
);
unicode = 007A;
}
{
glyphname = Eng;
layers = (
{
anchors = (
{
name = bottom;
position = "{497, 0}";
}
);
components = (
{
name = N;
}
);
layerId = "B33A6296-7F33-4AA4-95A6-15EAB02AACC1";
paths = (
{
closed = 1;
nodes = (
"318 -209 LINE",
"438 -213 OFFCURVE",
"536 -149 OFFCURVE",
"536 -17 CURVE SMOOTH",
"536 26 LINE",
"454 26 LINE",
"454 -100 OFFCURVE",
"417 -138 OFFCURVE",
"315 -134 CURVE"
);
}
);
width = 610;
}
);
unicode = 014A;
}
{
glyphname = eng;
layers = (
{
anchors = (
{
name = bottom;
position = "{356, 0}";
},
{
name = top;
position = "{356, 500}";
}
);
components = (
{
name = n;
}
);
layerId = "B33A6296-7F33-4AA4-95A6-15EAB02AACC1";
paths = (
{
closed = 1;
nodes = (
"286 -209 LINE",
"406 -213 OFFCURVE",
"505 -149 OFFCURVE",
"505 -16 CURVE SMOOTH",
"505 26 LINE",
"422 26 LINE SMOOTH",
"422 -100 OFFCURVE",
"385 -138 OFFCURVE",
"283 -134 CURVE"
);
},
{
closed = 0;
nodes = (
"253 -233 LINE"
);
}
);
width = 610;
}
);
unicode = 014B;
}
{
glyphname = euro;
layers = (
{
layerId = "B33A6296-7F33-4AA4-95A6-15EAB02AACC1";
paths = (
{
closed = 1;
nodes = (
"95 461 LINE",
"65 384 LINE",
"385 384 LINE",
"415 461 LINE"
);
},
{
closed = 1;
nodes = (
"105 311 LINE",
"75 234 LINE",
"395 234 LINE",
"425 311 LINE"
);
},
{
closed = 1;
nodes = (
"252 69 OFFCURVE",
"203 158 OFFCURVE",
"203 351 CURVE SMOOTH",
"203 544 OFFCURVE",
"252 633 OFFCURVE",
"373 633 CURVE SMOOTH",
"434 633 OFFCURVE",
"458 608 OFFCURVE",
"482 576 CURVE",
"545 628 LINE",
"511 670 OFFCURVE",
"468 710 OFFCURVE",
"373 710 CURVE SMOOTH",
"184 710 OFFCURVE",
"119 562 OFFCURVE",
"119 351 CURVE SMOOTH",
"119 140 OFFCURVE",
"184 -8 OFFCURVE",
"373 -8 CURVE SMOOTH",
"468 -8 OFFCURVE",
"511 32 OFFCURVE",
"545 74 CURVE",
"482 126 LINE",
"458 94 OFFCURVE",
"434 69 OFFCURVE",
"373 69 CURVE SMOOTH"
);
}
);
width = 610;
}
);
unicode = 20AC;
}
{
glyphname = exclam;
layers = (
{
layerId = "B33A6296-7F33-4AA4-95A6-15EAB02AACC1";
paths = (
{
closed = 1;
nodes = (
"336 148 LINE",
"342 710 LINE",
"257 710 LINE",
"263 148 LINE"
);
},
{
closed = 1;
nodes = (
"258 -10 LINE",
"341 -10 LINE",
"341 73 LINE",
"258 73 LINE"
);
}
);
width = 610;
}
);
unicode = 0021;
}
{
glyphname = numbersign;
layers = (
{
layerId = "B33A6296-7F33-4AA4-95A6-15EAB02AACC1";
paths = (
{
closed = 1;
nodes = (
"97 0 LINE",
"183 0 LINE",
"303 640 LINE",
"217 640 LINE"
);
},
{
closed = 1;
nodes = (
"327 0 LINE",
"413 0 LINE",
"533 640 LINE",
"447 640 LINE"
);
},
{
closed = 1;
nodes = (
"81 382 LINE",
"568 382 LINE",
"568 459 LINE",
"81 459 LINE"
);
},
{
closed = 1;
nodes = (
"49 171 LINE",
"536 171 LINE",
"536 248 LINE",
"49 248 LINE"
);
}
);
width = 610;
}
);
unicode = 0023;
}
{
glyphname = dollar;
layers = (
{
components = (
{
name = S;
}
);
layerId = "B33A6296-7F33-4AA4-95A6-15EAB02AACC1";
paths = (
{
closed = 1;
nodes = (
"273 -90 LINE",
"356 -90 LINE",
"353 800 LINE",
"271 800 LINE"
);
}
);
width = 610;
}
);
unicode = 0024;
}
{
glyphname = lozenge;
layers = (
{
layerId = "B33A6296-7F33-4AA4-95A6-15EAB02AACC1";
paths = (
{
closed = 1;
nodes = (
"327 700 LINE",
"272 700 LINE",
"83 363 LINE",
"83 335 LINE",
"272 0 LINE",
"327 0 LINE",
"516 335 LINE",
"516 363 LINE"
);
},
{
closed = 1;
nodes = (
"278 70 LINE",
"322 70 LINE",
"138 388 LINE",
"138 310 LINE",
"322 630 LINE",
"278 630 LINE",
"461 310 LINE",
"461 388 LINE"
);
}
);
width = 610;
}
);
unicode = 25CA;
}
{
glyphname = percent;
layers = (
{
components = (
{
name = fraction;
transform = "{1, 0, 0, 1, 0, 10}";
}
);
layerId = "B33A6296-7F33-4AA4-95A6-15EAB02AACC1";
paths = (
{
closed = 1;
nodes = (
"251 444 OFFCURVE",
"311 504 OFFCURVE",
"311 577 CURVE SMOOTH",
"311 650 OFFCURVE",
"251 710 OFFCURVE",
"178 710 CURVE SMOOTH",
"105 710 OFFCURVE",
"45 650 OFFCURVE",
"45 577 CURVE SMOOTH",
"45 504 OFFCURVE",
"105 444 OFFCURVE",
"178 444 CURVE SMOOTH"
);
},
{
closed = 1;
nodes = (
"150 518 OFFCURVE",
"128 544 OFFCURVE",
"128 576 CURVE SMOOTH",
"128 608 OFFCURVE",
"150 634 OFFCURVE",
"178 634 CURVE SMOOTH",
"206 634 OFFCURVE",
"228 608 OFFCURVE",
"228 576 CURVE SMOOTH",
"228 544 OFFCURVE",
"206 518 OFFCURVE",
"178 518 CURVE SMOOTH"
);
},
{
closed = 1;
nodes = (
"485 -10 OFFCURVE",
"545 50 OFFCURVE",
"545 123 CURVE SMOOTH",
"545 196 OFFCURVE",
"485 256 OFFCURVE",
"412 256 CURVE SMOOTH",
"339 256 OFFCURVE",
"279 196 OFFCURVE",
"279 123 CURVE SMOOTH",
"279 50 OFFCURVE",
"339 -10 OFFCURVE",
"412 -10 CURVE SMOOTH"
);
},
{
closed = 1;
nodes = (
"384 65 OFFCURVE",
"362 91 OFFCURVE",
"362 123 CURVE SMOOTH",
"362 155 OFFCURVE",
"384 181 OFFCURVE",
"412 181 CURVE SMOOTH",
"440 181 OFFCURVE",
"462 155 OFFCURVE",
"462 123 CURVE SMOOTH",
"462 91 OFFCURVE",
"440 65 OFFCURVE",
"412 65 CURVE SMOOTH"
);
}
);
width = 610;
}
);
unicode = 0025;
}
{
glyphname = ampersand;
layers = (
{
background = {
components = (
{
name = S;
transform = "{-1, 0, 0, 1, 596, 0}";
}
);
};
layerId = "B33A6296-7F33-4AA4-95A6-15EAB02AACC1";
paths = (
{
closed = 1;
nodes = (
"448 177 OFFCURVE",
"385 67 OFFCURVE",
"261 67 CURVE SMOOTH",
"192 67 OFFCURVE",
"129 101 OFFCURVE",
"129 190 CURVE SMOOTH",
"129 271 OFFCURVE",
"192 293 OFFCURVE",
"275 348 CURVE SMOOTH",
"366 408 OFFCURVE",
"430 462 OFFCURVE",
"430 558 CURVE SMOOTH",
"430 623 OFFCURVE",
"395 710 OFFCURVE",
"272 710 CURVE SMOOTH",
"151 710 OFFCURVE",
"112 623 OFFCURVE",
"112 558 CURVE SMOOTH",
"112 468 OFFCURVE",
"180 401 OFFCURVE",
"204 370 CURVE SMOOTH",
"495 0 LINE",
"605 0 LINE",
"270 419 LINE SMOOTH",
"241 456 OFFCURVE",
"197 499 OFFCURVE",
"197 558 CURVE SMOOTH",
"197 603 OFFCURVE",
"218 633 OFFCURVE",
"271 633 CURVE SMOOTH",
"324 633 OFFCURVE",
"345 603 OFFCURVE",
"345 558 CURVE SMOOTH",
"345 493 OFFCURVE",
"291 452 OFFCURVE",
"215 404 CURVE SMOOTH",
"130 351 OFFCURVE",
"44 308 OFFCURVE",
"44 190 CURVE SMOOTH",
"44 72 OFFCURVE",
"128 -10 OFFCURVE",
"259 -10 CURVE SMOOTH",
"413 -10 OFFCURVE",
"503 90 OFFCURVE",
"545 234 CURVE",
"468 271 LINE"
);
}
);
width = 610;
},
{
associatedMasterId = "B33A6296-7F33-4AA4-95A6-15EAB02AACC1";
layerId = "70F5527C-59C6-4D9E-8A79-FD873AC2FE71";
name = "Regular Dec 20 17, 14:07";
paths = (
{
closed = 1;
nodes = (
"449 199 OFFCURVE",
"373 65 OFFCURVE",
"261 65 CURVE SMOOTH",
"184 65 OFFCURVE",
"129 100 OFFCURVE",
"129 177 CURVE SMOOTH",
"129 243 OFFCURVE",
"207 292 OFFCURVE",
"277 349 CURVE SMOOTH",
"353 411 OFFCURVE",
"423 465 OFFCURVE",
"423 554 CURVE SMOOTH",
"423 621 OFFCURVE",
"383 710 OFFCURVE",
"262 710 CURVE SMOOTH",
"139 710 OFFCURVE",
"98 625 OFFCURVE",
"98 554 CURVE SMOOTH",
"98 483 OFFCURVE",
"158 407 OFFCURVE",
"180 375 CURVE SMOOTH",
"442 0 LINE",
"542 0 LINE",
"246 421 LINE SMOOTH",
"218 461 OFFCURVE",
"181 503 OFFCURVE",
"181 554 CURVE SMOOTH",
"181 606 OFFCURVE",
"206 635 OFFCURVE",
"261 635 CURVE SMOOTH",
"312 635 OFFCURVE",
"340 604 OFFCURVE",
"340 554 CURVE SMOOTH",
"340 497 OFFCURVE",
"286 457 OFFCURVE",
"217 403 CURVE SMOOTH",
"139 342 OFFCURVE",
"46 276 OFFCURVE",
"46 177 CURVE SMOOTH",
"46 75 OFFCURVE",
"119 -10 OFFCURVE",
"261 -10 CURVE SMOOTH",
"402 -10 OFFCURVE",
"491 109 OFFCURVE",
"555 215 CURVE",
"487 258 LINE"
);
}
);
width = 610;
},
{
associatedMasterId = "B33A6296-7F33-4AA4-95A6-15EAB02AACC1";
background = {
components = (
{
name = S;
transform = "{-1, 0, 0, 1, 596, 0}";
}
);
};
layerId = "F5E99F68-0BD8-41A2-AE72-19B5DC459E43";
name = "Regular Dec 20 17, 22:28";
paths = (
{
closed = 1;
nodes = (
"452 178 OFFCURVE",
"385 65 OFFCURVE",
"261 65 CURVE SMOOTH",
"192 65 OFFCURVE",
"128 103 OFFCURVE",
"128 186 CURVE SMOOTH",
"128 283 OFFCURVE",
"188 295 OFFCURVE",
"275 349 CURVE SMOOTH",
"356 399 OFFCURVE",
"429 465 OFFCURVE",
"429 559 CURVE SMOOTH",
"429 621 OFFCURVE",
"395 710 OFFCURVE",
"272 710 CURVE SMOOTH",
"151 710 OFFCURVE",
"113 623 OFFCURVE",
"113 559 CURVE SMOOTH",
"113 480 OFFCURVE",
"179 403 OFFCURVE",
"203 373 CURVE SMOOTH",
"500 0 LINE",
"600 0 LINE",
"269 419 LINE SMOOTH",
"240 456 OFFCURVE",
"196 501 OFFCURVE",
"196 559 CURVE SMOOTH",
"196 604 OFFCURVE",
"218 635 OFFCURVE",
"271 635 CURVE SMOOTH",
"324 635 OFFCURVE",
"346 604 OFFCURVE",
"346 559 CURVE SMOOTH",
"346 495 OFFCURVE",
"291 447 OFFCURVE",
"215 403 CURVE SMOOTH",
"125 351 OFFCURVE",
"45 316 OFFCURVE",
"45 188 CURVE SMOOTH",
"45 72 OFFCURVE",
"116 -10 OFFCURVE",
"262 -10 CURVE SMOOTH",
"418 -10 OFFCURVE",
"506 92 OFFCURVE",
"532 237 CURVE",
"460 272 LINE"
);
}
);
width = 610;
}
);
unicode = 0026;
}
{
glyphname = quotesingle;
layers = (
{
layerId = "B33A6296-7F33-4AA4-95A6-15EAB02AACC1";
paths = (
{
closed = 1;
nodes = (
"263 530 LINE",
"336 530 LINE",
"342 700 LINE",
"257 700 LINE"
);
}
);
width = 610;
}
);
unicode = 0027;
}
{
glyphname = parenright;
layers = (
{
guideLines = (
{
position = "{229, -164}";
},
{
position = "{229, 757}";
}
);
layerId = "B33A6296-7F33-4AA4-95A6-15EAB02AACC1";
paths = (
{
closed = 1;
nodes = (
"349 -79 OFFCURVE",
"409 120 OFFCURVE",
"409 298 CURVE SMOOTH",
"409 476 OFFCURVE",
"349 675 OFFCURVE",
"271 771 CURVE",
"198 728 LINE",
"256 651 OFFCURVE",
"324 476 OFFCURVE",
"324 298 CURVE SMOOTH",
"324 120 OFFCURVE",
"256 -55 OFFCURVE",
"198 -132 CURVE",
"271 -175 LINE"
);
}
);
width = 610;
},
{
associatedMasterId = "B33A6296-7F33-4AA4-95A6-15EAB02AACC1";
guideLines = (
{
position = "{229, -164}";
},
{
position = "{229, 757}";
}
);
layerId = "F053CDF6-F444-412A-BB30-30A08099727F";
name = "Oct 12 17, 20:12";
paths = (
{
closed = 1;
nodes = (
"315 125 OFFCURVE",
"241 -70 OFFCURVE",
"201 -133 CURVE",
"269 -173 LINE",
"335 -80 OFFCURVE",
"398 125 OFFCURVE",
"398 303 CURVE",
"398 481 OFFCURVE",
"337 672 OFFCURVE",
"269 768 CURVE",
"201 728 LINE",
"241 665 OFFCURVE",
"315 481 OFFCURVE",
"315 303 CURVE"
);
}
);
width = 610;
}
);
unicode = 0029;
}
{
glyphname = zero;
layers = (
{
anchors = (
{
name = center;
position = "{305, 350}";
},
{
name = ogonek;
position = "{312, 10}";
},
{
name = top;
position = "{305, 800}";
},
{
name = topleft;
position = "{20, 700}";
},
{
name = topright;
position = "{590, 700}";
}
);
background = {
components = (
{
name = O;
}
);
};
layerId = "B33A6296-7F33-4AA4-95A6-15EAB02AACC1";
paths = (
{
closed = 1;
nodes = (
"120 710 OFFCURVE",
"60 529 OFFCURVE",
"60 350 CURVE SMOOTH",
"60 171 OFFCURVE",
"120 -10 OFFCURVE",
"305 -10 CURVE SMOOTH",
"490 -10 OFFCURVE",
"550 171 OFFCURVE",
"550 350 CURVE SMOOTH",
"550 529 OFFCURVE",
"490 710 OFFCURVE",
"305 710 CURVE SMOOTH"
);
},
{
closed = 1;
nodes = (
"193 67 OFFCURVE",
"145 188 OFFCURVE",
"145 350 CURVE SMOOTH",
"145 512 OFFCURVE",
"193 633 OFFCURVE",
"305 633 CURVE SMOOTH",
"417 633 OFFCURVE",
"465 512 OFFCURVE",
"465 350 CURVE SMOOTH",
"465 188 OFFCURVE",
"417 67 OFFCURVE",
"305 67 CURVE SMOOTH"
);
},
{
closed = 1;
nodes = (
"104 152 LINE",
"164 94 LINE",
"512 551 LINE",
"441 595 LINE"
);
}
);
width = 610;
},
{
associatedMasterId = "B33A6296-7F33-4AA4-95A6-15EAB02AACC1";
layerId = "434CE90C-D585-444E-9144-7D3556321465";
name = "Regular Feb 25 17, 18:43";
paths = (
{
closed = 1;
nodes = (
"484 -10 OFFCURVE",
"564 184 OFFCURVE",
"564 350 CURVE SMOOTH",
"564 516 OFFCURVE",
"484 709 OFFCURVE",
"305 709 CURVE",
"126 709 OFFCURVE",
"46 516 OFFCURVE",
"46 350 CURVE SMOOTH",
"46 184 OFFCURVE",
"126 -10 OFFCURVE",
"305 -10 CURVE SMOOTH"
);
},
{
closed = 1;
nodes = (
"206 67 OFFCURVE",
"130 176 OFFCURVE",
"130 350 CURVE SMOOTH",
"130 525 OFFCURVE",
"206 632 OFFCURVE",
"305 632 CURVE SMOOTH",
"404 632 OFFCURVE",
"480 525 OFFCURVE",
"480 350 CURVE SMOOTH",
"480 176 OFFCURVE",
"404 67 OFFCURVE",
"305 67 CURVE SMOOTH"
);
},
{
closed = 1;
nodes = (
"484 -10 OFFCURVE",
"564 184 OFFCURVE",
"564 350 CURVE SMOOTH",
"564 516 OFFCURVE",
"484 709 OFFCURVE",
"305 709 CURVE",
"126 709 OFFCURVE",
"46 516 OFFCURVE",
"46 350 CURVE SMOOTH",
"46 184 OFFCURVE",
"126 -10 OFFCURVE",
"305 -10 CURVE SMOOTH"
);
},
{
closed = 1;
nodes = (
"206 67 OFFCURVE",
"130 176 OFFCURVE",
"130 350 CURVE SMOOTH",
"130 525 OFFCURVE",
"206 632 OFFCURVE",
"305 632 CURVE SMOOTH",
"404 632 OFFCURVE",
"480 525 OFFCURVE",
"480 350 CURVE SMOOTH",
"480 176 OFFCURVE",
"404 67 OFFCURVE",
"305 67 CURVE SMOOTH"
);
},
{
closed = 1;
nodes = (
"106 154 LINE",
"169 106 LINE",
"509 551 LINE",
"442 594 LINE"
);
}
);
width = 610;
}
);
unicode = 0030;
}
{
glyphname = one;
layers = (
{
background = {
anchors = (
{
name = bottom;
position = "{315, 0}";
},
{
name = ogonek;
position = "{383, 10}";
},
{
name = top;
position = "{295, 580}";
}
);
paths = (
{
closed = 0;
nodes = (
"399 45 LINE"
);
},
{
closed = 1;
nodes = (
"113 519 LINE",
"224 519 OFFCURVE",
"293 581 OFFCURVE",
"293 700 CURVE",
"262 700 LINE",
"262 660 OFFCURVE",
"230 594 OFFCURVE",
"116 594 CURVE"
);
}
);
};
layerId = "B33A6296-7F33-4AA4-95A6-15EAB02AACC1";
paths = (
{
closed = 1;
nodes = (
"262 611 LINE",
"262 0 LINE",
"347 0 LINE",
"347 700 LINE",
"269 700 LINE"
);
},
{
closed = 1;
nodes = (
"85 0 LINE",
"525 0 LINE",
"525 77 LINE",
"85 77 LINE"
);
},
{
closed = 1;
nodes = (
"115 519 LINE",
"224 519 OFFCURVE",
"303 581 OFFCURVE",
"303 700 CURVE",
"269 700 LINE",
"264 660 OFFCURVE",
"230 594 OFFCURVE",
"115 594 CURVE"
);
}
);
width = 610;
},
{
associatedMasterId = "B33A6296-7F33-4AA4-95A6-15EAB02AACC1";
components = (
{
name = DotWideUppercase;
transform = "{1, 0, 0, 1, 17, 296}";
}
);
layerId = "E4C96C80-8615-47B0-B529-381ED7D0E118";
name = "Regular Feb 27 17, 22:00";
paths = (
{
closed = 1;
nodes = (
"262 0 LINE",
"347 0 LINE",
"347 700 LINE",
"262 700 LINE"
);
},
{
closed = 1;
nodes = (
"85 0 LINE",
"525 0 LINE",
"525 77 LINE",
"85 77 LINE"
);
},
{
closed = 1;
nodes = (
"152 500 LINE",
"317 643 LINE",
"262 700 LINE",
"102 560 LINE"
);
}
);
width = 610;
},
{
associatedMasterId = "B33A6296-7F33-4AA4-95A6-15EAB02AACC1";
components = (
{
name = DotWideUppercase;
transform = "{1, 0, 0, 1, 20, -327}";
}
);
layerId = "F57B7DC1-2E03-439E-93B6-0167A9A50FCB";
name = "Dec 14 17, 22:06";
paths = (
{
closed = 1;
nodes = (
"266 633 LINE",
"262 0 LINE",
"347 0 LINE",
"347 700 LINE",
"287 700 LINE"
);
},
{
closed = 1;
nodes = (
"85 0 LINE",
"525 0 LINE",
"525 77 LINE",
"85 77 LINE"
);
},
{
closed = 1;
nodes = (
"181 500 LINE",
"333 637 LINE",
"287 700 LINE",
"127 560 LINE"
);
}
);
width = 610;
}
);
unicode = 0031;
}
{
glyphname = two;
layers = (
{
associatedMasterId = "B33A6296-7F33-4AA4-95A6-15EAB02AACC1";
layerId = "3C06C975-BC07-44CC-80DB-8910DF1AE589";
name = "1";
paths = (
{
closed = 1;
nodes = (
"311 161 OFFCURVE",
"495 345 OFFCURVE",
"495 503 CURVE SMOOTH",
"495 672 OFFCURVE",
"382 710 OFFCURVE",
"293 710 CURVE SMOOTH",
"198 710 OFFCURVE",
"112 664 OFFCURVE",
"81 624 CURVE",
"138 567 LINE",
"177 610 OFFCURVE",
"229 635 OFFCURVE",
"298 635 CURVE SMOOTH",
"367 635 OFFCURVE",
"412 586 OFFCURVE",
"412 497 CURVE SMOOTH",
"412 342 OFFCURVE",
"125 95 OFFCURVE",
"91 57 CURVE",
"91 0 LINE",
"528 -1 LINE",
"528 74 LINE",
"169 74 LINE",
"203 60 LINE"
);
}
);
width = 610;
},
{
associatedMasterId = "B33A6296-7F33-4AA4-95A6-15EAB02AACC1";
background = {
components = (
{
name = S;
transform = "{-1, 0, 0, 1, 609, 0}";
}
);
};
layerId = "84A12355-9581-4C67-83BE-7D033446A09A";
name = "2";
paths = (
{
closed = 1;
nodes = (
"311 161 OFFCURVE",
"495 345 OFFCURVE",
"495 503 CURVE SMOOTH",
"495 672 OFFCURVE",
"378 710 OFFCURVE",
"292 710 CURVE SMOOTH",
"194 710 OFFCURVE",
"103 659 OFFCURVE",
"62 528 CURVE",
"137 496 LINE",
"167 597 OFFCURVE",
"225 633 OFFCURVE",
"292 633 CURVE SMOOTH",
"363 633 OFFCURVE",
"412 586 OFFCURVE",
"412 497 CURVE SMOOTH",
"412 342 OFFCURVE",
"125 95 OFFCURVE",
"91 57 CURVE",
"91 0 LINE",
"528 -1 LINE",
"528 76 LINE",
"169 74 LINE",
"203 60 LINE"
);
}
);
width = 610;
},
{
associatedMasterId = "B33A6296-7F33-4AA4-95A6-15EAB02AACC1";
background = {
components = (
{
name = S;
transform = "{-1, 0, 0, 1, 609, 0}";
}
);
};
guideLines = (
{
angle = 90;
position = "{296, 710}";
}
);
layerId = "7EEE7900-AE81-409A-BD3D-3164F62E34D9";
name = "4";
paths = (
{
closed = 1;
nodes = (
"166 145 OFFCURVE",
"232 185 OFFCURVE",
"296 228 CURVE SMOOTH",
"389 290 OFFCURVE",
"516 364 OFFCURVE",
"516 498 CURVE SMOOTH",
"516 673 OFFCURVE",
"392 710 OFFCURVE",
"296 710 CURVE SMOOTH",
"198 710 OFFCURVE",
"103 659 OFFCURVE",
"62 528 CURVE",
"137 496 LINE",
"167 597 OFFCURVE",
"230 633 OFFCURVE",
"296 633 CURVE SMOOTH",
"390 633 OFFCURVE",
"431 588 OFFCURVE",
"431 498 CURVE SMOOTH",
"431 410 OFFCURVE",
"367 378 OFFCURVE",
"296 325 CURVE SMOOTH",
"203 256 OFFCURVE",
"81 199 OFFCURVE",
"81 76 CURVE SMOOTH",
"81 0 LINE",
"528 -1 LINE",
"528 76 LINE",
"166 76 LINE"
);
}
);
width = 610;
},
{
associatedMasterId = "B33A6296-7F33-4AA4-95A6-15EAB02AACC1";
background = {
components = (
{
name = S;
transform = "{-1, 0, 0, 1, 609, 0}";
}
);
};
guideLines = (
{
angle = 90;
position = "{296, 710}";
}
);
layerId = "BE9F793E-83EF-401F-9AD0-93748530C0E6";
name = "5";
paths = (
{
closed = 1;
nodes = (
"166 145 OFFCURVE",
"232 185 OFFCURVE",
"296 228 CURVE SMOOTH",
"389 290 OFFCURVE",
"516 364 OFFCURVE",
"516 498 CURVE SMOOTH",
"516 673 OFFCURVE",
"392 710 OFFCURVE",
"296 710 CURVE SMOOTH",
"198 710 OFFCURVE",
"103 659 OFFCURVE",
"62 528 CURVE",
"137 496 LINE",
"167 597 OFFCURVE",
"230 633 OFFCURVE",
"296 633 CURVE SMOOTH",
"390 633 OFFCURVE",
"431 588 OFFCURVE",
"431 498 CURVE SMOOTH",
"431 410 OFFCURVE",
"367 378 OFFCURVE",
"296 325 CURVE SMOOTH",
"203 256 OFFCURVE",
"81 199 OFFCURVE",
"81 76 CURVE SMOOTH",
"81 0 LINE",
"528 -1 LINE",
"528 76 LINE",
"166 76 LINE"
);
}
);
width = 610;
},
{
associatedMasterId = "B33A6296-7F33-4AA4-95A6-15EAB02AACC1";
background = {
components = (
{
name = S;
transform = "{-1, 0, 0, 1, 609, 0}";
}
);
};
layerId = "C89DF37A-E282-4F9B-80EC-22B54529D9A4";
name = "6";
paths = (
{
closed = 1;
nodes = (
"259 101 OFFCURVE",
"506 326 OFFCURVE",
"506 498 CURVE SMOOTH",
"506 673 OFFCURVE",
"378 710 OFFCURVE",
"292 710 CURVE SMOOTH",
"194 710 OFFCURVE",
"103 659 OFFCURVE",
"62 528 CURVE",
"137 496 LINE",
"167 597 OFFCURVE",
"226 633 OFFCURVE",
"292 633 CURVE SMOOTH",
"376 633 OFFCURVE",
"421 588 OFFCURVE",
"421 498 CURVE SMOOTH",
"421 343 OFFCURVE",
"125 91 OFFCURVE",
"91 53 CURVE",
"91 0 LINE",
"528 -1 LINE",
"528 76 LINE",
"133 77 LINE",
"151 0 LINE"
);
}
);
width = 610;
},
{
associatedMasterId = "B33A6296-7F33-4AA4-95A6-15EAB02AACC1";
components = (
{
name = DotWideUppercase;
transform = "{1, 0, 0, 1, 143, 17}";
},
{
name = DotWideUppercase;
transform = "{1, 0, 0, 1, -98, -205}";
},
{
name = DotWideUppercase;
transform = "{1, 0, 0, 1, -150, -327}";
},
{
name = DotWideUppercase;
transform = "{1, 0, 0, 1, 22, -96}";
}
);
guideLines = (
{
angle = 90;
position = "{292, 710}";
}
);
layerId = "5CB1D823-F7C1-4AF4-A05A-4552FAA9153F";
name = "7";
paths = (
{
closed = 1;
nodes = (
"177 86 OFFCURVE",
"217 151 OFFCURVE",
"292 208 CURVE SMOOTH",
"395 287 OFFCURVE",
"506 358 OFFCURVE",
"506 498 CURVE SMOOTH",
"506 673 OFFCURVE",
"378 710 OFFCURVE",
"292 710 CURVE SMOOTH",
"194 710 OFFCURVE",
"103 659 OFFCURVE",
"62 528 CURVE",
"137 496 LINE",
"167 597 OFFCURVE",
"226 633 OFFCURVE",
"292 633 CURVE SMOOTH",
"376 633 OFFCURVE",
"421 588 OFFCURVE",
"421 498 CURVE SMOOTH",
"421 416 OFFCURVE",
"363 357 OFFCURVE",
"292 308 CURVE SMOOTH",
"170 224 OFFCURVE",
"97 138 OFFCURVE",
"91 40 CURVE SMOOTH",
"91 0 LINE",
"528 -1 LINE",
"528 76 LINE",
"167 76 LINE",
"177 6 LINE"
);
}
);
width = 610;
},
{
associatedMasterId = "B33A6296-7F33-4AA4-95A6-15EAB02AACC1";
guideLines = (
{
angle = 90;
position = "{308, 710}";
}
);
layerId = "D71CBE16-F1AD-4D91-9E96-3F7E2B838C6C";
name = "Regular Dec 14 17, 22:12";
paths = (
{
closed = 1;
nodes = (
"170 108 OFFCURVE",
"227 161 OFFCURVE",
"310 218 CURVE SMOOTH",
"410 287 OFFCURVE",
"523 347 OFFCURVE",
"523 504 CURVE SMOOTH",
"523 668 OFFCURVE",
"399 710 OFFCURVE",
"310 710 CURVE SMOOTH",
"212 710 OFFCURVE",
"120 659 OFFCURVE",
"79 528 CURVE",
"154 496 LINE",
"186 596 OFFCURVE",
"243 633 OFFCURVE",
"313 633 CURVE SMOOTH",
"394 633 OFFCURVE",
"438 584 OFFCURVE",
"438 505 CURVE SMOOTH",
"438 381 OFFCURVE",
"330 325 OFFCURVE",
"310 312 CURVE SMOOTH",
"93 163 OFFCURVE",
"93 128 OFFCURVE",
"93 40 CURVE SMOOTH",
"93 0 LINE",
"531 -1 LINE",
"531 76 LINE",
"169 76 LINE",
"179 6 LINE"
);
}
);
width = 610;
},
{
guideLines = (
{
angle = 90;
position = "{262, 783}";
}
);
layerId = "B33A6296-7F33-4AA4-95A6-15EAB02AACC1";
paths = (
{
closed = 1;
nodes = (
"154 149 OFFCURVE",
"226 215 OFFCURVE",
"315 255 CURVE SMOOTH",
"426 305 OFFCURVE",
"526 364 OFFCURVE",
"526 498 CURVE SMOOTH",
"526 668 OFFCURVE",
"388 710 OFFCURVE",
"307 710 CURVE SMOOTH",
"203 710 OFFCURVE",
"103 652 OFFCURVE",
"68 528 CURVE",
"146 496 LINE",
"176 597 OFFCURVE",
"235 633 OFFCURVE",
"307 633 CURVE SMOOTH",
"386 633 OFFCURVE",
"441 588 OFFCURVE",
"441 498 CURVE SMOOTH",
"441 417 OFFCURVE",
"383 376 OFFCURVE",
"312 344 CURVE SMOOTH",
"152 272 OFFCURVE",
"85 182 OFFCURVE",
"85 40 CURVE SMOOTH",
"85 0 LINE",
"542 -1 LINE",
"542 76 LINE",
"161 75 LINE",
"174 7 LINE"
);
}
);
width = 610;
},
{
associatedMasterId = "B33A6296-7F33-4AA4-95A6-15EAB02AACC1";
guideLines = (
{
angle = 90;
position = "{262, 783}";
}
);
layerId = "916DF2BB-FEA5-4619-B769-064C56FA7281";
name = "Dec 14 17, 23:48";
paths = (
{
closed = 1;
nodes = (
"166 149 OFFCURVE",
"231 215 OFFCURVE",
"320 255 CURVE SMOOTH",
"431 305 OFFCURVE",
"531 364 OFFCURVE",
"531 498 CURVE SMOOTH",
"531 668 OFFCURVE",
"393 710 OFFCURVE",
"312 710 CURVE SMOOTH",
"208 710 OFFCURVE",
"113 660 OFFCURVE",
"74 528 CURVE",
"151 496 LINE",
"181 597 OFFCURVE",
"240 633 OFFCURVE",
"312 633 CURVE SMOOTH",
"391 633 OFFCURVE",
"446 588 OFFCURVE",
"446 498 CURVE SMOOTH",
"446 417 OFFCURVE",
"388 376 OFFCURVE",
"317 344 CURVE SMOOTH",
"157 272 OFFCURVE",
"90 182 OFFCURVE",
"90 40 CURVE SMOOTH",
"90 0 LINE",
"538 -1 LINE",
"538 76 LINE",
"166 75 LINE",
"184 7 LINE"
);
}
);
width = 610;
}
);
unicode = 0032;
}
{
glyphname = three;
layers = (
{
associatedMasterId = "B33A6296-7F33-4AA4-95A6-15EAB02AACC1";
layerId = "69548F22-18F9-482B-B9D1-A13E8F260417";
name = "1";
paths = (
{
closed = 1;
nodes = (
"511 625 LINE",
"511 700 LINE",
"111 700 LINE",
"111 625 LINE",
"452 625 LINE",
"446 659 LINE",
"238 420 LINE",
"238 368 LINE",
"319 368 OFFCURVE",
"449 329 OFFCURVE",
"449 208 CURVE SMOOTH",
"449 115 OFFCURVE",
"381 65 OFFCURVE",
"302 65 CURVE SMOOTH",
"234 65 OFFCURVE",
"174 121 OFFCURVE",
"140 167 CURVE",
"77 118 LINE",
"113 66 OFFCURVE",
"200 -10 OFFCURVE",
"301 -10 CURVE SMOOTH",
"436 -10 OFFCURVE",
"532 81 OFFCURVE",
"532 208 CURVE SMOOTH",
"532 351 OFFCURVE",
"400 426 OFFCURVE",
"319 426 CURVE",
"311 384 LINE"
);
}
);
width = 610;
},
{
associatedMasterId = "B33A6296-7F33-4AA4-95A6-15EAB02AACC1";
background = {
components = (
{
name = five;
transform = "{1, 0, 0, 1, -5, 0}";
}
);
};
layerId = "FEFBCEBC-CCC2-433D-89F8-485E6553E4D4";
name = "Regular Mar 14 17, 22:51";
paths = (
{
closed = 1;
nodes = (
"242 398 LINE",
"242 329 LINE",
"323 329 OFFCURVE",
"452 314 OFFCURVE",
"452 193 CURVE SMOOTH",
"452 100 OFFCURVE",
"381 67 OFFCURVE",
"302 67 CURVE SMOOTH",
"229 67 OFFCURVE",
"164 113 OFFCURVE",
"125 175 CURVE",
"61 123 LINE",
"96 71 OFFCURVE",
"177 -10 OFFCURVE",
"301 -10 CURVE SMOOTH",
"439 -10 OFFCURVE",
"537 66 OFFCURVE",
"537 193 CURVE SMOOTH",
"537 338 OFFCURVE",
"404 398 OFFCURVE",
"323 398 CURVE"
);
},
{
closed = 1;
nodes = (
"404 317 OFFCURVE",
"531 361 OFFCURVE",
"531 506 CURVE SMOOTH",
"531 633 OFFCURVE",
"439 705 OFFCURVE",
"301 705 CURVE SMOOTH",
"177 705 OFFCURVE",
"126 624 OFFCURVE",
"91 572 CURVE",
"155 520 LINE",
"194 582 OFFCURVE",
"229 628 OFFCURVE",
"302 628 CURVE SMOOTH",
"381 628 OFFCURVE",
"446 599 OFFCURVE",
"446 506 CURVE SMOOTH",
"446 385 OFFCURVE",
"323 398 OFFCURVE",
"242 398 CURVE",
"242 329 LINE",
"323 329 LINE"
);
}
);
width = 610;
},
{
layerId = "B33A6296-7F33-4AA4-95A6-15EAB02AACC1";
paths = (
{
closed = 1;
nodes = (
"511 650 LINE",
"511 700 LINE",
"101 700 LINE",
"101 623 LINE",
"479 627 LINE",
"450 693 LINE",
"242 416 LINE",
"242 369 LINE",
"322 369 OFFCURVE",
"452 332 OFFCURVE",
"452 209 CURVE SMOOTH",
"452 118 OFFCURVE",
"382 67 OFFCURVE",
"304 67 CURVE SMOOTH",
"229 67 OFFCURVE",
"164 113 OFFCURVE",
"125 175 CURVE",
"61 123 LINE",
"96 71 OFFCURVE",
"177 -10 OFFCURVE",
"303 -10 CURVE SMOOTH",
"437 -10 OFFCURVE",
"537 82 OFFCURVE",
"537 209 CURVE SMOOTH",
"537 355 OFFCURVE",
"404 428 OFFCURVE",
"323 428 CURVE",
"302 371 LINE"
);
}
);
width = 610;
},
{
associatedMasterId = "B33A6296-7F33-4AA4-95A6-15EAB02AACC1";
layerId = "3277678E-582F-48BC-80CE-EC5208441775";
name = "2";
paths = (
{
closed = 1;
nodes = (
"511 650 LINE",
"511 700 LINE",
"101 700 LINE",
"101 623 LINE",
"479 627 LINE",
"450 693 LINE",
"242 416 LINE",
"242 369 LINE",
"323 369 OFFCURVE",
"452 331 OFFCURVE",
"452 210 CURVE SMOOTH",
"452 117 OFFCURVE",
"381 67 OFFCURVE",
"302 67 CURVE SMOOTH",
"229 67 OFFCURVE",
"164 113 OFFCURVE",
"125 175 CURVE",
"61 123 LINE",
"96 71 OFFCURVE",
"177 -10 OFFCURVE",
"301 -10 CURVE SMOOTH",
"439 -10 OFFCURVE",
"537 83 OFFCURVE",
"537 210 CURVE SMOOTH",
"537 355 OFFCURVE",
"404 428 OFFCURVE",
"323 428 CURVE",
"302 371 LINE"
);
}
);
width = 610;
}
);
unicode = 0033;
}
{
glyphname = four;
layers = (
{
layerId = "B33A6296-7F33-4AA4-95A6-15EAB02AACC1";
paths = (
{
closed = 1;
nodes = (
"466 0 LINE",
"466 358 LINE",
"381 358 LINE",
"381 0 LINE"
);
},
{
closed = 1;
nodes = (
"408 700 LINE",
"314 700 LINE",
"65 199 LINE",
"65 152 LINE",
"555 152 LINE",
"555 229 LINE",
"120 227 LINE",
"145 183 LINE"
);
}
);
width = 610;
},
{
associatedMasterId = "B33A6296-7F33-4AA4-95A6-15EAB02AACC1";
layerId = "23E91947-E360-4BEF-ADD4-2479978F0774";
name = "Regular Feb 27 17, 22:20";
paths = (
{
closed = 1;
nodes = (
"445 0 LINE",
"445 358 LINE",
"362 358 LINE",
"362 0 LINE"
);
},
{
closed = 1;
nodes = (
"395 700 LINE",
"304 700 LINE",
"85 204 LINE",
"85 152 LINE",
"525 152 LINE",
"525 227 LINE",
"140 227 LINE",
"158 186 LINE"
);
}
);
width = 610;
},
{
associatedMasterId = "B33A6296-7F33-4AA4-95A6-15EAB02AACC1";
background = {
components = (
{
name = zero;
}
);
};
layerId = "ECF0166E-1F8C-46F2-AA0E-5DC1A21D9F92";
name = "Dec 16 17, 13:36";
paths = (
{
closed = 1;
nodes = (
"466 0 LINE",
"466 358 LINE",
"381 358 LINE",
"381 0 LINE"
);
},
{
closed = 1;
nodes = (
"408 700 LINE",
"314 700 LINE",
"65 199 LINE",
"65 152 LINE",
"555 152 LINE",
"555 229 LINE",
"120 227 LINE",
"145 183 LINE"
);
}
);
width = 610;
}
);
unicode = 0034;
}
{
glyphname = five;
layers = (
{
guideLines = (
{
angle = 270;
position = "{319, 710}";
}
);
layerId = "B33A6296-7F33-4AA4-95A6-15EAB02AACC1";
paths = (
{
closed = 1;
nodes = (
"84 96 OFFCURVE",
"162 -10 OFFCURVE",
"310 -10 CURVE SMOOTH",
"473 -10 OFFCURVE",
"550 117 OFFCURVE",
"550 236 CURVE SMOOTH",
"550 376 OFFCURVE",
"444 464 OFFCURVE",
"316 464 CURVE SMOOTH",
"219 464 OFFCURVE",
"152 417 OFFCURVE",
"123 308 CURVE",
"167 308 LINE",
"199 355 OFFCURVE",
"244 387 OFFCURVE",
"311 387 CURVE SMOOTH",
"416 387 OFFCURVE",
"465 308 OFFCURVE",
"465 231 CURVE SMOOTH",
"465 147 OFFCURVE",
"408 67 OFFCURVE",
"309 67 CURVE SMOOTH",
"209 67 OFFCURVE",
"147 148 OFFCURVE",
"130 175 CURVE",
"66 123 LINE"
);
},
{
closed = 1;
nodes = (
"130 700 LINE",
"94 308 LINE",
"167 308 LINE",
"202 668 LINE",
"160 624 LINE",
"497 622 LINE",
"497 700 LINE"
);
}
);
width = 610;
},
{
associatedMasterId = "B33A6296-7F33-4AA4-95A6-15EAB02AACC1";
layerId = "F9074C05-C364-4AC5-B8B2-501DCA0984FF";
name = "Regular Feb 28 17, 22:01";
paths = (
{
closed = 1;
nodes = (
"142 625 LINE",
"487 625 LINE",
"487 700 LINE",
"157 700 LINE"
);
},
{
closed = 1;
nodes = (
"129 700 LINE",
"98 371 LINE",
"178 340 LINE",
"212 700 LINE"
);
},
{
closed = 1;
nodes = (
"84 96 OFFCURVE",
"162 -10 OFFCURVE",
"310 -10 CURVE SMOOTH",
"468 -10 OFFCURVE",
"544 97 OFFCURVE",
"544 214 CURVE SMOOTH",
"544 378 OFFCURVE",
"432 440 OFFCURVE",
"310 440 CURVE SMOOTH",
"255 440 OFFCURVE",
"178 431 OFFCURVE",
"137 356 CURVE",
"178 340 LINE",
"231 361 OFFCURVE",
"258 365 OFFCURVE",
"310 365 CURVE SMOOTH",
"418 365 OFFCURVE",
"461 306 OFFCURVE",
"461 214 CURVE SMOOTH",
"461 127 OFFCURVE",
"408 65 OFFCURVE",
"310 65 CURVE SMOOTH",
"208 65 OFFCURVE",
"139 148 OFFCURVE",
"122 175 CURVE",
"66 123 LINE"
);
}
);
width = 610;
},
{
associatedMasterId = "B33A6296-7F33-4AA4-95A6-15EAB02AACC1";
guideLines = (
{
angle = 270;
position = "{319, 710}";
}
);
layerId = "27A07A64-3719-41A4-AF4C-151ABF65440B";
name = "Dec 16 17, 13:40";
paths = (
{
closed = 1;
nodes = (
"84 96 OFFCURVE",
"162 -10 OFFCURVE",
"310 -10 CURVE SMOOTH",
"473 -10 OFFCURVE",
"550 117 OFFCURVE",
"550 234 CURVE SMOOTH",
"550 374 OFFCURVE",
"448 464 OFFCURVE",
"319 464 CURVE SMOOTH",
"231 464 OFFCURVE",
"152 417 OFFCURVE",
"123 308 CURVE",
"168 308 LINE",
"200 355 OFFCURVE",
"261 387 OFFCURVE",
"319 387 CURVE SMOOTH",
"429 387 OFFCURVE",
"465 302 OFFCURVE",
"465 234 CURVE SMOOTH",
"465 147 OFFCURVE",
"408 67 OFFCURVE",
"310 67 CURVE SMOOTH",
"209 67 OFFCURVE",
"147 148 OFFCURVE",
"130 175 CURVE",
"66 123 LINE"
);
},
{
closed = 1;
nodes = (
"130 700 LINE",
"83 308 LINE",
"161 308 LINE",
"202 668 LINE",
"160 624 LINE",
"497 623 LINE",
"497 700 LINE"
);
}
);
width = 610;
}
);
unicode = 0035;
}
{
glyphname = six;
layers = (
{
layerId = "B33A6296-7F33-4AA4-95A6-15EAB02AACC1";
paths = (
{
closed = 1;
nodes = (
"534 585 LINE",
"502 650 OFFCURVE",
"437 710 OFFCURVE",
"329 710 CURVE SMOOTH",
"145 710 OFFCURVE",
"59 534 OFFCURVE",
"59 334 CURVE SMOOTH",
"59 132 OFFCURVE",
"146 -10 OFFCURVE",
"314 -10 CURVE SMOOTH",
"469 -10 OFFCURVE",
"550 110 OFFCURVE",
"550 236 CURVE SMOOTH",
"550 382 OFFCURVE",
"440 463 OFFCURVE",
"324 463 CURVE SMOOTH",
"188 463 OFFCURVE",
"103 350 OFFCURVE",
"122 191 CURVE",
"163 191 LINE",
"146 324 OFFCURVE",
"229 386 OFFCURVE",
"322 386 CURVE SMOOTH",
"435 386 OFFCURVE",
"465 293 OFFCURVE",
"465 233 CURVE SMOOTH",
"465 163 OFFCURVE",
"424 67 OFFCURVE",
"316 67 CURVE SMOOTH",
"193 67 OFFCURVE",
"144 190 OFFCURVE",
"144 326 CURVE SMOOTH",
"144 425 OFFCURVE",
"170 633 OFFCURVE",
"330 633 CURVE SMOOTH",
"382 633 OFFCURVE",
"429 611 OFFCURVE",
"459 549 CURVE"
);
}
);
width = 610;
},
{
associatedMasterId = "B33A6296-7F33-4AA4-95A6-15EAB02AACC1";
layerId = "07F52C04-FCCA-455C-B031-5E5F33F522FE";
name = "1";
paths = (
{
closed = 1;
nodes = (
"529 623 LINE",
"490 663 OFFCURVE",
"428 710 OFFCURVE",
"321 710 CURVE SMOOTH",
"146 710 OFFCURVE",
"62 534 OFFCURVE",
"62 321 CURVE SMOOTH",
"62 134 OFFCURVE",
"146 -10 OFFCURVE",
"319 -10 CURVE SMOOTH",
"466 -10 OFFCURVE",
"548 111 OFFCURVE",
"548 230 CURVE SMOOTH",
"548 385 OFFCURVE",
"439 452 OFFCURVE",
"334 452 CURVE SMOOTH",
"188 452 OFFCURVE",
"107 317 OFFCURVE",
"110 240 CURVE",
"151 240 LINE",
"151 297 OFFCURVE",
"230 377 OFFCURVE",
"319 377 CURVE SMOOTH",
"437 377 OFFCURVE",
"465 293 OFFCURVE",
"465 230 CURVE SMOOTH",
"465 163 OFFCURVE",
"421 65 OFFCURVE",
"319 65 CURVE SMOOTH",
"179 65 OFFCURVE",
"144 214 OFFCURVE",
"144 321 CURVE SMOOTH",
"144 426 OFFCURVE",
"176 635 OFFCURVE",
"321 635 CURVE SMOOTH",
"390 635 OFFCURVE",
"445 602 OFFCURVE",
"478 565 CURVE"
);
}
);
width = 610;
},
{
associatedMasterId = "B33A6296-7F33-4AA4-95A6-15EAB02AACC1";
background = {
components = (
{
name = C;
}
);
};
layerId = "92CB9E36-23B3-4901-B948-8897637FE886";
name = "2";
paths = (
{
closed = 1;
nodes = (
"560 528 LINE",
"522 628 OFFCURVE",
"464 710 OFFCURVE",
"319 710 CURVE SMOOTH",
"146 710 OFFCURVE",
"59 534 OFFCURVE",
"59 321 CURVE SMOOTH",
"59 134 OFFCURVE",
"146 -10 OFFCURVE",
"319 -10 CURVE SMOOTH",
"466 -10 OFFCURVE",
"550 111 OFFCURVE",
"550 230 CURVE SMOOTH",
"550 385 OFFCURVE",
"439 453 OFFCURVE",
"319 453 CURVE SMOOTH",
"188 453 OFFCURVE",
"107 317 OFFCURVE",
"110 240 CURVE",
"151 240 LINE",
"151 297 OFFCURVE",
"230 376 OFFCURVE",
"319 376 CURVE SMOOTH",
"437 376 OFFCURVE",
"465 293 OFFCURVE",
"465 230 CURVE SMOOTH",
"465 163 OFFCURVE",
"421 67 OFFCURVE",
"319 67 CURVE SMOOTH",
"179 67 OFFCURVE",
"144 214 OFFCURVE",
"144 321 CURVE SMOOTH",
"144 426 OFFCURVE",
"176 633 OFFCURVE",
"319 633 CURVE SMOOTH",
"390 633 OFFCURVE",
"437 614 OFFCURVE",
"485 496 CURVE"
);
}
);
width = 610;
},
{
associatedMasterId = "B33A6296-7F33-4AA4-95A6-15EAB02AACC1";
layerId = "92CFD62B-9F2E-4BC8-BCD6-ECE0DD8F290E";
name = "Regular Feb 28 17, 21:28";
paths = (
{
closed = 1;
nodes = (
"534 585 LINE",
"495 660 OFFCURVE",
"435 710 OFFCURVE",
"319 710 CURVE SMOOTH",
"146 710 OFFCURVE",
"59 534 OFFCURVE",
"59 321 CURVE SMOOTH",
"59 134 OFFCURVE",
"146 -10 OFFCURVE",
"319 -10 CURVE SMOOTH",
"466 -10 OFFCURVE",
"550 111 OFFCURVE",
"550 230 CURVE SMOOTH",
"550 385 OFFCURVE",
"439 453 OFFCURVE",
"319 453 CURVE SMOOTH",
"188 453 OFFCURVE",
"107 317 OFFCURVE",
"110 240 CURVE",
"151 240 LINE",
"151 297 OFFCURVE",
"230 376 OFFCURVE",
"319 376 CURVE SMOOTH",
"437 376 OFFCURVE",
"465 293 OFFCURVE",
"465 230 CURVE SMOOTH",
"465 163 OFFCURVE",
"421 67 OFFCURVE",
"319 67 CURVE SMOOTH",
"179 67 OFFCURVE",
"144 214 OFFCURVE",
"144 321 CURVE SMOOTH",
"144 426 OFFCURVE",
"176 633 OFFCURVE",
"319 633 CURVE SMOOTH",
"378 633 OFFCURVE",
"423 620 OFFCURVE",
"459 549 CURVE"
);
}
);
width = 610;
},
{
associatedMasterId = "B33A6296-7F33-4AA4-95A6-15EAB02AACC1";
background = {
components = (
{
name = e;
transform = "{1, 0, 0, 1, 5, 0}";
}
);
};
layerId = "F1CA6B9A-7F4A-49E2-9F02-950CCB72255C";
name = "Dec 16 17, 18:03";
paths = (
{
closed = 1;
nodes = (
"534 585 LINE",
"495 660 OFFCURVE",
"435 710 OFFCURVE",
"319 710 CURVE SMOOTH",
"146 710 OFFCURVE",
"59 534 OFFCURVE",
"59 321 CURVE SMOOTH",
"59 134 OFFCURVE",
"146 -10 OFFCURVE",
"319 -10 CURVE SMOOTH",
"466 -10 OFFCURVE",
"550 111 OFFCURVE",
"550 230 CURVE SMOOTH",
"550 385 OFFCURVE",
"442 463 OFFCURVE",
"319 463 CURVE SMOOTH",
"188 463 OFFCURVE",
"102 344 OFFCURVE",
"122 191 CURVE",
"163 191 LINE",
"146 324 OFFCURVE",
"230 386 OFFCURVE",
"319 386 CURVE SMOOTH",
"437 386 OFFCURVE",
"465 293 OFFCURVE",
"465 230 CURVE SMOOTH",
"465 163 OFFCURVE",
"421 67 OFFCURVE",
"319 67 CURVE SMOOTH",
"179 67 OFFCURVE",
"144 214 OFFCURVE",
"144 321 CURVE SMOOTH",
"144 426 OFFCURVE",
"176 633 OFFCURVE",
"319 633 CURVE SMOOTH",
"378 633 OFFCURVE",
"423 620 OFFCURVE",
"459 549 CURVE"
);
}
);
width = 610;
}
);
unicode = 0036;
}
{
glyphname = seven;
layers = (
{
layerId = "B33A6296-7F33-4AA4-95A6-15EAB02AACC1";
paths = (
{
closed = 1;
nodes = (
"315 459 OFFCURVE",
"220 230 OFFCURVE",
"191 0 CURVE",
"276 0 LINE",
"299 218 OFFCURVE",
"376 436 OFFCURVE",
"531 654 CURVE",
"531 700 LINE",
"79 700 LINE",
"79 623 LINE",
"483 627 LINE",
"464 689 LINE"
);
}
);
width = 610;
},
{
associatedMasterId = "B33A6296-7F33-4AA4-95A6-15EAB02AACC1";
layerId = "D6A3D16A-DD30-4922-975D-B3BFAD2D9723";
name = "Regular Feb 27 17, 22:24";
paths = (
{
closed = 1;
nodes = (
"191 0 LINE",
"280 0 LINE",
"520 627 LINE",
"520 700 LINE",
"89 700 LINE",
"89 625 LINE",
"473 625 LINE",
"453 666 LINE"
);
},
{
closed = 1;
nodes = (
"175 293 LINE",
"511 293 LINE",
"511 368 LINE",
"175 368 LINE"
);
}
);
width = 610;
},
{
associatedMasterId = "B33A6296-7F33-4AA4-95A6-15EAB02AACC1";
layerId = "A9D9A474-3FDA-4295-BFF2-A12C61C4EA05";
name = "Dec 16 17, 18:18";
paths = (
{
closed = 1;
nodes = (
"191 0 LINE",
"282 0 LINE",
"531 654 LINE",
"531 700 LINE",
"89 700 LINE",
"89 623 LINE",
"483 627 LINE",
"459 689 LINE"
);
},
{
closed = 1;
nodes = (
"175 293 LINE",
"511 293 LINE",
"511 368 LINE",
"175 368 LINE"
);
}
);
width = 610;
},
{
associatedMasterId = "B33A6296-7F33-4AA4-95A6-15EAB02AACC1";
layerId = "F791FC41-0AE1-43DD-90F9-E0937F35FA04";
name = "Regular Jan 4 18, 22:42";
paths = (
{
closed = 1;
nodes = (
"186 0 LINE",
"277 0 LINE",
"526 654 LINE",
"526 700 LINE",
"84 700 LINE",
"84 623 LINE",
"478 627 LINE",
"454 689 LINE"
);
},
{
closed = 1;
nodes = (
"170 293 LINE",
"506 293 LINE",
"506 368 LINE",
"170 368 LINE"
);
}
);
width = 610;
}
);
unicode = 0037;
}
{
glyphname = eight;
layers = (
{
layerId = "B33A6296-7F33-4AA4-95A6-15EAB02AACC1";
paths = (
{
closed = 1;
nodes = (
"252 401 OFFCURVE",
"68 358 OFFCURVE",
"68 191 CURVE SMOOTH",
"68 69 OFFCURVE",
"167 -10 OFFCURVE",
"305 -10 CURVE SMOOTH",
"442 -10 OFFCURVE",
"542 67 OFFCURVE",
"542 201 CURVE SMOOTH",
"542 364 OFFCURVE",
"395 385 OFFCURVE",
"305 405 CURVE SMOOTH",
"233 421 OFFCURVE",
"177 441 OFFCURVE",
"177 520 CURVE SMOOTH",
"177 601 OFFCURVE",
"236 633 OFFCURVE",
"305 633 CURVE SMOOTH",
"374 633 OFFCURVE",
"432 601 OFFCURVE",
"432 520 CURVE SMOOTH",
"432 445 OFFCURVE",
"382 384 OFFCURVE",
"305 375 CURVE",
"305 334 LINE",
"418 340 OFFCURVE",
"517 401 OFFCURVE",
"517 523 CURVE SMOOTH",
"517 634 OFFCURVE",
"434 710 OFFCURVE",
"305 710 CURVE SMOOTH",
"176 710 OFFCURVE",
"92 635 OFFCURVE",
"92 516 CURVE SMOOTH",
"92 384 OFFCURVE",
"197 353 OFFCURVE",
"305 328 CURVE SMOOTH",
"386 309 OFFCURVE",
"457 295 OFFCURVE",
"457 200 CURVE SMOOTH",
"457 115 OFFCURVE",
"400 67 OFFCURVE",
"305 67 CURVE SMOOTH",
"208 67 OFFCURVE",
"153 116 OFFCURVE",
"153 196 CURVE SMOOTH",
"153 276 OFFCURVE",
"213 345 OFFCURVE",
"305 358 CURVE",
"305 399 LINE"
);
}
);
width = 610;
},
{
associatedMasterId = "B33A6296-7F33-4AA4-95A6-15EAB02AACC1";
layerId = "4BFEAE77-1E00-4298-BFCD-5D9F147754E5";
name = "Mar 16 17, 23:36";
paths = (
{
closed = 1;
nodes = (
"204 385 OFFCURVE",
"78 312 OFFCURVE",
"78 186 CURVE SMOOTH",
"78 80 OFFCURVE",
"176 -9 OFFCURVE",
"303 -9 CURVE SMOOTH",
"426 -9 OFFCURVE",
"532 74 OFFCURVE",
"532 186 CURVE SMOOTH",
"532 398 OFFCURVE",
"172 399 OFFCURVE",
"172 536 CURVE SMOOTH",
"172 596 OFFCURVE",
"236 635 OFFCURVE",
"303 635 CURVE SMOOTH",
"360 635 OFFCURVE",
"430 596 OFFCURVE",
"430 536 CURVE SMOOTH",
"430 460 OFFCURVE",
"354 412 OFFCURVE",
"295 393 CURVE",
"349 336 LINE",
"403 355 OFFCURVE",
"513 409 OFFCURVE",
"513 536 CURVE SMOOTH",
"513 631 OFFCURVE",
"426 710 OFFCURVE",
"303 710 CURVE SMOOTH",
"176 710 OFFCURVE",
"89 631 OFFCURVE",
"89 536 CURVE SMOOTH",
"89 341 OFFCURVE",
"449 340 OFFCURVE",
"449 186 CURVE SMOOTH",
"449 121 OFFCURVE",
"389 67 OFFCURVE",
"303 67 CURVE SMOOTH",
"217 67 OFFCURVE",
"161 127 OFFCURVE",
"161 186 CURVE SMOOTH",
"161 268 OFFCURVE",
"262 338 OFFCURVE",
"301 359 CURVE",
"241 409 LINE"
);
}
);
width = 610;
},
{
associatedMasterId = "B33A6296-7F33-4AA4-95A6-15EAB02AACC1";
background = {
components = (
{
name = six;
}
);
};
layerId = "52D7E082-3FE4-47FE-9B07-0FCFEC535846";
name = "Mar 16 17, 23:46";
paths = (
{
closed = 1;
nodes = (
"204 385 OFFCURVE",
"63 351 OFFCURVE",
"63 196 CURVE SMOOTH",
"63 67 OFFCURVE",
"162 -10 OFFCURVE",
"305 -10 CURVE SMOOTH",
"439 -10 OFFCURVE",
"546 67 OFFCURVE",
"546 196 CURVE SMOOTH",
"546 351 OFFCURVE",
"419 381 OFFCURVE",
"305 406 CURVE SMOOTH",
"214 426 OFFCURVE",
"177 456 OFFCURVE",
"177 520 CURVE SMOOTH",
"177 600 OFFCURVE",
"236 633 OFFCURVE",
"305 633 CURVE SMOOTH",
"360 633 OFFCURVE",
"432 600 OFFCURVE",
"432 520 CURVE SMOOTH",
"432 456 OFFCURVE",
"374 392 OFFCURVE",
"315 373 CURVE",
"349 336 LINE",
"403 355 OFFCURVE",
"517 395 OFFCURVE",
"517 520 CURVE SMOOTH",
"517 635 OFFCURVE",
"426 710 OFFCURVE",
"305 710 CURVE SMOOTH",
"176 710 OFFCURVE",
"92 635 OFFCURVE",
"92 520 CURVE SMOOTH",
"92 395 OFFCURVE",
"196 343 OFFCURVE",
"305 326 CURVE SMOOTH",
"393 312 OFFCURVE",
"461 296 OFFCURVE",
"461 196 CURVE SMOOTH",
"461 114 OFFCURVE",
"402 67 OFFCURVE",
"305 67 CURVE SMOOTH",
"203 67 OFFCURVE",
"148 114 OFFCURVE",
"148 196 CURVE SMOOTH",
"148 296 OFFCURVE",
"242 348 OFFCURVE",
"281 369 CURVE",
"241 409 LINE"
);
}
);
width = 610;
},
{
associatedMasterId = "B33A6296-7F33-4AA4-95A6-15EAB02AACC1";
background = {
components = (
{
name = six;
}
);
};
layerId = "0CC6BDA7-E898-4EF8-93CD-6B9439C77C22";
name = "Mar 21 17, 21:25";
paths = (
{
closed = 1;
nodes = (
"228 405 OFFCURVE",
"68 351 OFFCURVE",
"68 196 CURVE SMOOTH",
"68 67 OFFCURVE",
"167 -10 OFFCURVE",
"305 -10 CURVE SMOOTH",
"435 -10 OFFCURVE",
"542 67 OFFCURVE",
"542 196 CURVE SMOOTH",
"542 351 OFFCURVE",
"422 402 OFFCURVE",
"305 405 CURVE SMOOTH",
"214 407 OFFCURVE",
"177 456 OFFCURVE",
"177 520 CURVE SMOOTH",
"177 600 OFFCURVE",
"236 633 OFFCURVE",
"305 633 CURVE SMOOTH",
"360 633 OFFCURVE",
"432 600 OFFCURVE",
"432 520 CURVE SMOOTH",
"432 456 OFFCURVE",
"394 405 OFFCURVE",
"335 405 CURVE",
"335 328 LINE",
"389 328 OFFCURVE",
"517 395 OFFCURVE",
"517 520 CURVE SMOOTH",
"517 635 OFFCURVE",
"426 710 OFFCURVE",
"305 710 CURVE SMOOTH",
"176 710 OFFCURVE",
"92 635 OFFCURVE",
"92 520 CURVE SMOOTH",
"92 395 OFFCURVE",
"196 326 OFFCURVE",
"305 328 CURVE SMOOTH",
"394 328 OFFCURVE",
"457 296 OFFCURVE",
"457 196 CURVE SMOOTH",
"457 114 OFFCURVE",
"398 67 OFFCURVE",
"305 67 CURVE SMOOTH",
"208 67 OFFCURVE",
"153 114 OFFCURVE",
"153 196 CURVE SMOOTH",
"153 296 OFFCURVE",
"226 328 OFFCURVE",
"265 328 CURVE",
"265 405 LINE"
);
}
);
width = 610;
},
{
associatedMasterId = "B33A6296-7F33-4AA4-95A6-15EAB02AACC1";
background = {
components = (
{
name = S;
transform = "{0.9362, 0, 0, 1, 19, 0}";
}
);
};
layerId = "5CD3142A-E643-4DD2-A7B7-DB075E66483A";
name = "Mar 21 17, 22:24";
paths = (
{
closed = 1;
nodes = (
"268 393 OFFCURVE",
"68 374 OFFCURVE",
"68 196 CURVE SMOOTH",
"68 67 OFFCURVE",
"167 -10 OFFCURVE",
"305 -10 CURVE SMOOTH",
"443 -10 OFFCURVE",
"542 68 OFFCURVE",
"542 196 CURVE SMOOTH",
"542 351 OFFCURVE",
"422 383 OFFCURVE",
"305 405 CURVE SMOOTH",
"215 422 OFFCURVE",
"177 456 OFFCURVE",
"177 520 CURVE SMOOTH",
"177 601 OFFCURVE",
"236 633 OFFCURVE",
"305 633 CURVE SMOOTH",
"374 633 OFFCURVE",
"432 601 OFFCURVE",
"432 520 CURVE SMOOTH",
"432 445 OFFCURVE",
"382 377 OFFCURVE",
"305 377 CURVE",
"305 336 LINE",
"418 336 OFFCURVE",
"517 392 OFFCURVE",
"517 520 CURVE SMOOTH",
"517 635 OFFCURVE",
"434 710 OFFCURVE",
"305 710 CURVE SMOOTH",
"176 710 OFFCURVE",
"92 635 OFFCURVE",
"92 520 CURVE SMOOTH",
"92 383 OFFCURVE",
"197 351 OFFCURVE",
"305 328 CURVE SMOOTH",
"394 309 OFFCURVE",
"457 291 OFFCURVE",
"457 196 CURVE SMOOTH",
"457 116 OFFCURVE",
"400 67 OFFCURVE",
"305 67 CURVE SMOOTH",
"208 67 OFFCURVE",
"153 116 OFFCURVE",
"153 196 CURVE SMOOTH",
"153 296 OFFCURVE",
"221 352 OFFCURVE",
"305 352 CURVE",
"305 393 LINE"
);
}
);
width = 610;
},
{
associatedMasterId = "B33A6296-7F33-4AA4-95A6-15EAB02AACC1";
background = {
components = (
{
name = S;
transform = "{0.9362, 0, 0, 1, 19, 0}";
}
);
};
layerId = "A6A8D0A8-A02F-42AE-8A41-A45A65077500";
name = "Mar 21 17, 22:30";
paths = (
{
closed = 1;
nodes = (
"260 393 OFFCURVE",
"68 374 OFFCURVE",
"68 196 CURVE SMOOTH",
"68 67 OFFCURVE",
"167 -10 OFFCURVE",
"305 -10 CURVE SMOOTH",
"443 -10 OFFCURVE",
"542 68 OFFCURVE",
"542 196 CURVE SMOOTH",
"542 351 OFFCURVE",
"422 383 OFFCURVE",
"305 405 CURVE SMOOTH",
"215 422 OFFCURVE",
"177 456 OFFCURVE",
"177 520 CURVE SMOOTH",
"177 601 OFFCURVE",
"236 633 OFFCURVE",
"305 633 CURVE SMOOTH",
"374 633 OFFCURVE",
"432 601 OFFCURVE",
"432 520 CURVE SMOOTH",
"432 445 OFFCURVE",
"382 391 OFFCURVE",
"305 405 CURVE",
"305 364 LINE",
"418 350 OFFCURVE",
"517 392 OFFCURVE",
"517 520 CURVE SMOOTH",
"517 635 OFFCURVE",
"434 710 OFFCURVE",
"305 710 CURVE SMOOTH",
"176 710 OFFCURVE",
"92 635 OFFCURVE",
"92 520 CURVE SMOOTH",
"92 383 OFFCURVE",
"197 351 OFFCURVE",
"305 328 CURVE SMOOTH",
"394 309 OFFCURVE",
"457 291 OFFCURVE",
"457 196 CURVE SMOOTH",
"457 116 OFFCURVE",
"400 67 OFFCURVE",
"305 67 CURVE SMOOTH",
"208 67 OFFCURVE",
"153 116 OFFCURVE",
"153 196 CURVE SMOOTH",
"153 296 OFFCURVE",
"213 352 OFFCURVE",
"305 328 CURVE",
"305 369 LINE"
);
}
);
width = 610;
},
{
associatedMasterId = "B33A6296-7F33-4AA4-95A6-15EAB02AACC1";
background = {
paths = (
{
closed = 1;
nodes = (
"305 328 LINE",
"397 332 OFFCURVE",
"457 296 OFFCURVE",
"457 196 CURVE SMOOTH",
"457 116 OFFCURVE",
"402 67 OFFCURVE",
"305 67 CURVE SMOOTH",
"210 67 OFFCURVE",
"153 116 OFFCURVE",
"153 196 CURVE SMOOTH",
"153 291 OFFCURVE",
"216 309 OFFCURVE",
"305 328 CURVE SMOOTH",
"413 351 OFFCURVE",
"518 383 OFFCURVE",
"518 520 CURVE SMOOTH",
"518 635 OFFCURVE",
"434 710 OFFCURVE",
"305 710 CURVE SMOOTH",
"176 710 OFFCURVE",
"93 635 OFFCURVE",
"93 520 CURVE SMOOTH",
"93 402 OFFCURVE",
"192 370 OFFCURVE",
"305 364 CURVE",
"305 405 LINE",
"228 411 OFFCURVE",
"178 445 OFFCURVE",
"178 520 CURVE SMOOTH",
"178 601 OFFCURVE",
"236 633 OFFCURVE",
"305 633 CURVE SMOOTH",
"374 633 OFFCURVE",
"433 601 OFFCURVE",
"433 520 CURVE SMOOTH",
"433 456 OFFCURVE",
"395 422 OFFCURVE",
"305 405 CURVE SMOOTH",
"188 383 OFFCURVE",
"68 351 OFFCURVE",
"68 196 CURVE SMOOTH",
"68 68 OFFCURVE",
"167 -10 OFFCURVE",
"305 -10 CURVE SMOOTH",
"443 -10 OFFCURVE",
"542 67 OFFCURVE",
"542 196 CURVE SMOOTH",
"542 364 OFFCURVE",
"350 373 OFFCURVE",
"305 369 CURVE"
);
}
);
};
layerId = "A411961C-688B-40D8-BDD5-39F00C323640";
name = "Mar 21 17, 22:34";
paths = (
{
closed = 1;
nodes = (
"260 373 OFFCURVE",
"68 364 OFFCURVE",
"68 196 CURVE SMOOTH",
"68 67 OFFCURVE",
"167 -10 OFFCURVE",
"305 -10 CURVE SMOOTH",
"443 -10 OFFCURVE",
"542 68 OFFCURVE",
"542 196 CURVE SMOOTH",
"542 351 OFFCURVE",
"422 383 OFFCURVE",
"305 405 CURVE SMOOTH",
"215 422 OFFCURVE",
"177 456 OFFCURVE",
"177 520 CURVE SMOOTH",
"177 601 OFFCURVE",
"236 633 OFFCURVE",
"305 633 CURVE SMOOTH",
"374 633 OFFCURVE",
"432 601 OFFCURVE",
"432 520 CURVE SMOOTH",
"432 445 OFFCURVE",
"382 414 OFFCURVE",
"305 405 CURVE",
"305 364 LINE",
"418 370 OFFCURVE",
"517 402 OFFCURVE",
"517 520 CURVE SMOOTH",
"517 635 OFFCURVE",
"434 710 OFFCURVE",
"305 710 CURVE SMOOTH",
"176 710 OFFCURVE",
"92 635 OFFCURVE",
"92 520 CURVE SMOOTH",
"92 383 OFFCURVE",
"197 351 OFFCURVE",
"305 328 CURVE SMOOTH",
"394 309 OFFCURVE",
"457 291 OFFCURVE",
"457 196 CURVE SMOOTH",
"457 116 OFFCURVE",
"400 67 OFFCURVE",
"305 67 CURVE SMOOTH",
"208 67 OFFCURVE",
"153 116 OFFCURVE",
"153 196 CURVE SMOOTH",
"153 276 OFFCURVE",
"213 315 OFFCURVE",
"305 328 CURVE",
"305 369 LINE"
);
}
);
width = 610;
},
{
associatedMasterId = "B33A6296-7F33-4AA4-95A6-15EAB02AACC1";
layerId = "262B58FE-1A4F-4AC9-95F2-8FB6FAB71127";
name = "Dec 16 17, 18:26";
paths = (
{
closed = 1;
nodes = (
"260 403 OFFCURVE",
"68 358 OFFCURVE",
"68 196 CURVE SMOOTH",
"68 68 OFFCURVE",
"167 -10 OFFCURVE",
"305 -10 CURVE SMOOTH",
"442 -10 OFFCURVE",
"542 69 OFFCURVE",
"542 196 CURVE SMOOTH",
"542 351 OFFCURVE",
"422 383 OFFCURVE",
"305 405 CURVE SMOOTH",
"215 422 OFFCURVE",
"177 456 OFFCURVE",
"177 520 CURVE SMOOTH",
"177 601 OFFCURVE",
"236 633 OFFCURVE",
"305 633 CURVE SMOOTH",
"374 633 OFFCURVE",
"432 601 OFFCURVE",
"432 520 CURVE SMOOTH",
"432 445 OFFCURVE",
"382 384 OFFCURVE",
"305 375 CURVE",
"305 334 LINE",
"418 340 OFFCURVE",
"517 402 OFFCURVE",
"517 520 CURVE SMOOTH",
"517 634 OFFCURVE",
"434 710 OFFCURVE",
"305 710 CURVE SMOOTH",
"176 710 OFFCURVE",
"92 634 OFFCURVE",
"92 520 CURVE SMOOTH",
"92 385 OFFCURVE",
"197 351 OFFCURVE",
"305 328 CURVE SMOOTH",
"394 309 OFFCURVE",
"457 291 OFFCURVE",
"457 196 CURVE SMOOTH",
"457 116 OFFCURVE",
"400 67 OFFCURVE",
"305 67 CURVE SMOOTH",
"208 67 OFFCURVE",
"153 116 OFFCURVE",
"153 196 CURVE SMOOTH",
"153 276 OFFCURVE",
"213 345 OFFCURVE",
"305 358 CURVE",
"305 399 LINE"
);
}
);
width = 610;
}
);
unicode = 0038;
}
{
glyphname = nine;
layers = (
{
layerId = "B33A6296-7F33-4AA4-95A6-15EAB02AACC1";
paths = (
{
closed = 1;
nodes = (
"75 115 LINE",
"108 48 OFFCURVE",
"180 -10 OFFCURVE",
"288 -10 CURVE SMOOTH",
"475 -10 OFFCURVE",
"550 165 OFFCURVE",
"550 364 CURVE SMOOTH",
"550 569 OFFCURVE",
"471 710 OFFCURVE",
"302 710 CURVE SMOOTH",
"147 710 OFFCURVE",
"59 591 OFFCURVE",
"59 464 CURVE SMOOTH",
"59 319 OFFCURVE",
"175 237 OFFCURVE",
"292 237 CURVE SMOOTH",
"431 237 OFFCURVE",
"508 354 OFFCURVE",
"489 509 CURVE",
"448 509 LINE",
"465 376 OFFCURVE",
"387 314 OFFCURVE",
"294 314 CURVE SMOOTH",
"181 314 OFFCURVE",
"144 407 OFFCURVE",
"144 468 CURVE SMOOTH",
"144 537 OFFCURVE",
"192 633 OFFCURVE",
"301 633 CURVE SMOOTH",
"436 633 OFFCURVE",
"465 486 OFFCURVE",
"465 369 CURVE SMOOTH",
"465 274 OFFCURVE",
"446 67 OFFCURVE",
"286 67 CURVE SMOOTH",
"241 67 OFFCURVE",
"183 83 OFFCURVE",
"150 151 CURVE"
);
}
);
width = 610;
},
{
associatedMasterId = "B33A6296-7F33-4AA4-95A6-15EAB02AACC1";
layerId = "36060DDA-670D-4168-BF8B-E70A30B922E8";
name = "1";
paths = (
{
closed = 1;
nodes = (
"88 79 LINE",
"127 39 OFFCURVE",
"179 -8 OFFCURVE",
"289 -10 CURVE SMOOTH",
"470 -13 OFFCURVE",
"548 143 OFFCURVE",
"548 379 CURVE SMOOTH",
"548 566 OFFCURVE",
"464 710 OFFCURVE",
"291 710 CURVE SMOOTH",
"144 710 OFFCURVE",
"62 589 OFFCURVE",
"62 470 CURVE SMOOTH",
"62 316 OFFCURVE",
"171 248 OFFCURVE",
"281 248 CURVE SMOOTH",
"422 248 OFFCURVE",
"499 382 OFFCURVE",
"499 459 CURVE",
"459 459 LINE",
"459 402 OFFCURVE",
"380 323 OFFCURVE",
"291 323 CURVE SMOOTH",
"173 323 OFFCURVE",
"145 407 OFFCURVE",
"145 470 CURVE SMOOTH",
"145 537 OFFCURVE",
"189 635 OFFCURVE",
"291 635 CURVE SMOOTH",
"431 635 OFFCURVE",
"466 486 OFFCURVE",
"466 379 CURVE SMOOTH",
"466 214 OFFCURVE",
"422 61 OFFCURVE",
"289 65 CURVE SMOOTH",
"217 67 OFFCURVE",
"172 100 OFFCURVE",
"139 137 CURVE"
);
}
);
width = 610;
},
{
associatedMasterId = "B33A6296-7F33-4AA4-95A6-15EAB02AACC1";
layerId = "EB7BA518-3370-4819-B52A-34732FB936DA";
name = "Dec 16 17, 18:30";
paths = (
{
closed = 1;
nodes = (
"75 115 LINE",
"114 40 OFFCURVE",
"181 -10 OFFCURVE",
"297 -10 CURVE SMOOTH",
"474 -10 OFFCURVE",
"550 166 OFFCURVE",
"550 379 CURVE SMOOTH",
"550 566 OFFCURVE",
"471 710 OFFCURVE",
"297 710 CURVE SMOOTH",
"150 710 OFFCURVE",
"59 589 OFFCURVE",
"59 470 CURVE SMOOTH",
"59 315 OFFCURVE",
"174 237 OFFCURVE",
"297 237 CURVE SMOOTH",
"428 237 OFFCURVE",
"509 356 OFFCURVE",
"489 509 CURVE",
"448 509 LINE",
"465 376 OFFCURVE",
"386 314 OFFCURVE",
"297 314 CURVE SMOOTH",
"179 314 OFFCURVE",
"144 407 OFFCURVE",
"144 470 CURVE SMOOTH",
"144 537 OFFCURVE",
"195 633 OFFCURVE",
"297 633 CURVE SMOOTH",
"437 633 OFFCURVE",
"465 486 OFFCURVE",
"465 379 CURVE SMOOTH",
"465 274 OFFCURVE",
"441 67 OFFCURVE",
"297 67 CURVE SMOOTH",
"238 67 OFFCURVE",
"186 80 OFFCURVE",
"150 151 CURVE"
);
}
);
width = 610;
}
);
unicode = 0039;
}
{
glyphname = at;
layers = (
{
associatedMasterId = "B33A6296-7F33-4AA4-95A6-15EAB02AACC1";
layerId = "6EAEDA82-47DE-462E-92B6-1A3A15509268";
name = "May 22 17, 23:06";
paths = (
{
closed = 1;
nodes = (
"226 510 OFFCURVE",
"182 387 OFFCURVE",
"182 290 CURVE SMOOTH",
"182 193 OFFCURVE",
"232 60 OFFCURVE",
"358 60 CURVE SMOOTH",
"479 60 OFFCURVE",
"512 200 OFFCURVE",
"512 290 CURVE SMOOTH",
"512 380 OFFCURVE",
"478 510 OFFCURVE",
"358 510 CURVE SMOOTH"
);
},
{
closed = 1;
nodes = (
"408 435 OFFCURVE",
"471 380 OFFCURVE",
"471 290 CURVE SMOOTH",
"471 200 OFFCURVE",
"408 135 OFFCURVE",
"358 135 CURVE SMOOTH",
"302 135 OFFCURVE",
"265 193 OFFCURVE",
"265 290 CURVE SMOOTH",
"265 387 OFFCURVE",
"296 435 OFFCURVE",
"358 435 CURVE SMOOTH"
);
},
{
closed = 1;
nodes = (
"479 70 LINE",
"543 70 LINE",
"543 475 LINE SMOOTH",
"543 630 OFFCURVE",
"439 707 OFFCURVE",
"308 707 CURVE SMOOTH",
"114 707 OFFCURVE",
"42 507 OFFCURVE",
"42 270 CURVE SMOOTH",
"42 33 OFFCURVE",
"122 -167 OFFCURVE",
"316 -167 CURVE SMOOTH",
"403 -167 OFFCURVE",
"479 -133 OFFCURVE",
"519 -64 CURVE",
"444 -30 LINE",
"417 -72 OFFCURVE",
"371 -92 OFFCURVE",
"316 -92 CURVE SMOOTH",
"177 -92 OFFCURVE",
"125 99 OFFCURVE",
"125 270 CURVE SMOOTH",
"125 441 OFFCURVE",
"169 632 OFFCURVE",
"308 632 CURVE SMOOTH",
"394 632 OFFCURVE",
"458 584 OFFCURVE",
"461 475 CURVE SMOOTH",
"463 394 LINE",
"471 290 LINE",
"460 175 LINE",
"467 121 LINE"
);
}
);
width = 610;
},
{
associatedMasterId = "B33A6296-7F33-4AA4-95A6-15EAB02AACC1";
background = {
paths = (
{
closed = 1;
nodes = (
"226 510 OFFCURVE",
"182 387 OFFCURVE",
"182 290 CURVE SMOOTH",
"182 193 OFFCURVE",
"232 60 OFFCURVE",
"358 60 CURVE SMOOTH",
"479 60 OFFCURVE",
"512 200 OFFCURVE",
"512 290 CURVE SMOOTH",
"512 380 OFFCURVE",
"478 510 OFFCURVE",
"358 510 CURVE SMOOTH"
);
},
{
closed = 1;
nodes = (
"408 435 OFFCURVE",
"471 380 OFFCURVE",
"471 290 CURVE SMOOTH",
"471 200 OFFCURVE",
"408 135 OFFCURVE",
"358 135 CURVE SMOOTH",
"302 135 OFFCURVE",
"265 193 OFFCURVE",
"265 290 CURVE SMOOTH",
"265 387 OFFCURVE",
"296 435 OFFCURVE",
"358 435 CURVE SMOOTH"
);
},
{
closed = 1;
nodes = (
"479 70 LINE",
"543 70 LINE",
"543 475 LINE SMOOTH",
"543 630 OFFCURVE",
"439 707 OFFCURVE",
"308 707 CURVE SMOOTH",
"114 707 OFFCURVE",
"42 507 OFFCURVE",
"42 270 CURVE SMOOTH",
"42 33 OFFCURVE",
"122 -167 OFFCURVE",
"316 -167 CURVE SMOOTH",
"403 -167 OFFCURVE",
"479 -133 OFFCURVE",
"519 -64 CURVE",
"444 -30 LINE",
"417 -72 OFFCURVE",
"371 -92 OFFCURVE",
"316 -92 CURVE SMOOTH",
"177 -92 OFFCURVE",
"125 99 OFFCURVE",
"125 270 CURVE SMOOTH",
"125 441 OFFCURVE",
"169 632 OFFCURVE",
"308 632 CURVE SMOOTH",
"394 632 OFFCURVE",
"458 584 OFFCURVE",
"461 475 CURVE SMOOTH",
"463 394 LINE",
"471 290 LINE",
"460 175 LINE",
"467 121 LINE"
);
}
);
};
layerId = "D6E38427-EFAB-4753-B826-05B14BCCBD29";
name = "Regular Dec 18 17, 22:50";
paths = (
{
closed = 1;
nodes = (
"226 490 OFFCURVE",
"182 367 OFFCURVE",
"182 280 CURVE SMOOTH",
"182 193 OFFCURVE",
"232 60 OFFCURVE",
"358 60 CURVE SMOOTH",
"479 60 OFFCURVE",
"512 200 OFFCURVE",
"512 280 CURVE SMOOTH",
"512 360 OFFCURVE",
"478 490 OFFCURVE",
"358 490 CURVE SMOOTH"
);
},
{
closed = 1;
nodes = (
"408 415 OFFCURVE",
"471 360 OFFCURVE",
"471 280 CURVE SMOOTH",
"471 200 OFFCURVE",
"408 135 OFFCURVE",
"358 135 CURVE SMOOTH",
"302 135 OFFCURVE",
"265 193 OFFCURVE",
"265 280 CURVE SMOOTH",
"265 367 OFFCURVE",
"296 415 OFFCURVE",
"358 415 CURVE SMOOTH"
);
},
{
closed = 1;
nodes = (
"479 72 LINE",
"543 72 LINE",
"543 475 LINE SMOOTH",
"543 630 OFFCURVE",
"439 707 OFFCURVE",
"308 707 CURVE SMOOTH",
"114 707 OFFCURVE",
"42 507 OFFCURVE",
"42 270 CURVE SMOOTH",
"42 33 OFFCURVE",
"122 -167 OFFCURVE",
"316 -167 CURVE SMOOTH",
"403 -167 OFFCURVE",
"479 -133 OFFCURVE",
"519 -64 CURVE",
"444 -30 LINE",
"417 -72 OFFCURVE",
"371 -92 OFFCURVE",
"316 -92 CURVE SMOOTH",
"177 -92 OFFCURVE",
"125 99 OFFCURVE",
"125 270 CURVE SMOOTH",
"125 441 OFFCURVE",
"169 632 OFFCURVE",
"308 632 CURVE SMOOTH",
"394 632 OFFCURVE",
"458 584 OFFCURVE",
"461 475 CURVE SMOOTH",
"463 394 LINE",
"471 373 LINE",
"471 280 LINE",
"471 177 LINE",
"467 121 LINE"
);
}
);
width = 610;
},
{
associatedMasterId = "B33A6296-7F33-4AA4-95A6-15EAB02AACC1";
background = {
paths = (
{
closed = 1;
nodes = (
"553 772 LINE",
"470 772 LINE",
"473 446 LINE",
"501 322 LINE",
"465 131 LINE",
"502 72 LINE",
"553 72 LINE"
);
}
);
};
layerId = "5676D249-5192-4B57-890D-172D066201D9";
name = "Regular Dec 18 17, 23:01";
paths = (
{
closed = 1;
nodes = (
"502 72 LINE",
"553 72 LINE",
"553 475 LINE SMOOTH",
"553 633 OFFCURVE",
"448 710 OFFCURVE",
"323 710 CURVE SMOOTH",
"165 710 OFFCURVE",
"75 588 OFFCURVE",
"44 421 CURVE SMOOTH",
"36 376 OFFCURVE",
"32 329 OFFCURVE",
"32 280 CURVE SMOOTH",
"32 234 OFFCURVE",
"36 190 OFFCURVE",
"43 147 CURVE SMOOTH",
"73 -32 OFFCURVE",
"168 -167 OFFCURVE",
"330 -167 CURVE SMOOTH",
"416 -167 OFFCURVE",
"492 -129 OFFCURVE",
"529 -64 CURVE",
"454 -30 LINE",
"429 -71 OFFCURVE",
"378 -92 OFFCURVE",
"330 -92 CURVE SMOOTH",
"219 -92 OFFCURVE",
"152 23 OFFCURVE",
"127 155 CURVE SMOOTH",
"119 196 OFFCURVE",
"115 239 OFFCURVE",
"115 281 CURVE SMOOTH",
"115 326 OFFCURVE",
"119 371 OFFCURVE",
"128 415 CURVE SMOOTH",
"154 535 OFFCURVE",
"215 635 OFFCURVE",
"325 635 CURVE SMOOTH",
"401 635 OFFCURVE",
"466 587 OFFCURVE",
"470 475 CURVE SMOOTH",
"473 394 LINE",
"481 373 LINE",
"486 281 LINE",
"481 177 LINE",
"465 131 LINE"
);
},
{
closed = 1;
nodes = (
"230 491 OFFCURVE",
"169 373 OFFCURVE",
"169 276 CURVE SMOOTH",
"169 178 OFFCURVE",
"231 62 OFFCURVE",
"360 62 CURVE SMOOTH",
"483 62 OFFCURVE",
"522 184 OFFCURVE",
"522 277 CURVE SMOOTH",
"522 368 OFFCURVE",
"494 491 OFFCURVE",
"361 491 CURVE SMOOTH"
);
},
{
closed = 1;
nodes = (
"435 416 OFFCURVE",
"486 368 OFFCURVE",
"486 278 CURVE SMOOTH",
"486 185 OFFCURVE",
"436 137 OFFCURVE",
"357 137 CURVE SMOOTH",
"301 137 OFFCURVE",
"252 196 OFFCURVE",
"252 277 CURVE SMOOTH",
"252 344 OFFCURVE",
"290 416 OFFCURVE",
"361 416 CURVE SMOOTH"
);
}
);
width = 610;
},
{
associatedMasterId = "B33A6296-7F33-4AA4-95A6-15EAB02AACC1";
background = {
paths = (
{
closed = 1;
nodes = (
"509 72 LINE",
"560 72 LINE",
"560 465 LINE SMOOTH",
"560 651 OFFCURVE",
"415 710 OFFCURVE",
"307 710 CURVE SMOOTH",
"199 710 OFFCURVE",
"51 651 OFFCURVE",
"51 465 CURVE SMOOTH",
"50 78 LINE SMOOTH",
"50 -108 OFFCURVE",
"199 -167 OFFCURVE",
"307 -167 CURVE SMOOTH",
"409 -167 OFFCURVE",
"499 -129 OFFCURVE",
"536 -64 CURVE",
"461 -30 LINE",
"436 -71 OFFCURVE",
"371 -92 OFFCURVE",
"307 -92 CURVE SMOOTH",
"246 -92 OFFCURVE",
"134 -55 OFFCURVE",
"134 78 CURVE SMOOTH",
"135 465 LINE SMOOTH",
"135 598 OFFCURVE",
"246 635 OFFCURVE",
"307 635 CURVE SMOOTH",
"368 635 OFFCURVE",
"477 598 OFFCURVE",
"477 465 CURVE SMOOTH",
"477 394 LINE",
"488 373 LINE",
"493 281 LINE",
"488 177 LINE",
"472 131 LINE"
);
}
);
};
components = (
{
name = DotWideUppercase;
transform = "{1, 0, 0, 1, -150, 220}";
}
);
layerId = "ABF2AFA8-2BD1-4CCD-9FC1-1E13045DD3B1";
name = "Regular Dec 20 17, 23:01";
paths = (
{
closed = 1;
nodes = (
"509 72 LINE",
"560 72 LINE",
"560 465 LINE SMOOTH",
"560 651 OFFCURVE",
"415 710 OFFCURVE",
"307 710 CURVE SMOOTH",
"129 710 OFFCURVE",
"43 621 OFFCURVE",
"43 282 CURVE SMOOTH",
"43 262 LINE SMOOTH",
"43 -78 OFFCURVE",
"129 -167 OFFCURVE",
"307 -167 CURVE SMOOTH",
"409 -167 OFFCURVE",
"499 -129 OFFCURVE",
"536 -64 CURVE",
"461 -30 LINE",
"436 -71 OFFCURVE",
"371 -92 OFFCURVE",
"307 -92 CURVE SMOOTH",
"186 -92 OFFCURVE",
"128 -24 OFFCURVE",
"128 262 CURVE SMOOTH",
"128 282 LINE SMOOTH",
"128 567 OFFCURVE",
"196 635 OFFCURVE",
"307 635 CURVE SMOOTH",
"368 635 OFFCURVE",
"477 598 OFFCURVE",
"477 465 CURVE SMOOTH",
"477 394 LINE",
"488 373 LINE",
"493 281 LINE",
"488 177 LINE",
"472 131 LINE"
);
},
{
closed = 1;
nodes = (
"239 491 OFFCURVE",
"182 381 OFFCURVE",
"182 276 CURVE SMOOTH",
"182 172 OFFCURVE",
"240 62 OFFCURVE",
"369 62 CURVE SMOOTH",
"492 62 OFFCURVE",
"529 184 OFFCURVE",
"529 277 CURVE SMOOTH",
"529 368 OFFCURVE",
"503 491 OFFCURVE",
"370 491 CURVE SMOOTH"
);
},
{
closed = 1;
nodes = (
"444 416 OFFCURVE",
"493 368 OFFCURVE",
"493 278 CURVE SMOOTH",
"493 185 OFFCURVE",
"445 137 OFFCURVE",
"366 137 CURVE SMOOTH",
"310 137 OFFCURVE",
"265 190 OFFCURVE",
"265 277 CURVE SMOOTH",
"265 352 OFFCURVE",
"299 416 OFFCURVE",
"370 416 CURVE SMOOTH"
);
}
);
width = 610;
},
{
background = {
paths = (
{
closed = 1;
nodes = (
"509 72 LINE",
"560 72 LINE",
"560 465 LINE SMOOTH",
"560 651 OFFCURVE",
"415 710 OFFCURVE",
"307 710 CURVE SMOOTH",
"199 710 OFFCURVE",
"51 651 OFFCURVE",
"51 465 CURVE SMOOTH",
"50 78 LINE SMOOTH",
"50 -108 OFFCURVE",
"199 -167 OFFCURVE",
"307 -167 CURVE SMOOTH",
"409 -167 OFFCURVE",
"499 -129 OFFCURVE",
"536 -64 CURVE",
"461 -30 LINE",
"436 -71 OFFCURVE",
"371 -92 OFFCURVE",
"307 -92 CURVE SMOOTH",
"246 -92 OFFCURVE",
"134 -55 OFFCURVE",
"134 78 CURVE SMOOTH",
"135 465 LINE SMOOTH",
"135 598 OFFCURVE",
"246 635 OFFCURVE",
"307 635 CURVE SMOOTH",
"368 635 OFFCURVE",
"477 598 OFFCURVE",
"477 465 CURVE SMOOTH",
"477 394 LINE",
"488 373 LINE",
"493 281 LINE",
"488 177 LINE",
"472 131 LINE"
);
}
);
};
layerId = "B33A6296-7F33-4AA4-95A6-15EAB02AACC1";
paths = (
{
closed = 1;
nodes = (
"509 72 LINE",
"560 72 LINE",
"560 465 LINE SMOOTH",
"560 651 OFFCURVE",
"415 710 OFFCURVE",
"307 710 CURVE SMOOTH",
"199 710 OFFCURVE",
"51 651 OFFCURVE",
"51 465 CURVE SMOOTH",
"50 78 LINE SMOOTH",
"50 -108 OFFCURVE",
"199 -167 OFFCURVE",
"307 -167 CURVE SMOOTH",
"409 -167 OFFCURVE",
"499 -129 OFFCURVE",
"536 -64 CURVE",
"461 -30 LINE",
"436 -71 OFFCURVE",
"371 -92 OFFCURVE",
"307 -92 CURVE SMOOTH",
"246 -92 OFFCURVE",
"134 -55 OFFCURVE",
"134 78 CURVE SMOOTH",
"135 465 LINE SMOOTH",
"135 598 OFFCURVE",
"246 635 OFFCURVE",
"307 635 CURVE SMOOTH",
"368 635 OFFCURVE",
"477 598 OFFCURVE",
"477 465 CURVE SMOOTH",
"477 394 LINE",
"488 373 LINE",
"493 281 LINE",
"488 177 LINE",
"472 131 LINE"
);
},
{
closed = 1;
nodes = (
"263 491 OFFCURVE",
"186 405 OFFCURVE",
"186 276 CURVE SMOOTH",
"186 148 OFFCURVE",
"262 62 OFFCURVE",
"367 62 CURVE SMOOTH",
"490 62 OFFCURVE",
"529 184 OFFCURVE",
"529 277 CURVE SMOOTH",
"529 368 OFFCURVE",
"501 491 OFFCURVE",
"368 491 CURVE SMOOTH"
);
},
{
closed = 1;
nodes = (
"448 416 OFFCURVE",
"493 361 OFFCURVE",
"493 278 CURVE SMOOTH",
"493 193 OFFCURVE",
"446 137 OFFCURVE",
"376 137 CURVE SMOOTH",
"312 137 OFFCURVE",
"269 193 OFFCURVE",
"269 277 CURVE SMOOTH",
"269 360 OFFCURVE",
"313 416 OFFCURVE",
"380 416 CURVE SMOOTH"
);
}
);
width = 610;
}
);
unicode = 0040;
}
{
glyphname = A;
layers = (
{
anchors = (
{
name = ogonek;
position = "{401, 10}";
},
{
name = top;
position = "{303, 800}";
}
);
layerId = "B33A6296-7F33-4AA4-95A6-15EAB02AACC1";
paths = (
{
closed = 1;
nodes = (
"156 211 LINE",
"454 211 LINE",
"454 287 LINE",
"156 287 LINE"
);
},
{
closed = 1;
nodes = (
"337 700 LINE",
"274 700 LINE",
"30 0 LINE",
"120 0 LINE",
"329 633 LINE",
"281 633 LINE",
"490 0 LINE",
"580 0 LINE"
);
}
);
width = 610;
},
{
anchors = (
{
name = ogonek;
position = "{451, 10}";
},
{
name = top;
position = "{303, 500}";
}
);
associatedMasterId = "B33A6296-7F33-4AA4-95A6-15EAB02AACC1";
guideLines = (
{
position = "{302, 775}";
}
);
hints = (
{
horizontal = 1;
origin = "{1, 2}";
target = up;
type = BottomGhost;
},
{
horizontal = 1;
origin = "{0, 0}";
target = "{0, 3}";
type = Stem;
},
{
horizontal = 1;
origin = "{1, 1}";
target = down;
type = TopGhost;
},
{
place = "{53, 500}";
type = Stem;
}
);
layerId = "C6ABD813-0D53-4104-A156-CD491871EB60";
name = "Regular Feb 14 17, 19:02";
paths = (
{
closed = 1;
nodes = (
"149 221 LINE",
"447 221 LINE",
"447 296 LINE",
"149 296 LINE"
);
},
{
closed = 1;
nodes = (
"348 700 LINE",
"262 700 LINE",
"55 0 LINE",
"141 0 LINE",
"318 631 LINE",
"292 631 LINE",
"469 0 LINE",
"555 0 LINE"
);
}
);
width = 610;
},
{
anchors = (
{
name = ogonek;
position = "{451, 10}";
},
{
name = top;
position = "{303, 500}";
}
);
associatedMasterId = "B33A6296-7F33-4AA4-95A6-15EAB02AACC1";
components = (
{
name = DotWideUppercase;
transform = "{1, 0, 0, 1, 224, -327}";
}
);
guideLines = (
{
position = "{302, 775}";
}
);
hints = (
{
horizontal = 1;
origin = "{1, 2}";
target = up;
type = BottomGhost;
},
{
horizontal = 1;
origin = "{0, 0}";
target = "{0, 3}";
type = Stem;
},
{
horizontal = 1;
origin = "{1, 1}";
target = down;
type = TopGhost;
},
{
place = "{53, 500}";
type = Stem;
}
);
layerId = "08C963C4-8992-4D91-AA93-C602DF4D9EC7";
name = "Regular Feb 14 17, 23:34";
paths = (
{
closed = 1;
nodes = (
"156 211 LINE",
"454 211 LINE",
"454 287 LINE",
"156 287 LINE"
);
},
{
closed = 1;
nodes = (
"337 700 LINE",
"274 700 LINE",
"45 0 LINE",
"134 0 LINE",
"325 633 LINE",
"285 633 LINE",
"476 0 LINE",
"565 0 LINE"
);
}
);
width = 610;
},
{
anchors = (
{
name = ogonek;
position = "{451, 10}";
},
{
name = top;
position = "{303, 500}";
}
);
associatedMasterId = "B33A6296-7F33-4AA4-95A6-15EAB02AACC1";
guideLines = (
{
position = "{302, 775}";
}
);
layerId = "D768F950-002D-44F2-A3DE-2BFB5AF8172B";
name = "Mar 16 17, 23:03";
paths = (
{
closed = 1;
nodes = (
"156 211 LINE",
"454 211 LINE",
"454 287 LINE",
"156 287 LINE"
);
},
{
closed = 1;
nodes = (
"337 700 LINE",
"274 700 LINE",
"35 0 LINE",
"125 0 LINE",
"329 633 LINE",
"281 633 LINE",
"485 0 LINE",
"575 0 LINE"
);
}
);
width = 610;
}
);
unicode = 0041;
}
{
glyphname = B;
layers = (
{
background = {
components = (
{
name = R;
transform = "{1, 0, 0, 1, -37, 0}";
}
);
};
layerId = "B33A6296-7F33-4AA4-95A6-15EAB02AACC1";
paths = (
{
closed = 1;
nodes = (
"425 362 OFFCURVE",
"502 419 OFFCURVE",
"502 522 CURVE SMOOTH",
"502 624 OFFCURVE",
"423 700 OFFCURVE",
"309 700 CURVE SMOOTH",
"122 700 LINE",
"122 623 LINE",
"305 623 LINE SMOOTH",
"399 623 OFFCURVE",
"417 558 OFFCURVE",
"417 522 CURVE SMOOTH",
"417 484 OFFCURVE",
"399 419 OFFCURVE",
"317 419 CURVE",
"268 419 LINE",
"268 362 LINE",
"309 362 LINE SMOOTH"
);
},
{
closed = 1;
nodes = (
"168 0 LINE",
"168 700 LINE",
"83 700 LINE",
"83 0 LINE"
);
},
{
closed = 1;
nodes = (
"452 0 OFFCURVE",
"526 105 OFFCURVE",
"526 209 CURVE SMOOTH",
"526 317 OFFCURVE",
"437 419 OFFCURVE",
"295 419 CURVE SMOOTH",
"126 419 LINE",
"126 342 LINE",
"290 342 LINE SMOOTH",
"425 342 OFFCURVE",
"441 247 OFFCURVE",
"441 209 CURVE SMOOTH",
"441 171 OFFCURVE",
"424 77 OFFCURVE",
"310 77 CURVE SMOOTH",
"146 77 LINE",
"146 0 LINE",
"323 0 LINE SMOOTH"
);
}
);
width = 610;
},
{
associatedMasterId = "B33A6296-7F33-4AA4-95A6-15EAB02AACC1";
layerId = "B4A4A26E-8BC4-4962-9291-BA3B3497F6DA";
name = "1";
paths = (
{
closed = 1;
nodes = (
"425 353 OFFCURVE",
"501 419 OFFCURVE",
"501 522 CURVE SMOOTH",
"501 623 OFFCURVE",
"423 700 OFFCURVE",
"311 700 CURVE SMOOTH",
"122 700 LINE",
"122 625 LINE",
"305 625 LINE SMOOTH",
"399 625 OFFCURVE",
"418 558 OFFCURVE",
"418 522 CURVE SMOOTH",
"418 484 OFFCURVE",
"399 418 OFFCURVE",
"317 418 CURVE SMOOTH",
"268 418 LINE",
"268 353 LINE",
"309 353 LINE SMOOTH"
);
},
{
closed = 1;
nodes = (
"167 0 LINE",
"167 700 LINE",
"84 700 LINE",
"84 0 LINE"
);
},
{
closed = 1;
nodes = (
"449 0 OFFCURVE",
"525 105 OFFCURVE",
"525 209 CURVE SMOOTH",
"525 317 OFFCURVE",
"440 418 OFFCURVE",
"298 418 CURVE SMOOTH",
"126 418 LINE",
"126 343 LINE",
"290 343 LINE SMOOTH",
"425 343 OFFCURVE",
"442 247 OFFCURVE",
"442 209 CURVE SMOOTH",
"442 171 OFFCURVE",
"424 75 OFFCURVE",
"310 75 CURVE SMOOTH",
"146 75 LINE",
"146 0 LINE",
"315 0 LINE SMOOTH"
);
}
);
width = 610;
}
);
unicode = 0042;
}
{
glyphname = C;
layers = (
{
anchors = (
{
name = bottom;
position = "{336, 0}";
},
{
name = top;
position = "{328, 500}";
}
);
associatedMasterId = "B33A6296-7F33-4AA4-95A6-15EAB02AACC1";
background = {
components = (
{
name = c;
transform = "{1.384, 0, 0, 1.384, -118, 4}";
}
);
};
guideLines = (
{
position = "{302, 775}";
}
);
layerId = "A8B51898-01A3-4EA6-B2B5-4711459C3885";
name = "3";
paths = (
{
closed = 1;
nodes = (
"120 350 LINE",
"120 534 OFFCURVE",
"194 633 OFFCURVE",
"319 633 CURVE SMOOTH",
"421 633 OFFCURVE",
"457 582 OFFCURVE",
"498 488 CURVE",
"571 520 LINE",
"534 617 OFFCURVE",
"474 710 OFFCURVE",
"319 710 CURVE SMOOTH",
"119 710 OFFCURVE",
"35 540 OFFCURVE",
"35 350 CURVE"
);
},
{
closed = 1;
nodes = (
"35 160 OFFCURVE",
"119 -10 OFFCURVE",
"319 -10 CURVE SMOOTH",
"474 -10 OFFCURVE",
"534 83 OFFCURVE",
"571 180 CURVE",
"498 212 LINE",
"457 118 OFFCURVE",
"421 67 OFFCURVE",
"319 67 CURVE SMOOTH",
"194 67 OFFCURVE",
"120 166 OFFCURVE",
"120 350 CURVE",
"35 350 LINE"
);
}
);
width = 610;
},
{
anchors = (
{
name = bottom;
position = "{336, 0}";
},
{
name = top;
position = "{328, 500}";
}
);
associatedMasterId = "B33A6296-7F33-4AA4-95A6-15EAB02AACC1";
background = {
components = (
{
name = c;
transform = "{1.384, 0, 0, 1.384, -118, 4}";
}
);
};
guideLines = (
{
position = "{302, 775}";
}
);
layerId = "D64D6DEC-A635-4F3B-9CA2-A29E9A1E6E98";
name = "2";
paths = (
{
closed = 1;
nodes = (
"120 350 LINE",
"120 534 OFFCURVE",
"194 633 OFFCURVE",
"319 633 CURVE SMOOTH",
"421 633 OFFCURVE",
"477 582 OFFCURVE",
"518 488 CURVE",
"591 520 LINE",
"554 617 OFFCURVE",
"474 710 OFFCURVE",
"319 710 CURVE SMOOTH",
"119 710 OFFCURVE",
"35 540 OFFCURVE",
"35 350 CURVE"
);
},
{
closed = 1;
nodes = (
"35 160 OFFCURVE",
"119 -10 OFFCURVE",
"319 -10 CURVE SMOOTH",
"474 -10 OFFCURVE",
"554 83 OFFCURVE",
"591 180 CURVE",
"518 212 LINE",
"477 118 OFFCURVE",
"421 67 OFFCURVE",
"319 67 CURVE SMOOTH",
"194 67 OFFCURVE",
"120 166 OFFCURVE",
"120 350 CURVE",
"35 350 LINE"
);
}
);
width = 610;
},
{
anchors = (
{
name = bottom;
position = "{336, 0}";
},
{
name = top;
position = "{313, 800}";
}
);
background = {
components = (
{
name = O;
transform = "{1, 0, 0, 1, 9, 0}";
}
);
};
layerId = "B33A6296-7F33-4AA4-95A6-15EAB02AACC1";
paths = (
{
closed = 1;
nodes = (
"208 67 OFFCURVE",
"135 166 OFFCURVE",
"135 350 CURVE SMOOTH",
"135 534 OFFCURVE",
"208 633 OFFCURVE",
"327 633 CURVE SMOOTH",
"424 633 OFFCURVE",
"461 557 OFFCURVE",
"485 496 CURVE",
"560 528 LINE",
"541 594 OFFCURVE",
"478 710 OFFCURVE",
"327 710 CURVE SMOOTH",
"133 710 OFFCURVE",
"50 540 OFFCURVE",
"50 350 CURVE SMOOTH",
"50 160 OFFCURVE",
"133 -10 OFFCURVE",
"327 -10 CURVE SMOOTH",
"478 -10 OFFCURVE",
"541 106 OFFCURVE",
"560 172 CURVE",
"485 204 LINE",
"461 143 OFFCURVE",
"424 67 OFFCURVE",
"327 67 CURVE SMOOTH"
);
}
);
width = 610;
},
{
anchors = (
{
name = bottom;
position = "{336, 0}";
},
{
name = top;
position = "{328, 500}";
}
);
associatedMasterId = "B33A6296-7F33-4AA4-95A6-15EAB02AACC1";
guideLines = (
{
position = "{302, 775}";
}
);
layerId = "3D483C6B-AD83-4905-92B2-2E795EC899A5";
name = "1";
paths = (
{
closed = 1;
nodes = (
"203 65 OFFCURVE",
"129 166 OFFCURVE",
"129 350 CURVE SMOOTH",
"129 534 OFFCURVE",
"203 635 OFFCURVE",
"328 635 CURVE SMOOTH",
"430 635 OFFCURVE",
"467 557 OFFCURVE",
"491 496 CURVE",
"564 528 LINE",
"544 592 OFFCURVE",
"483 710 OFFCURVE",
"328 710 CURVE SMOOTH",
"128 710 OFFCURVE",
"46 540 OFFCURVE",
"46 350 CURVE SMOOTH",
"46 160 OFFCURVE",
"128 -10 OFFCURVE",
"328 -10 CURVE SMOOTH",
"483 -10 OFFCURVE",
"544 108 OFFCURVE",
"564 172 CURVE",
"491 204 LINE",
"467 143 OFFCURVE",
"430 65 OFFCURVE",
"328 65 CURVE SMOOTH"
);
}
);
width = 610;
}
);
unicode = 0043;
}
{
glyphname = D;
layers = (
{
anchors = (
{
name = bottom;
position = "{156, 0}";
},
{
name = center;
position = "{138, 345}";
},
{
name = top;
position = "{242, 500}";
}
);
associatedMasterId = "B33A6296-7F33-4AA4-95A6-15EAB02AACC1";
guideLines = (
{
position = "{302, 775}";
}
);
layerId = "D4E53E39-CB06-4BE6-B226-F7EBC27DF91A";
name = "1";
paths = (
{
closed = 1;
nodes = (
"73 0 LINE",
"156 0 LINE",
"156 700 LINE",
"73 700 LINE"
);
},
{
closed = 1;
nodes = (
"118 700 LINE",
"118 625 LINE",
"254 625 LINE SMOOTH",
"387 625 OFFCURVE",
"454 489 OFFCURVE",
"454 350 CURVE SMOOTH",
"454 211 OFFCURVE",
"387 75 OFFCURVE",
"254 75 CURVE SMOOTH",
"118 75 LINE",
"118 0 LINE",
"251 0 LINE SMOOTH",
"434 0 OFFCURVE",
"537 163 OFFCURVE",
"537 350 CURVE SMOOTH",
"537 537 OFFCURVE",
"434 700 OFFCURVE",
"251 700 CURVE SMOOTH"
);
}
);
width = 610;
},
{
anchors = (
{
name = bottom;
position = "{156, 0}";
},
{
name = center;
position = "{138, 345}";
},
{
name = top;
position = "{242, 500}";
}
);
associatedMasterId = "B33A6296-7F33-4AA4-95A6-15EAB02AACC1";
guideLines = (
{
position = "{302, 775}";
}
);
layerId = "DF571062-D5EA-47AF-8481-A693C9271A0F";
name = "2";
paths = (
{
closed = 1;
nodes = (
"73 0 LINE",
"156 0 LINE",
"156 700 LINE",
"73 700 LINE"
);
},
{
closed = 1;
nodes = (
"118 700 LINE",
"118 625 LINE",
"254 625 LINE SMOOTH",
"397 625 OFFCURVE",
"454 489 OFFCURVE",
"454 350 CURVE SMOOTH",
"454 211 OFFCURVE",
"397 75 OFFCURVE",
"254 75 CURVE SMOOTH",
"118 75 LINE",
"118 0 LINE",
"251 0 LINE SMOOTH",
"444 0 OFFCURVE",
"537 163 OFFCURVE",
"537 350 CURVE SMOOTH",
"537 537 OFFCURVE",
"444 700 OFFCURVE",
"251 700 CURVE SMOOTH"
);
}
);
width = 610;
},
{
anchors = (
{
name = bottom;
position = "{156, 0}";
},
{
name = center;
position = "{138, 345}";
},
{
name = top;
position = "{242, 500}";
}
);
associatedMasterId = "B33A6296-7F33-4AA4-95A6-15EAB02AACC1";
guideLines = (
{
position = "{302, 775}";
}
);
layerId = "EFC6A243-7346-49F0-9CB4-14FD537850A5";
name = "3";
paths = (
{
closed = 1;
nodes = (
"72 0 LINE",
"157 0 LINE",
"157 700 LINE",
"72 700 LINE"
);
},
{
closed = 1;
nodes = (
"118 700 LINE",
"118 623 LINE",
"254 623 LINE SMOOTH",
"397 623 OFFCURVE",
"453 489 OFFCURVE",
"453 350 CURVE SMOOTH",
"453 211 OFFCURVE",
"397 77 OFFCURVE",
"254 77 CURVE SMOOTH",
"118 77 LINE",
"118 0 LINE",
"251 0 LINE SMOOTH",
"447 0 OFFCURVE",
"538 163 OFFCURVE",
"538 350 CURVE SMOOTH",
"538 537 OFFCURVE",
"448 700 OFFCURVE",
"251 700 CURVE SMOOTH"
);
}
);
width = 610;
},
{
anchors = (
{
name = bottom;
position = "{156, 0}";
},
{
name = center;
position = "{138, 345}";
},
{
name = top;
position = "{242, 800}";
}
);
background = {
components = (
{
name = C;
transform = "{-1, 0, 0, 0.9722, 588, 10}";
}
);
};
layerId = "B33A6296-7F33-4AA4-95A6-15EAB02AACC1";
paths = (
{
closed = 1;
nodes = (
"72 0 LINE",
"157 0 LINE",
"157 700 LINE",
"72 700 LINE"
);
},
{
closed = 1;
nodes = (
"118 700 LINE",
"118 623 LINE",
"254 623 LINE SMOOTH",
"415 623 OFFCURVE",
"453 489 OFFCURVE",
"453 350 CURVE SMOOTH",
"453 211 OFFCURVE",
"415 77 OFFCURVE",
"254 77 CURVE SMOOTH",
"118 77 LINE",
"118 0 LINE",
"257 0 LINE SMOOTH",
"463 0 OFFCURVE",
"538 163 OFFCURVE",
"538 350 CURVE SMOOTH",
"538 537 OFFCURVE",
"466 700 OFFCURVE",
"257 700 CURVE SMOOTH"
);
}
);
width = 610;
},
{
anchors = (
{
name = bottom;
position = "{156, 0}";
},
{
name = center;
position = "{138, 345}";
},
{
name = top;
position = "{242, 500}";
}
);
associatedMasterId = "B33A6296-7F33-4AA4-95A6-15EAB02AACC1";
background = {
components = (
{
name = C;
transform = "{-1, 0, 0, 0.9722, 588, 10}";
}
);
};
guideLines = (
{
position = "{302, 775}";
}
);
layerId = "6636DE69-8F0D-4478-8FE9-B5CA543FAFC1";
name = "Mar 16 17, 22:21";
paths = (
{
closed = 1;
nodes = (
"72 0 LINE",
"157 0 LINE",
"157 700 LINE",
"72 700 LINE"
);
},
{
closed = 1;
nodes = (
"118 700 LINE",
"118 623 LINE",
"254 623 LINE SMOOTH",
"415 623 OFFCURVE",
"453 489 OFFCURVE",
"453 350 CURVE SMOOTH",
"453 211 OFFCURVE",
"415 77 OFFCURVE",
"254 77 CURVE SMOOTH",
"118 77 LINE",
"118 0 LINE",
"257 0 LINE SMOOTH",
"463 0 OFFCURVE",
"538 163 OFFCURVE",
"538 350 CURVE SMOOTH",
"538 537 OFFCURVE",
"463 700 OFFCURVE",
"257 700 CURVE SMOOTH"
);
}
);
width = 610;
}
);
unicode = 0044;
}
{
glyphname = E;
layers = (
{
anchors = (
{
name = bottom;
position = "{305, 0}";
},
{
name = ogonek;
position = "{360, 0}";
},
{
name = top;
position = "{295, 800}";
}
);
layerId = "B33A6296-7F33-4AA4-95A6-15EAB02AACC1";
paths = (
{
closed = 1;
nodes = (
"143 0 LINE",
"520 0 LINE",
"520 77 LINE",
"143 77 LINE"
);
},
{
closed = 1;
nodes = (
"90 0 LINE",
"175 0 LINE",
"175 700 LINE",
"90 700 LINE"
);
},
{
closed = 1;
nodes = (
"132 623 LINE",
"510 623 LINE",
"510 700 LINE",
"132 700 LINE"
);
},
{
closed = 1;
nodes = (
"100 330 LINE",
"460 330 LINE",
"460 407 LINE",
"100 407 LINE"
);
}
);
width = 610;
},
{
anchors = (
{
name = bottom;
position = "{305, 0}";
},
{
name = ogonek;
position = "{432, 10}";
},
{
name = top;
position = "{300, 500}";
}
);
associatedMasterId = "B33A6296-7F33-4AA4-95A6-15EAB02AACC1";
guideLines = (
{
position = "{302, 775}";
}
);
layerId = "812EF74F-BD74-4B48-88F3-4BF2F45DC5AE";
name = "Regular Feb 21 17, 22:13";
paths = (
{
closed = 1;
nodes = (
"134 0 LINE",
"528 0 LINE",
"528 75 LINE",
"134 75 LINE"
);
},
{
closed = 1;
nodes = (
"82 0 LINE",
"165 0 LINE",
"165 700 LINE",
"82 700 LINE"
);
},
{
closed = 1;
nodes = (
"123 625 LINE",
"518 625 LINE",
"518 700 LINE",
"123 700 LINE"
);
},
{
closed = 1;
nodes = (
"91 331 LINE",
"468 331 LINE",
"468 406 LINE",
"91 406 LINE"
);
}
);
width = 610;
}
);
unicode = 0045;
}
{
glyphname = F;
layers = (
{
layerId = "B33A6296-7F33-4AA4-95A6-15EAB02AACC1";
paths = (
{
closed = 1;
nodes = (
"86 0 LINE",
"171 0 LINE",
"171 700 LINE",
"86 700 LINE"
);
},
{
closed = 1;
nodes = (
"130 623 LINE",
"523 623 LINE",
"523 700 LINE",
"130 700 LINE"
);
},
{
closed = 1;
nodes = (
"128 319 LINE",
"473 319 LINE",
"473 396 LINE",
"128 396 LINE"
);
}
);
width = 610;
}
);
unicode = 0046;
}
{
glyphname = G;
layers = (
{
anchors = (
{
name = bottom;
position = "{305, 0}";
},
{
name = top;
position = "{322, 800}";
}
);
background = {
paths = (
{
closed = 1;
nodes = (
"528 251 LINE",
"486 288 LINE",
"483 161 OFFCURVE",
"411 66 OFFCURVE",
"323 67 CURVE SMOOTH",
"205 68 OFFCURVE",
"133 167 OFFCURVE",
"133 350 CURVE SMOOTH",
"133 534 OFFCURVE",
"206 633 OFFCURVE",
"326 633 CURVE SMOOTH",
"424 633 OFFCURVE",
"461 557 OFFCURVE",
"485 496 CURVE",
"560 528 LINE",
"541 594 OFFCURVE",
"478 710 OFFCURVE",
"326 710 CURVE SMOOTH",
"131 710 OFFCURVE",
"48 540 OFFCURVE",
"48 350 CURVE SMOOTH",
"48 154 OFFCURVE",
"136 -10 OFFCURVE",
"326 -10 CURVE SMOOTH",
"400 -10 OFFCURVE",
"472 46 OFFCURVE",
"497 120 CURVE",
"485 137 LINE",
"486 0 LINE",
"558 0 LINE",
"558 326 LINE",
"346 326 LINE",
"346 249 LINE"
);
}
);
};
guideLines = (
{
position = "{284, -75}";
}
);
layerId = "B33A6296-7F33-4AA4-95A6-15EAB02AACC1";
paths = (
{
closed = 1;
nodes = (
"485 251 LINE",
"485 126 OFFCURVE",
"411 66 OFFCURVE",
"323 67 CURVE SMOOTH",
"205 68 OFFCURVE",
"133 167 OFFCURVE",
"133 350 CURVE SMOOTH",
"133 534 OFFCURVE",
"206 633 OFFCURVE",
"323 633 CURVE SMOOTH",
"424 633 OFFCURVE",
"461 557 OFFCURVE",
"485 496 CURVE",
"560 528 LINE",
"541 594 OFFCURVE",
"478 710 OFFCURVE",
"323 710 CURVE SMOOTH",
"131 710 OFFCURVE",
"48 540 OFFCURVE",
"48 350 CURVE SMOOTH",
"48 154 OFFCURVE",
"136 -10 OFFCURVE",
"323 -10 CURVE SMOOTH",
"400 -10 OFFCURVE",
"516 32 OFFCURVE",
"516 251 CURVE"
);
},
{
closed = 1;
nodes = (
"530 253 LINE",
"485 296 LINE",
"485 112 LINE",
"496 0 LINE",
"558 0 LINE",
"558 326 LINE",
"346 326 LINE",
"346 249 LINE"
);
}
);
width = 610;
},
{
anchors = (
{
name = bottom;
position = "{305, 0}";
},
{
name = top;
position = "{322, 500}";
}
);
associatedMasterId = "B33A6296-7F33-4AA4-95A6-15EAB02AACC1";
guideLines = (
{
position = "{321, 775}";
},
{
position = "{284, -75}";
}
);
layerId = "5396C5FD-B218-4698-83AA-8CB39F4B027F";
name = "Regular Feb 14 17, 22:57";
paths = (
{
closed = 1;
nodes = (
"532 251 LINE",
"490 288 LINE",
"487 160 OFFCURVE",
"414 66 OFFCURVE",
"321 66 CURVE SMOOTH",
"206 66 OFFCURVE",
"132 166 OFFCURVE",
"132 350 CURVE SMOOTH",
"132 533 OFFCURVE",
"206 634 OFFCURVE",
"331 634 CURVE SMOOTH",
"433 634 OFFCURVE",
"470 556 OFFCURVE",
"494 495 CURVE",
"567 527 LINE",
"547 591 OFFCURVE",
"486 709 OFFCURVE",
"331 709 CURVE SMOOTH",
"130 709 OFFCURVE",
"44 539 OFFCURVE",
"49 350 CURVE SMOOTH",
"49 165 OFFCURVE",
"128 -9 OFFCURVE",
"321 -9 CURVE SMOOTH",
"396 -9 OFFCURVE",
"475 44 OFFCURVE",
"502 120 CURVE",
"489 137 LINE",
"490 0 LINE",
"562 0 LINE",
"562 326 LINE",
"346 326 LINE",
"346 251 LINE"
);
}
);
width = 610;
},
{
anchors = (
{
name = bottom;
position = "{305, 0}";
},
{
name = top;
position = "{322, 500}";
}
);
associatedMasterId = "B33A6296-7F33-4AA4-95A6-15EAB02AACC1";
background = {
components = (
{
name = n;
transform = "{-1, 0, 0, -1, 667, 519}";
}
);
};
guideLines = (
{
position = "{321, 775}";
},
{
position = "{284, -75}";
}
);
layerId = "E7BF6046-91FB-4B02-A86D-CFBBE0A8D7FA";
name = "Mar 16 17, 22:44";
paths = (
{
closed = 1;
nodes = (
"528 251 LINE",
"486 288 LINE",
"483 161 OFFCURVE",
"411 66 OFFCURVE",
"323 67 CURVE SMOOTH",
"205 68 OFFCURVE",
"133 167 OFFCURVE",
"133 350 CURVE SMOOTH",
"133 534 OFFCURVE",
"206 633 OFFCURVE",
"326 633 CURVE SMOOTH",
"424 633 OFFCURVE",
"461 557 OFFCURVE",
"485 496 CURVE",
"560 528 LINE",
"541 594 OFFCURVE",
"478 710 OFFCURVE",
"326 710 CURVE SMOOTH",
"131 710 OFFCURVE",
"48 540 OFFCURVE",
"48 350 CURVE SMOOTH",
"48 154 OFFCURVE",
"136 -10 OFFCURVE",
"326 -10 CURVE SMOOTH",
"400 -10 OFFCURVE",
"472 46 OFFCURVE",
"497 120 CURVE",
"485 137 LINE",
"486 0 LINE",
"558 0 LINE",
"558 326 LINE",
"346 326 LINE",
"346 249 LINE"
);
}
);
width = 610;
}
);
unicode = 0047;
}
{
glyphname = H;
layers = (
{
anchors = (
{
name = bottom;
position = "{305, 0}";
},
{
name = center;
position = "{306, 516}";
},
{
name = top;
position = "{305, 800}";
},
{
name = topleft;
position = "{20, 700}";
}
);
layerId = "B33A6296-7F33-4AA4-95A6-15EAB02AACC1";
paths = (
{
closed = 1;
nodes = (
"90 0 LINE",
"175 0 LINE",
"175 700 LINE",
"90 700 LINE"
);
},
{
closed = 1;
nodes = (
"120 339 LINE",
"500 339 LINE",
"500 416 LINE",
"120 416 LINE"
);
},
{
closed = 1;
nodes = (
"435 0 LINE",
"520 0 LINE",
"520 700 LINE",
"435 700 LINE"
);
}
);
width = 610;
}
);
unicode = 0048;
}
{
glyphname = I;
layers = (
{
anchors = (
{
name = ogonek;
position = "{338, 0}";
},
{
name = top;
position = "{305, 800}";
}
);
layerId = "B33A6296-7F33-4AA4-95A6-15EAB02AACC1";
paths = (
{
closed = 1;
nodes = (
"263 0 LINE",
"348 0 LINE",
"348 700 LINE",
"263 700 LINE"
);
},
{
closed = 1;
nodes = (
"95 0 LINE",
"515 0 LINE",
"515 77 LINE",
"95 77 LINE"
);
},
{
closed = 1;
nodes = (
"95 623 LINE",
"515 623 LINE",
"515 700 LINE",
"95 700 LINE"
);
}
);
width = 610;
}
);
unicode = 0049;
}
{
glyphname = P;
layers = (
{
anchors = (
{
name = bottom;
position = "{305, 0}";
},
{
name = top;
position = "{305, 700}";
}
);
layerId = "B33A6296-7F33-4AA4-95A6-15EAB02AACC1";
paths = (
{
closed = 1;
nodes = (
"157 0 LINE",
"157 700 LINE",
"72 700 LINE",
"72 0 LINE"
);
},
{
closed = 1;
nodes = (
"110 700 LINE",
"110 623 LINE",
"333 623 LINE SMOOTH",
"448 623 OFFCURVE",
"463 545 OFFCURVE",
"463 496 CURVE SMOOTH",
"463 447 OFFCURVE",
"448 369 OFFCURVE",
"333 369 CURVE SMOOTH",
"110 369 LINE",
"110 292 LINE",
"342 292 LINE SMOOTH",
"488 292 OFFCURVE",
"548 396 OFFCURVE",
"548 496 CURVE SMOOTH",
"548 596 OFFCURVE",
"488 700 OFFCURVE",
"342 700 CURVE SMOOTH"
);
}
);
width = 610;
}
);
unicode = 0050;
}
{
glyphname = Q;
layers = (
{
components = (
{
name = O;
}
);
layerId = "B33A6296-7F33-4AA4-95A6-15EAB02AACC1";
paths = (
{
closed = 1;
nodes = (
"536 -56 LINE",
"411 97 LINE",
"345 53 LINE",
"469 -102 LINE"
);
}
);
width = 610;
},
{
associatedMasterId = "B33A6296-7F33-4AA4-95A6-15EAB02AACC1";
components = (
{
name = O;
}
);
layerId = "D5C05269-950F-46B2-8924-12C2B0FE0565";
name = "Mar 16 17, 21:55";
paths = (
{
closed = 1;
nodes = (
"499 0 LINE",
"437 -30 OFFCURVE",
"406 -19 OFFCURVE",
"368 50 CURVE",
"321 -9 LINE",
"372 -89 OFFCURVE",
"451 -119 OFFCURVE",
"533 -68 CURVE"
);
}
);
width = 610;
}
);
unicode = 0051;
}
